<svg xmlns="http://www.w3.org/2000/svg" xmlns:xlink="http://www.w3.org/1999/xlink" width="576" zoomAndPan="magnify" viewBox="0 0 432 287.999989" height="384" preserveAspectRatio="xMidYMid meet" version="1.0"><defs><g/></defs><g fill="rgb(100%, 75.689697%, 69.799805%)" fill-opacity="0.302"><g transform="translate(12.795248, 169.166299)"><g><path d="M 59.820312 -54.4375 L 59.457031 -54.875 C 58.4375 -55.890625 57.785156 -57.054688 57.347656 -58.367188 C 56.039062 -62.441406 53.34375 -65.789062 49.414062 -68.410156 C 47.230469 -69.792969 44.757812 -70.882812 41.992188 -71.613281 C 39.226562 -72.339844 36.386719 -72.703125 33.332031 -72.703125 C 30.273438 -72.703125 27.289062 -72.265625 24.453125 -71.539062 C 21.613281 -70.8125 19.066406 -69.71875 16.8125 -68.335938 C 13.753906 -66.445312 11.5 -64.1875 9.898438 -61.496094 C 8.296875 -58.804688 7.570312 -55.890625 7.570312 -52.691406 C 7.570312 -46.578125 10.40625 -41.335938 16.230469 -37.042969 C 18.265625 -35.441406 20.449219 -34.132812 22.851562 -32.96875 C 25.253906 -31.804688 27.726562 -30.636719 30.203125 -29.621094 C 31.65625 -28.890625 33.257812 -28.164062 34.859375 -27.4375 C 36.460938 -26.707031 37.917969 -25.910156 39.226562 -25.179688 C 40.535156 -24.378906 41.628906 -23.578125 42.5 -22.777344 C 43.375 -21.90625 43.8125 -21.105469 43.8125 -20.304688 C 43.8125 -19.285156 43.445312 -18.339844 42.71875 -17.613281 C 41.992188 -16.882812 41.046875 -16.230469 39.953125 -15.792969 C 38.863281 -15.355469 37.699219 -14.992188 36.386719 -14.773438 C 35.078125 -14.480469 33.914062 -14.410156 32.75 -14.410156 C 31.292969 -14.410156 29.839844 -14.554688 28.238281 -14.917969 C 26.636719 -15.210938 25.253906 -15.792969 24.160156 -16.59375 C 23.871094 -16.8125 23.652344 -17.101562 23.652344 -17.464844 C 23.578125 -17.832031 23.652344 -18.121094 23.941406 -18.414062 L 24.015625 -18.484375 C 24.234375 -18.847656 24.234375 -19.210938 24.089844 -19.648438 C 23.871094 -20.085938 23.507812 -20.304688 23.070312 -20.304688 L 6.988281 -20.304688 C 6.476562 -20.304688 6.113281 -20.085938 5.96875 -19.648438 C 5.75 -19.210938 5.75 -18.847656 6.039062 -18.484375 L 6.332031 -18.195312 C 7.351562 -17.03125 8.003906 -15.792969 8.441406 -14.554688 C 9.753906 -10.335938 12.371094 -6.988281 16.449219 -4.4375 C 18.628906 -2.984375 21.179688 -1.890625 23.941406 -1.164062 C 26.707031 -0.363281 29.691406 0 32.75 0 C 36.386719 0 39.808594 -0.507812 42.9375 -1.527344 C 46.066406 -2.546875 48.761719 -3.929688 51.015625 -5.75 C 53.273438 -7.496094 55.019531 -9.679688 56.328125 -12.152344 C 57.566406 -14.628906 58.222656 -17.320312 58.222656 -20.304688 C 58.222656 -23.433594 57.492188 -26.199219 56.109375 -28.527344 C 54.726562 -30.855469 52.980469 -32.894531 50.796875 -34.640625 C 48.613281 -36.386719 46.285156 -37.84375 43.664062 -39.152344 C 41.046875 -40.464844 38.5 -41.628906 36.023438 -42.792969 C 34.351562 -43.519531 32.675781 -44.246094 31.003906 -45.046875 C 29.328125 -45.777344 27.800781 -46.578125 26.492188 -47.449219 C 25.179688 -48.25 24.089844 -49.125 23.214844 -49.996094 C 22.34375 -50.871094 21.976562 -51.742188 21.976562 -52.691406 C 21.976562 -53.492188 22.269531 -54.21875 22.996094 -54.945312 C 23.652344 -55.671875 24.527344 -56.253906 25.617188 -56.765625 C 26.636719 -57.203125 27.875 -57.566406 29.257812 -57.855469 C 30.566406 -58.148438 31.949219 -58.292969 33.332031 -58.292969 C 34.933594 -58.292969 36.535156 -58.074219 37.988281 -57.785156 C 39.445312 -57.421875 40.609375 -56.910156 41.628906 -56.253906 C 41.917969 -56.039062 42.136719 -55.746094 42.136719 -55.382812 C 42.136719 -55.019531 42.066406 -54.726562 41.847656 -54.507812 L 41.847656 -54.4375 C 41.554688 -54 41.554688 -53.636719 41.773438 -53.273438 C 41.917969 -52.835938 42.28125 -52.691406 42.792969 -52.691406 L 58.875 -52.691406 C 59.3125 -52.691406 59.675781 -52.835938 59.894531 -53.273438 C 60.039062 -53.636719 60.039062 -54 59.820312 -54.4375 Z M 59.820312 -54.4375 "/></g></g></g><g fill="rgb(100%, 75.689697%, 69.799805%)" fill-opacity="0.302"><g transform="translate(78.657933, 169.166299)"><g><path d="M 56.984375 -74.160156 L 56.910156 -74.085938 C 55.601562 -72.921875 54.144531 -72.339844 52.472656 -72.339844 L 15.066406 -72.339844 C 13.316406 -72.339844 11.863281 -72.921875 10.550781 -74.085938 L 10.550781 -74.160156 C 10.117188 -74.378906 9.753906 -74.378906 9.316406 -74.160156 C 8.878906 -73.941406 8.734375 -73.648438 8.734375 -73.210938 L 8.734375 -57.054688 C 8.734375 -56.546875 8.878906 -56.183594 9.316406 -56.039062 C 9.753906 -55.820312 10.117188 -55.820312 10.550781 -56.109375 C 11.863281 -57.273438 13.316406 -57.929688 15.066406 -57.929688 L 25.109375 -57.929688 C 25.472656 -57.929688 25.835938 -57.785156 26.125 -57.492188 C 26.417969 -57.203125 26.5625 -56.839844 26.5625 -56.472656 L 26.5625 -6.402344 C 26.5625 -4.65625 25.980469 -3.128906 24.816406 -1.890625 L 24.742188 -1.820312 C 24.453125 -1.382812 24.453125 -1.019531 24.671875 -0.582031 C 24.816406 -0.144531 25.179688 0 25.691406 0 L 41.847656 0 C 42.28125 0 42.574219 -0.144531 42.792969 -0.582031 C 43.011719 -1.019531 43.011719 -1.382812 42.792969 -1.820312 C 41.554688 -3.128906 40.972656 -4.585938 40.972656 -6.332031 L 40.972656 -56.472656 C 40.972656 -56.839844 41.117188 -57.203125 41.410156 -57.492188 C 41.699219 -57.785156 41.992188 -57.929688 42.429688 -57.929688 L 52.472656 -57.929688 C 54.21875 -57.929688 55.671875 -57.273438 56.910156 -56.109375 L 56.984375 -56.109375 C 57.347656 -55.820312 57.710938 -55.820312 58.148438 -56.039062 C 58.585938 -56.183594 58.804688 -56.546875 58.804688 -57.054688 L 58.804688 -73.210938 C 58.804688 -73.648438 58.585938 -73.941406 58.148438 -74.160156 C 57.710938 -74.378906 57.347656 -74.378906 56.984375 -74.160156 Z M 56.984375 -74.160156 "/></g></g></g><g fill="rgb(100%, 75.689697%, 69.799805%)" fill-opacity="0.302"><g transform="translate(146.194471, 169.166299)"><g><path d="M 66.226562 -1.308594 C 66.226562 -1.601562 66.082031 -1.820312 65.863281 -1.964844 C 64.1875 -3.347656 63.097656 -5.09375 62.515625 -7.277344 L 45.121094 -67.390625 C 44.757812 -68.554688 44.976562 -69.648438 45.847656 -70.519531 C 46.066406 -70.882812 46.066406 -71.246094 45.921875 -71.683594 C 45.703125 -72.121094 45.339844 -72.339844 44.902344 -72.339844 L 25.691406 -72.339844 C 25.253906 -72.339844 24.890625 -72.121094 24.671875 -71.683594 C 24.453125 -71.246094 24.453125 -70.882812 24.742188 -70.519531 C 25.617188 -69.648438 25.835938 -68.554688 25.472656 -67.390625 L 8.152344 -7.203125 C 7.570312 -5.167969 6.402344 -3.421875 4.730469 -1.964844 C 4.511719 -1.746094 4.367188 -1.527344 4.367188 -1.308594 C 4.292969 -0.945312 4.367188 -0.65625 4.585938 -0.363281 C 4.804688 -0.0742188 5.09375 0 5.53125 0 L 22.414062 0 C 22.851562 0 23.214844 -0.144531 23.359375 -0.582031 C 23.507812 -1.019531 23.507812 -1.382812 23.214844 -1.746094 C 22.34375 -2.621094 22.125 -3.710938 22.414062 -4.875 L 24.671875 -12.445312 C 24.890625 -13.246094 25.324219 -13.898438 25.980469 -14.335938 C 26.5625 -14.773438 27.289062 -15.066406 28.164062 -15.066406 L 42.5 -15.066406 C 43.300781 -15.066406 44.03125 -14.773438 44.683594 -14.335938 C 45.265625 -13.898438 45.703125 -13.246094 45.996094 -12.445312 L 48.175781 -4.875 C 48.46875 -3.710938 48.175781 -2.691406 47.449219 -1.820312 L 47.449219 -1.746094 C 47.160156 -1.308594 47.160156 -0.945312 47.378906 -0.582031 C 47.523438 -0.144531 47.886719 0 48.394531 0 L 65.132812 0 C 65.5 0 65.789062 -0.0742188 66.007812 -0.363281 C 66.226562 -0.65625 66.300781 -0.945312 66.226562 -1.308594 Z M 40.027344 -29.472656 L 30.636719 -29.472656 C 30.347656 -29.472656 30.128906 -29.546875 29.984375 -29.765625 C 29.765625 -29.984375 29.691406 -30.273438 29.839844 -30.566406 L 34.570312 -46.796875 C 34.640625 -47.160156 34.859375 -47.378906 35.296875 -47.378906 C 35.734375 -47.378906 35.953125 -47.160156 36.097656 -46.796875 L 40.753906 -30.566406 C 40.828125 -30.273438 40.753906 -29.984375 40.609375 -29.765625 C 40.464844 -29.546875 40.246094 -29.472656 40.027344 -29.472656 Z M 40.027344 -29.472656 "/></g></g></g><g fill="rgb(100%, 75.689697%, 69.799805%)" fill-opacity="0.302"><g transform="translate(216.860413, 169.166299)"><g><path d="M 62.296875 -2.039062 L 60.914062 -3.128906 C 59.894531 -3.785156 59.019531 -4.65625 58.292969 -5.820312 L 37.988281 -34.570312 C 37.550781 -35.003906 37.40625 -35.585938 37.40625 -36.167969 C 37.40625 -36.75 37.550781 -37.261719 37.988281 -37.769531 L 58.292969 -66.589844 C 59.019531 -67.535156 59.894531 -68.480469 60.984375 -69.355469 L 62.296875 -70.300781 C 62.734375 -70.664062 62.878906 -71.175781 62.660156 -71.757812 C 62.367188 -72.121094 62.003906 -72.339844 61.640625 -72.339844 L 42.71875 -72.339844 C 42.210938 -72.339844 41.847656 -72.121094 41.699219 -71.683594 C 41.480469 -71.246094 41.480469 -70.882812 41.773438 -70.519531 L 41.847656 -70.445312 C 42.28125 -69.863281 42.355469 -69.28125 41.992188 -68.699219 L 27.582031 -48.175781 C 27.144531 -47.667969 26.707031 -47.523438 26.125 -47.667969 C 25.542969 -47.8125 25.324219 -48.25 25.324219 -48.90625 L 25.324219 -66.445312 C 25.324219 -67.898438 25.835938 -69.28125 26.925781 -70.445312 C 27.21875 -70.8125 27.289062 -71.246094 27.144531 -71.683594 C 26.925781 -72.121094 26.5625 -72.339844 26.125 -72.339844 L 9.824219 -72.339844 C 9.316406 -72.339844 8.953125 -72.121094 8.804688 -71.683594 C 8.585938 -71.246094 8.660156 -70.882812 9.023438 -70.519531 C 10.261719 -69.136719 10.917969 -67.535156 10.917969 -65.644531 L 10.917969 -6.332031 C 10.917969 -4.65625 10.335938 -3.203125 9.242188 -2.039062 L 9.023438 -1.820312 C 8.734375 -1.382812 8.734375 -1.019531 8.953125 -0.582031 C 9.097656 -0.144531 9.460938 0 9.96875 0 L 26.273438 0 C 26.707031 0 27.074219 -0.21875 27.21875 -0.65625 C 27.363281 -1.089844 27.363281 -1.457031 27.074219 -1.820312 C 25.910156 -3.054688 25.324219 -4.511719 25.324219 -6.113281 L 25.324219 -23.507812 C 25.324219 -24.089844 25.542969 -24.453125 26.125 -24.671875 C 26.707031 -24.816406 27.144531 -24.671875 27.582031 -24.160156 L 41.992188 -3.710938 C 42.355469 -2.984375 42.28125 -2.402344 41.847656 -1.964844 L 41.773438 -1.820312 C 41.480469 -1.382812 41.480469 -1.019531 41.699219 -0.582031 C 41.847656 -0.144531 42.210938 0 42.71875 0 L 61.640625 0 C 62.078125 0 62.367188 -0.21875 62.660156 -0.65625 C 62.734375 -0.875 62.734375 -1.089844 62.734375 -1.382812 C 62.660156 -1.675781 62.515625 -1.890625 62.296875 -2.039062 Z M 62.296875 -2.039062 "/></g></g></g><g fill="rgb(100%, 75.689697%, 69.799805%)" fill-opacity="0.302"><g transform="translate(288.399649, 169.166299)"><g><path d="M 52.980469 -72.847656 C 51.742188 -71.683594 50.289062 -71.175781 48.6875 -71.175781 L 9.898438 -71.175781 C 9.386719 -71.175781 9.023438 -70.957031 8.878906 -70.519531 C 8.660156 -70.082031 8.660156 -69.71875 8.953125 -69.355469 L 9.167969 -69.136719 C 10.335938 -67.828125 10.917969 -66.300781 10.917969 -64.550781 L 10.917969 -5.457031 C 10.917969 -4.585938 10.769531 -3.785156 10.480469 -2.984375 C 10.1875 -2.183594 9.753906 -1.457031 9.167969 -0.875 L 8.953125 -0.65625 C 8.660156 -0.21875 8.660156 0.144531 8.878906 0.582031 C 9.023438 1.019531 9.386719 1.164062 9.898438 1.164062 L 48.6875 1.164062 C 50.289062 1.164062 51.742188 1.746094 52.980469 2.839844 C 53.34375 3.203125 53.78125 3.273438 54.21875 3.054688 C 54.65625 2.910156 54.945312 2.546875 54.945312 1.964844 L 54.945312 -14.265625 C 54.945312 -14.699219 54.726562 -15.066406 54.289062 -15.28125 C 53.855469 -15.429688 53.417969 -15.355469 53.125 -15.066406 C 51.816406 -13.828125 50.289062 -13.246094 48.542969 -13.246094 L 27.144531 -13.246094 C 26.636719 -13.246094 26.199219 -13.390625 25.835938 -13.753906 C 25.472656 -14.046875 25.324219 -14.480469 25.324219 -15.066406 L 25.324219 -25.980469 C 25.324219 -26.492188 25.472656 -26.925781 25.835938 -27.289062 C 26.199219 -27.582031 26.636719 -27.800781 27.144531 -27.800781 L 33.550781 -27.800781 C 35.296875 -27.800781 36.824219 -27.144531 38.132812 -25.980469 C 38.5 -25.691406 38.863281 -25.691406 39.300781 -25.910156 C 39.734375 -26.125 39.953125 -26.492188 39.953125 -26.925781 L 39.953125 -43.082031 C 39.953125 -43.519531 39.734375 -43.8125 39.300781 -44.03125 C 38.863281 -44.246094 38.5 -44.246094 38.132812 -44.03125 C 36.824219 -42.792969 35.296875 -42.210938 33.550781 -42.210938 L 27.144531 -42.210938 C 26.636719 -42.210938 26.199219 -42.355469 25.835938 -42.71875 C 25.472656 -43.011719 25.324219 -43.445312 25.324219 -44.03125 L 25.324219 -54.945312 C 25.324219 -55.457031 25.472656 -55.890625 25.835938 -56.253906 C 26.199219 -56.546875 26.636719 -56.765625 27.144531 -56.765625 L 48.542969 -56.765625 C 50.289062 -56.765625 51.816406 -56.109375 53.125 -54.945312 C 53.417969 -54.582031 53.855469 -54.507812 54.289062 -54.726562 C 54.726562 -54.875 54.945312 -55.238281 54.945312 -55.746094 L 54.945312 -72.046875 C 54.945312 -72.484375 54.65625 -72.847656 54.21875 -73.066406 C 53.78125 -73.210938 53.34375 -73.140625 52.980469 -72.847656 Z M 52.980469 -72.847656 "/></g></g></g><g fill="rgb(100%, 75.689697%, 69.799805%)" fill-opacity="0.302"><g transform="translate(352.079052, 169.166299)"><g><path d="M 56.039062 -59.457031 C 53.707031 -63.605469 50.871094 -66.808594 47.523438 -68.992188 C 44.175781 -71.175781 40.390625 -72.339844 36.316406 -72.339844 L 9.824219 -72.339844 C 9.316406 -72.339844 8.953125 -72.121094 8.804688 -71.683594 C 8.585938 -71.246094 8.660156 -70.8125 9.023438 -70.519531 C 10.335938 -69.0625 11.0625 -67.316406 11.0625 -65.351562 L 11.0625 -6.914062 C 11.0625 -4.949219 10.335938 -3.203125 9.023438 -1.746094 C 8.660156 -1.382812 8.585938 -1.019531 8.804688 -0.582031 C 8.953125 -0.144531 9.316406 0 9.824219 0 L 36.316406 0 C 40.390625 0 44.175781 -1.089844 47.523438 -3.273438 C 50.871094 -5.457031 53.707031 -8.585938 56.039062 -12.734375 C 57.710938 -15.863281 59.019531 -19.429688 59.96875 -23.433594 C 60.914062 -27.4375 61.421875 -31.65625 61.421875 -36.097656 C 61.421875 -40.464844 60.914062 -44.683594 59.96875 -48.6875 C 59.019531 -52.691406 57.710938 -56.253906 56.039062 -59.457031 Z M 43.375 -19.722656 C 42.648438 -18.414062 41.917969 -17.394531 41.191406 -16.664062 C 40.464844 -15.9375 39.734375 -15.355469 39.152344 -15.066406 C 38.5 -14.699219 37.917969 -14.480469 37.40625 -14.480469 C 36.898438 -14.410156 36.535156 -14.410156 36.316406 -14.410156 L 28.164062 -14.410156 C 27.4375 -14.410156 26.78125 -14.628906 26.273438 -15.210938 C 25.691406 -15.71875 25.472656 -16.375 25.472656 -17.101562 L 25.472656 -54.289062 C 25.472656 -55.238281 25.761719 -56.039062 26.492188 -56.765625 C 27.21875 -57.492188 28.089844 -57.855469 29.109375 -57.855469 L 36.316406 -57.855469 C 37.917969 -57.855469 39.445312 -57.203125 40.753906 -55.964844 C 42.066406 -54.65625 43.230469 -52.980469 44.175781 -50.941406 C 45.046875 -48.90625 45.777344 -46.578125 46.285156 -43.957031 C 46.722656 -41.335938 47.011719 -38.71875 47.011719 -36.097656 C 47.011719 -32.894531 46.648438 -29.839844 46.066406 -27 C 45.414062 -24.160156 44.539062 -21.761719 43.375 -19.722656 Z M 43.375 -19.722656 "/></g></g></g><g fill="rgb(100%, 75.689697%, 69.799805%)" fill-opacity="0.502"><g transform="translate(14.721227, 169.983828)"><g><path d="M 59.820312 -54.4375 L 59.457031 -54.875 C 58.4375 -55.890625 57.785156 -57.054688 57.347656 -58.367188 C 56.039062 -62.441406 53.34375 -65.789062 49.414062 -68.410156 C 47.230469 -69.792969 44.757812 -70.882812 41.992188 -71.613281 C 39.226562 -72.339844 36.386719 -72.703125 33.332031 -72.703125 C 30.273438 -72.703125 27.289062 -72.265625 24.453125 -71.539062 C 21.613281 -70.8125 19.066406 -69.71875 16.8125 -68.335938 C 13.753906 -66.445312 11.5 -64.1875 9.898438 -61.496094 C 8.296875 -58.804688 7.570312 -55.890625 7.570312 -52.691406 C 7.570312 -46.578125 10.40625 -41.335938 16.230469 -37.042969 C 18.265625 -35.441406 20.449219 -34.132812 22.851562 -32.96875 C 25.253906 -31.804688 27.726562 -30.636719 30.203125 -29.621094 C 31.65625 -28.890625 33.257812 -28.164062 34.859375 -27.4375 C 36.460938 -26.707031 37.917969 -25.910156 39.226562 -25.179688 C 40.535156 -24.378906 41.628906 -23.578125 42.5 -22.777344 C 43.375 -21.90625 43.8125 -21.105469 43.8125 -20.304688 C 43.8125 -19.285156 43.445312 -18.339844 42.71875 -17.613281 C 41.992188 -16.882812 41.046875 -16.230469 39.953125 -15.792969 C 38.863281 -15.355469 37.699219 -14.992188 36.386719 -14.773438 C 35.078125 -14.480469 33.914062 -14.410156 32.75 -14.410156 C 31.292969 -14.410156 29.839844 -14.554688 28.238281 -14.917969 C 26.636719 -15.210938 25.253906 -15.792969 24.160156 -16.59375 C 23.871094 -16.8125 23.652344 -17.101562 23.652344 -17.464844 C 23.578125 -17.832031 23.652344 -18.121094 23.941406 -18.414062 L 24.015625 -18.484375 C 24.234375 -18.847656 24.234375 -19.210938 24.089844 -19.648438 C 23.871094 -20.085938 23.507812 -20.304688 23.070312 -20.304688 L 6.988281 -20.304688 C 6.476562 -20.304688 6.113281 -20.085938 5.96875 -19.648438 C 5.75 -19.210938 5.75 -18.847656 6.039062 -18.484375 L 6.332031 -18.195312 C 7.351562 -17.03125 8.003906 -15.792969 8.441406 -14.554688 C 9.753906 -10.335938 12.371094 -6.988281 16.449219 -4.4375 C 18.628906 -2.984375 21.179688 -1.890625 23.941406 -1.164062 C 26.707031 -0.363281 29.691406 0 32.75 0 C 36.386719 0 39.808594 -0.507812 42.9375 -1.527344 C 46.066406 -2.546875 48.761719 -3.929688 51.015625 -5.75 C 53.273438 -7.496094 55.019531 -9.679688 56.328125 -12.152344 C 57.566406 -14.628906 58.222656 -17.320312 58.222656 -20.304688 C 58.222656 -23.433594 57.492188 -26.199219 56.109375 -28.527344 C 54.726562 -30.855469 52.980469 -32.894531 50.796875 -34.640625 C 48.613281 -36.386719 46.285156 -37.84375 43.664062 -39.152344 C 41.046875 -40.464844 38.5 -41.628906 36.023438 -42.792969 C 34.351562 -43.519531 32.675781 -44.246094 31.003906 -45.046875 C 29.328125 -45.777344 27.800781 -46.578125 26.492188 -47.449219 C 25.179688 -48.25 24.089844 -49.125 23.214844 -49.996094 C 22.34375 -50.871094 21.976562 -51.742188 21.976562 -52.691406 C 21.976562 -53.492188 22.269531 -54.21875 22.996094 -54.945312 C 23.652344 -55.671875 24.527344 -56.253906 25.617188 -56.765625 C 26.636719 -57.203125 27.875 -57.566406 29.257812 -57.855469 C 30.566406 -58.148438 31.949219 -58.292969 33.332031 -58.292969 C 34.933594 -58.292969 36.535156 -58.074219 37.988281 -57.785156 C 39.445312 -57.421875 40.609375 -56.910156 41.628906 -56.253906 C 41.917969 -56.039062 42.136719 -55.746094 42.136719 -55.382812 C 42.136719 -55.019531 42.066406 -54.726562 41.847656 -54.507812 L 41.847656 -54.4375 C 41.554688 -54 41.554688 -53.636719 41.773438 -53.273438 C 41.917969 -52.835938 42.28125 -52.691406 42.792969 -52.691406 L 58.875 -52.691406 C 59.3125 -52.691406 59.675781 -52.835938 59.894531 -53.273438 C 60.039062 -53.636719 60.039062 -54 59.820312 -54.4375 Z M 59.820312 -54.4375 "/></g></g></g><g fill="rgb(100%, 75.689697%, 69.799805%)" fill-opacity="0.502"><g transform="translate(80.583912, 169.983828)"><g><path d="M 56.984375 -74.160156 L 56.910156 -74.085938 C 55.601562 -72.921875 54.144531 -72.339844 52.472656 -72.339844 L 15.066406 -72.339844 C 13.316406 -72.339844 11.863281 -72.921875 10.550781 -74.085938 L 10.550781 -74.160156 C 10.117188 -74.378906 9.753906 -74.378906 9.316406 -74.160156 C 8.878906 -73.941406 8.734375 -73.648438 8.734375 -73.210938 L 8.734375 -57.054688 C 8.734375 -56.546875 8.878906 -56.183594 9.316406 -56.039062 C 9.753906 -55.820312 10.117188 -55.820312 10.550781 -56.109375 C 11.863281 -57.273438 13.316406 -57.929688 15.066406 -57.929688 L 25.109375 -57.929688 C 25.472656 -57.929688 25.835938 -57.785156 26.125 -57.492188 C 26.417969 -57.203125 26.5625 -56.839844 26.5625 -56.472656 L 26.5625 -6.402344 C 26.5625 -4.65625 25.980469 -3.128906 24.816406 -1.890625 L 24.742188 -1.820312 C 24.453125 -1.382812 24.453125 -1.019531 24.671875 -0.582031 C 24.816406 -0.144531 25.179688 0 25.691406 0 L 41.847656 0 C 42.28125 0 42.574219 -0.144531 42.792969 -0.582031 C 43.011719 -1.019531 43.011719 -1.382812 42.792969 -1.820312 C 41.554688 -3.128906 40.972656 -4.585938 40.972656 -6.332031 L 40.972656 -56.472656 C 40.972656 -56.839844 41.117188 -57.203125 41.410156 -57.492188 C 41.699219 -57.785156 41.992188 -57.929688 42.429688 -57.929688 L 52.472656 -57.929688 C 54.21875 -57.929688 55.671875 -57.273438 56.910156 -56.109375 L 56.984375 -56.109375 C 57.347656 -55.820312 57.710938 -55.820312 58.148438 -56.039062 C 58.585938 -56.183594 58.804688 -56.546875 58.804688 -57.054688 L 58.804688 -73.210938 C 58.804688 -73.648438 58.585938 -73.941406 58.148438 -74.160156 C 57.710938 -74.378906 57.347656 -74.378906 56.984375 -74.160156 Z M 56.984375 -74.160156 "/></g></g></g><g fill="rgb(100%, 75.689697%, 69.799805%)" fill-opacity="0.502"><g transform="translate(148.120449, 169.983828)"><g><path d="M 66.226562 -1.308594 C 66.226562 -1.601562 66.082031 -1.820312 65.863281 -1.964844 C 64.1875 -3.347656 63.097656 -5.09375 62.515625 -7.277344 L 45.121094 -67.390625 C 44.757812 -68.554688 44.976562 -69.648438 45.847656 -70.519531 C 46.066406 -70.882812 46.066406 -71.246094 45.921875 -71.683594 C 45.703125 -72.121094 45.339844 -72.339844 44.902344 -72.339844 L 25.691406 -72.339844 C 25.253906 -72.339844 24.890625 -72.121094 24.671875 -71.683594 C 24.453125 -71.246094 24.453125 -70.882812 24.742188 -70.519531 C 25.617188 -69.648438 25.835938 -68.554688 25.472656 -67.390625 L 8.152344 -7.203125 C 7.570312 -5.167969 6.402344 -3.421875 4.730469 -1.964844 C 4.511719 -1.746094 4.367188 -1.527344 4.367188 -1.308594 C 4.292969 -0.945312 4.367188 -0.65625 4.585938 -0.363281 C 4.804688 -0.0742188 5.09375 0 5.53125 0 L 22.414062 0 C 22.851562 0 23.214844 -0.144531 23.359375 -0.582031 C 23.507812 -1.019531 23.507812 -1.382812 23.214844 -1.746094 C 22.34375 -2.621094 22.125 -3.710938 22.414062 -4.875 L 24.671875 -12.445312 C 24.890625 -13.246094 25.324219 -13.898438 25.980469 -14.335938 C 26.5625 -14.773438 27.289062 -15.066406 28.164062 -15.066406 L 42.5 -15.066406 C 43.300781 -15.066406 44.03125 -14.773438 44.683594 -14.335938 C 45.265625 -13.898438 45.703125 -13.246094 45.996094 -12.445312 L 48.175781 -4.875 C 48.46875 -3.710938 48.175781 -2.691406 47.449219 -1.820312 L 47.449219 -1.746094 C 47.160156 -1.308594 47.160156 -0.945312 47.378906 -0.582031 C 47.523438 -0.144531 47.886719 0 48.394531 0 L 65.132812 0 C 65.5 0 65.789062 -0.0742188 66.007812 -0.363281 C 66.226562 -0.65625 66.300781 -0.945312 66.226562 -1.308594 Z M 40.027344 -29.472656 L 30.636719 -29.472656 C 30.347656 -29.472656 30.128906 -29.546875 29.984375 -29.765625 C 29.765625 -29.984375 29.691406 -30.273438 29.839844 -30.566406 L 34.570312 -46.796875 C 34.640625 -47.160156 34.859375 -47.378906 35.296875 -47.378906 C 35.734375 -47.378906 35.953125 -47.160156 36.097656 -46.796875 L 40.753906 -30.566406 C 40.828125 -30.273438 40.753906 -29.984375 40.609375 -29.765625 C 40.464844 -29.546875 40.246094 -29.472656 40.027344 -29.472656 Z M 40.027344 -29.472656 "/></g></g></g><g fill="rgb(100%, 75.689697%, 69.799805%)" fill-opacity="0.502"><g transform="translate(218.786391, 169.983828)"><g><path d="M 62.296875 -2.039062 L 60.914062 -3.128906 C 59.894531 -3.785156 59.019531 -4.65625 58.292969 -5.820312 L 37.988281 -34.570312 C 37.550781 -35.003906 37.40625 -35.585938 37.40625 -36.167969 C 37.40625 -36.75 37.550781 -37.261719 37.988281 -37.769531 L 58.292969 -66.589844 C 59.019531 -67.535156 59.894531 -68.480469 60.984375 -69.355469 L 62.296875 -70.300781 C 62.734375 -70.664062 62.878906 -71.175781 62.660156 -71.757812 C 62.367188 -72.121094 62.003906 -72.339844 61.640625 -72.339844 L 42.71875 -72.339844 C 42.210938 -72.339844 41.847656 -72.121094 41.699219 -71.683594 C 41.480469 -71.246094 41.480469 -70.882812 41.773438 -70.519531 L 41.847656 -70.445312 C 42.28125 -69.863281 42.355469 -69.28125 41.992188 -68.699219 L 27.582031 -48.175781 C 27.144531 -47.667969 26.707031 -47.523438 26.125 -47.667969 C 25.542969 -47.8125 25.324219 -48.25 25.324219 -48.90625 L 25.324219 -66.445312 C 25.324219 -67.898438 25.835938 -69.28125 26.925781 -70.445312 C 27.21875 -70.8125 27.289062 -71.246094 27.144531 -71.683594 C 26.925781 -72.121094 26.5625 -72.339844 26.125 -72.339844 L 9.824219 -72.339844 C 9.316406 -72.339844 8.953125 -72.121094 8.804688 -71.683594 C 8.585938 -71.246094 8.660156 -70.882812 9.023438 -70.519531 C 10.261719 -69.136719 10.917969 -67.535156 10.917969 -65.644531 L 10.917969 -6.332031 C 10.917969 -4.65625 10.335938 -3.203125 9.242188 -2.039062 L 9.023438 -1.820312 C 8.734375 -1.382812 8.734375 -1.019531 8.953125 -0.582031 C 9.097656 -0.144531 9.460938 0 9.96875 0 L 26.273438 0 C 26.707031 0 27.074219 -0.21875 27.21875 -0.65625 C 27.363281 -1.089844 27.363281 -1.457031 27.074219 -1.820312 C 25.910156 -3.054688 25.324219 -4.511719 25.324219 -6.113281 L 25.324219 -23.507812 C 25.324219 -24.089844 25.542969 -24.453125 26.125 -24.671875 C 26.707031 -24.816406 27.144531 -24.671875 27.582031 -24.160156 L 41.992188 -3.710938 C 42.355469 -2.984375 42.28125 -2.402344 41.847656 -1.964844 L 41.773438 -1.820312 C 41.480469 -1.382812 41.480469 -1.019531 41.699219 -0.582031 C 41.847656 -0.144531 42.210938 0 42.71875 0 L 61.640625 0 C 62.078125 0 62.367188 -0.21875 62.660156 -0.65625 C 62.734375 -0.875 62.734375 -1.089844 62.734375 -1.382812 C 62.660156 -1.675781 62.515625 -1.890625 62.296875 -2.039062 Z M 62.296875 -2.039062 "/></g></g></g><g fill="rgb(100%, 75.689697%, 69.799805%)" fill-opacity="0.502"><g transform="translate(290.325627, 169.983828)"><g><path d="M 52.980469 -72.847656 C 51.742188 -71.683594 50.289062 -71.175781 48.6875 -71.175781 L 9.898438 -71.175781 C 9.386719 -71.175781 9.023438 -70.957031 8.878906 -70.519531 C 8.660156 -70.082031 8.660156 -69.71875 8.953125 -69.355469 L 9.167969 -69.136719 C 10.335938 -67.828125 10.917969 -66.300781 10.917969 -64.550781 L 10.917969 -5.457031 C 10.917969 -4.585938 10.769531 -3.785156 10.480469 -2.984375 C 10.1875 -2.183594 9.753906 -1.457031 9.167969 -0.875 L 8.953125 -0.65625 C 8.660156 -0.21875 8.660156 0.144531 8.878906 0.582031 C 9.023438 1.019531 9.386719 1.164062 9.898438 1.164062 L 48.6875 1.164062 C 50.289062 1.164062 51.742188 1.746094 52.980469 2.839844 C 53.34375 3.203125 53.78125 3.273438 54.21875 3.054688 C 54.65625 2.910156 54.945312 2.546875 54.945312 1.964844 L 54.945312 -14.265625 C 54.945312 -14.699219 54.726562 -15.066406 54.289062 -15.28125 C 53.855469 -15.429688 53.417969 -15.355469 53.125 -15.066406 C 51.816406 -13.828125 50.289062 -13.246094 48.542969 -13.246094 L 27.144531 -13.246094 C 26.636719 -13.246094 26.199219 -13.390625 25.835938 -13.753906 C 25.472656 -14.046875 25.324219 -14.480469 25.324219 -15.066406 L 25.324219 -25.980469 C 25.324219 -26.492188 25.472656 -26.925781 25.835938 -27.289062 C 26.199219 -27.582031 26.636719 -27.800781 27.144531 -27.800781 L 33.550781 -27.800781 C 35.296875 -27.800781 36.824219 -27.144531 38.132812 -25.980469 C 38.5 -25.691406 38.863281 -25.691406 39.300781 -25.910156 C 39.734375 -26.125 39.953125 -26.492188 39.953125 -26.925781 L 39.953125 -43.082031 C 39.953125 -43.519531 39.734375 -43.8125 39.300781 -44.03125 C 38.863281 -44.246094 38.5 -44.246094 38.132812 -44.03125 C 36.824219 -42.792969 35.296875 -42.210938 33.550781 -42.210938 L 27.144531 -42.210938 C 26.636719 -42.210938 26.199219 -42.355469 25.835938 -42.71875 C 25.472656 -43.011719 25.324219 -43.445312 25.324219 -44.03125 L 25.324219 -54.945312 C 25.324219 -55.457031 25.472656 -55.890625 25.835938 -56.253906 C 26.199219 -56.546875 26.636719 -56.765625 27.144531 -56.765625 L 48.542969 -56.765625 C 50.289062 -56.765625 51.816406 -56.109375 53.125 -54.945312 C 53.417969 -54.582031 53.855469 -54.507812 54.289062 -54.726562 C 54.726562 -54.875 54.945312 -55.238281 54.945312 -55.746094 L 54.945312 -72.046875 C 54.945312 -72.484375 54.65625 -72.847656 54.21875 -73.066406 C 53.78125 -73.210938 53.34375 -73.140625 52.980469 -72.847656 Z M 52.980469 -72.847656 "/></g></g></g><g fill="rgb(100%, 75.689697%, 69.799805%)" fill-opacity="0.502"><g transform="translate(354.005031, 169.983828)"><g><path d="M 56.039062 -59.457031 C 53.707031 -63.605469 50.871094 -66.808594 47.523438 -68.992188 C 44.175781 -71.175781 40.390625 -72.339844 36.316406 -72.339844 L 9.824219 -72.339844 C 9.316406 -72.339844 8.953125 -72.121094 8.804688 -71.683594 C 8.585938 -71.246094 8.660156 -70.8125 9.023438 -70.519531 C 10.335938 -69.0625 11.0625 -67.316406 11.0625 -65.351562 L 11.0625 -6.914062 C 11.0625 -4.949219 10.335938 -3.203125 9.023438 -1.746094 C 8.660156 -1.382812 8.585938 -1.019531 8.804688 -0.582031 C 8.953125 -0.144531 9.316406 0 9.824219 0 L 36.316406 0 C 40.390625 0 44.175781 -1.089844 47.523438 -3.273438 C 50.871094 -5.457031 53.707031 -8.585938 56.039062 -12.734375 C 57.710938 -15.863281 59.019531 -19.429688 59.96875 -23.433594 C 60.914062 -27.4375 61.421875 -31.65625 61.421875 -36.097656 C 61.421875 -40.464844 60.914062 -44.683594 59.96875 -48.6875 C 59.019531 -52.691406 57.710938 -56.253906 56.039062 -59.457031 Z M 43.375 -19.722656 C 42.648438 -18.414062 41.917969 -17.394531 41.191406 -16.664062 C 40.464844 -15.9375 39.734375 -15.355469 39.152344 -15.066406 C 38.5 -14.699219 37.917969 -14.480469 37.40625 -14.480469 C 36.898438 -14.410156 36.535156 -14.410156 36.316406 -14.410156 L 28.164062 -14.410156 C 27.4375 -14.410156 26.78125 -14.628906 26.273438 -15.210938 C 25.691406 -15.71875 25.472656 -16.375 25.472656 -17.101562 L 25.472656 -54.289062 C 25.472656 -55.238281 25.761719 -56.039062 26.492188 -56.765625 C 27.21875 -57.492188 28.089844 -57.855469 29.109375 -57.855469 L 36.316406 -57.855469 C 37.917969 -57.855469 39.445312 -57.203125 40.753906 -55.964844 C 42.066406 -54.65625 43.230469 -52.980469 44.175781 -50.941406 C 45.046875 -48.90625 45.777344 -46.578125 46.285156 -43.957031 C 46.722656 -41.335938 47.011719 -38.71875 47.011719 -36.097656 C 47.011719 -32.894531 46.648438 -29.839844 46.066406 -27 C 45.414062 -24.160156 44.539062 -21.761719 43.375 -19.722656 Z M 43.375 -19.722656 "/></g></g></g><g fill="rgb(0%, 0%, 0%)" fill-opacity="1"><g transform="translate(16.647207, 170.801356)"><g><path d="M 59.820312 -54.4375 L 59.457031 -54.875 C 58.4375 -55.890625 57.785156 -57.054688 57.347656 -58.367188 C 56.039062 -62.441406 53.34375 -65.789062 49.414062 -68.410156 C 47.230469 -69.792969 44.757812 -70.882812 41.992188 -71.613281 C 39.226562 -72.339844 36.386719 -72.703125 33.332031 -72.703125 C 30.273438 -72.703125 27.289062 -72.265625 24.453125 -71.539062 C 21.613281 -70.8125 19.066406 -69.71875 16.8125 -68.335938 C 13.753906 -66.445312 11.5 -64.1875 9.898438 -61.496094 C 8.296875 -58.804688 7.570312 -55.890625 7.570312 -52.691406 C 7.570312 -46.578125 10.40625 -41.335938 16.230469 -37.042969 C 18.265625 -35.441406 20.449219 -34.132812 22.851562 -32.96875 C 25.253906 -31.804688 27.726562 -30.636719 30.203125 -29.621094 C 31.65625 -28.890625 33.257812 -28.164062 34.859375 -27.4375 C 36.460938 -26.707031 37.917969 -25.910156 39.226562 -25.179688 C 40.535156 -24.378906 41.628906 -23.578125 42.5 -22.777344 C 43.375 -21.90625 43.8125 -21.105469 43.8125 -20.304688 C 43.8125 -19.285156 43.445312 -18.339844 42.71875 -17.613281 C 41.992188 -16.882812 41.046875 -16.230469 39.953125 -15.792969 C 38.863281 -15.355469 37.699219 -14.992188 36.386719 -14.773438 C 35.078125 -14.480469 33.914062 -14.410156 32.75 -14.410156 C 31.292969 -14.410156 29.839844 -14.554688 28.238281 -14.917969 C 26.636719 -15.210938 25.253906 -15.792969 24.160156 -16.59375 C 23.871094 -16.8125 23.652344 -17.101562 23.652344 -17.464844 C 23.578125 -17.832031 23.652344 -18.121094 23.941406 -18.414062 L 24.015625 -18.484375 C 24.234375 -18.847656 24.234375 -19.210938 24.089844 -19.648438 C 23.871094 -20.085938 23.507812 -20.304688 23.070312 -20.304688 L 6.988281 -20.304688 C 6.476562 -20.304688 6.113281 -20.085938 5.96875 -19.648438 C 5.75 -19.210938 5.75 -18.847656 6.039062 -18.484375 L 6.332031 -18.195312 C 7.351562 -17.03125 8.003906 -15.792969 8.441406 -14.554688 C 9.753906 -10.335938 12.371094 -6.988281 16.449219 -4.4375 C 18.628906 -2.984375 21.179688 -1.890625 23.941406 -1.164062 C 26.707031 -0.363281 29.691406 0 32.75 0 C 36.386719 0 39.808594 -0.507812 42.9375 -1.527344 C 46.066406 -2.546875 48.761719 -3.929688 51.015625 -5.75 C 53.273438 -7.496094 55.019531 -9.679688 56.328125 -12.152344 C 57.566406 -14.628906 58.222656 -17.320312 58.222656 -20.304688 C 58.222656 -23.433594 57.492188 -26.199219 56.109375 -28.527344 C 54.726562 -30.855469 52.980469 -32.894531 50.796875 -34.640625 C 48.613281 -36.386719 46.285156 -37.84375 43.664062 -39.152344 C 41.046875 -40.464844 38.5 -41.628906 36.023438 -42.792969 C 34.351562 -43.519531 32.675781 -44.246094 31.003906 -45.046875 C 29.328125 -45.777344 27.800781 -46.578125 26.492188 -47.449219 C 25.179688 -48.25 24.089844 -49.125 23.214844 -49.996094 C 22.34375 -50.871094 21.976562 -51.742188 21.976562 -52.691406 C 21.976562 -53.492188 22.269531 -54.21875 22.996094 -54.945312 C 23.652344 -55.671875 24.527344 -56.253906 25.617188 -56.765625 C 26.636719 -57.203125 27.875 -57.566406 29.257812 -57.855469 C 30.566406 -58.148438 31.949219 -58.292969 33.332031 -58.292969 C 34.933594 -58.292969 36.535156 -58.074219 37.988281 -57.785156 C 39.445312 -57.421875 40.609375 -56.910156 41.628906 -56.253906 C 41.917969 -56.039062 42.136719 -55.746094 42.136719 -55.382812 C 42.136719 -55.019531 42.066406 -54.726562 41.847656 -54.507812 L 41.847656 -54.4375 C 41.554688 -54 41.554688 -53.636719 41.773438 -53.273438 C 41.917969 -52.835938 42.28125 -52.691406 42.792969 -52.691406 L 58.875 -52.691406 C 59.3125 -52.691406 59.675781 -52.835938 59.894531 -53.273438 C 60.039062 -53.636719 60.039062 -54 59.820312 -54.4375 Z M 59.820312 -54.4375 "/></g></g></g><g fill="rgb(0%, 0%, 0%)" fill-opacity="1"><g transform="translate(82.509892, 170.801356)"><g><path d="M 56.984375 -74.160156 L 56.910156 -74.085938 C 55.601562 -72.921875 54.144531 -72.339844 52.472656 -72.339844 L 15.066406 -72.339844 C 13.316406 -72.339844 11.863281 -72.921875 10.550781 -74.085938 L 10.550781 -74.160156 C 10.117188 -74.378906 9.753906 -74.378906 9.316406 -74.160156 C 8.878906 -73.941406 8.734375 -73.648438 8.734375 -73.210938 L 8.734375 -57.054688 C 8.734375 -56.546875 8.878906 -56.183594 9.316406 -56.039062 C 9.753906 -55.820312 10.117188 -55.820312 10.550781 -56.109375 C 11.863281 -57.273438 13.316406 -57.929688 15.066406 -57.929688 L 25.109375 -57.929688 C 25.472656 -57.929688 25.835938 -57.785156 26.125 -57.492188 C 26.417969 -57.203125 26.5625 -56.839844 26.5625 -56.472656 L 26.5625 -6.402344 C 26.5625 -4.65625 25.980469 -3.128906 24.816406 -1.890625 L 24.742188 -1.820312 C 24.453125 -1.382812 24.453125 -1.019531 24.671875 -0.582031 C 24.816406 -0.144531 25.179688 0 25.691406 0 L 41.847656 0 C 42.28125 0 42.574219 -0.144531 42.792969 -0.582031 C 43.011719 -1.019531 43.011719 -1.382812 42.792969 -1.820312 C 41.554688 -3.128906 40.972656 -4.585938 40.972656 -6.332031 L 40.972656 -56.472656 C 40.972656 -56.839844 41.117188 -57.203125 41.410156 -57.492188 C 41.699219 -57.785156 41.992188 -57.929688 42.429688 -57.929688 L 52.472656 -57.929688 C 54.21875 -57.929688 55.671875 -57.273438 56.910156 -56.109375 L 56.984375 -56.109375 C 57.347656 -55.820312 57.710938 -55.820312 58.148438 -56.039062 C 58.585938 -56.183594 58.804688 -56.546875 58.804688 -57.054688 L 58.804688 -73.210938 C 58.804688 -73.648438 58.585938 -73.941406 58.148438 -74.160156 C 57.710938 -74.378906 57.347656 -74.378906 56.984375 -74.160156 Z M 56.984375 -74.160156 "/></g></g></g><g fill="rgb(0%, 0%, 0%)" fill-opacity="1"><g transform="translate(150.046429, 170.801356)"><g><path d="M 66.226562 -1.308594 C 66.226562 -1.601562 66.082031 -1.820312 65.863281 -1.964844 C 64.1875 -3.347656 63.097656 -5.09375 62.515625 -7.277344 L 45.121094 -67.390625 C 44.757812 -68.554688 44.976562 -69.648438 45.847656 -70.519531 C 46.066406 -70.882812 46.066406 -71.246094 45.921875 -71.683594 C 45.703125 -72.121094 45.339844 -72.339844 44.902344 -72.339844 L 25.691406 -72.339844 C 25.253906 -72.339844 24.890625 -72.121094 24.671875 -71.683594 C 24.453125 -71.246094 24.453125 -70.882812 24.742188 -70.519531 C 25.617188 -69.648438 25.835938 -68.554688 25.472656 -67.390625 L 8.152344 -7.203125 C 7.570312 -5.167969 6.402344 -3.421875 4.730469 -1.964844 C 4.511719 -1.746094 4.367188 -1.527344 4.367188 -1.308594 C 4.292969 -0.945312 4.367188 -0.65625 4.585938 -0.363281 C 4.804688 -0.0742188 5.09375 0 5.53125 0 L 22.414062 0 C 22.851562 0 23.214844 -0.144531 23.359375 -0.582031 C 23.507812 -1.019531 23.507812 -1.382812 23.214844 -1.746094 C 22.34375 -2.621094 22.125 -3.710938 22.414062 -4.875 L 24.671875 -12.445312 C 24.890625 -13.246094 25.324219 -13.898438 25.980469 -14.335938 C 26.5625 -14.773438 27.289062 -15.066406 28.164062 -15.066406 L 42.5 -15.066406 C 43.300781 -15.066406 44.03125 -14.773438 44.683594 -14.335938 C 45.265625 -13.898438 45.703125 -13.246094 45.996094 -12.445312 L 48.175781 -4.875 C 48.46875 -3.710938 48.175781 -2.691406 47.449219 -1.820312 L 47.449219 -1.746094 C 47.160156 -1.308594 47.160156 -0.945312 47.378906 -0.582031 C 47.523438 -0.144531 47.886719 0 48.394531 0 L 65.132812 0 C 65.5 0 65.789062 -0.0742188 66.007812 -0.363281 C 66.226562 -0.65625 66.300781 -0.945312 66.226562 -1.308594 Z M 40.027344 -29.472656 L 30.636719 -29.472656 C 30.347656 -29.472656 30.128906 -29.546875 29.984375 -29.765625 C 29.765625 -29.984375 29.691406 -30.273438 29.839844 -30.566406 L 34.570312 -46.796875 C 34.640625 -47.160156 34.859375 -47.378906 35.296875 -47.378906 C 35.734375 -47.378906 35.953125 -47.160156 36.097656 -46.796875 L 40.753906 -30.566406 C 40.828125 -30.273438 40.753906 -29.984375 40.609375 -29.765625 C 40.464844 -29.546875 40.246094 -29.472656 40.027344 -29.472656 Z M 40.027344 -29.472656 "/></g></g></g><g fill="rgb(0%, 0%, 0%)" fill-opacity="1"><g transform="translate(220.712372, 170.801356)"><g><path d="M 62.296875 -2.039062 L 60.914062 -3.128906 C 59.894531 -3.785156 59.019531 -4.65625 58.292969 -5.820312 L 37.988281 -34.570312 C 37.550781 -35.003906 37.40625 -35.585938 37.40625 -36.167969 C 37.40625 -36.75 37.550781 -37.261719 37.988281 -37.769531 L 58.292969 -66.589844 C 59.019531 -67.535156 59.894531 -68.480469 60.984375 -69.355469 L 62.296875 -70.300781 C 62.734375 -70.664062 62.878906 -71.175781 62.660156 -71.757812 C 62.367188 -72.121094 62.003906 -72.339844 61.640625 -72.339844 L 42.71875 -72.339844 C 42.210938 -72.339844 41.847656 -72.121094 41.699219 -71.683594 C 41.480469 -71.246094 41.480469 -70.882812 41.773438 -70.519531 L 41.847656 -70.445312 C 42.28125 -69.863281 42.355469 -69.28125 41.992188 -68.699219 L 27.582031 -48.175781 C 27.144531 -47.667969 26.707031 -47.523438 26.125 -47.667969 C 25.542969 -47.8125 25.324219 -48.25 25.324219 -48.90625 L 25.324219 -66.445312 C 25.324219 -67.898438 25.835938 -69.28125 26.925781 -70.445312 C 27.21875 -70.8125 27.289062 -71.246094 27.144531 -71.683594 C 26.925781 -72.121094 26.5625 -72.339844 26.125 -72.339844 L 9.824219 -72.339844 C 9.316406 -72.339844 8.953125 -72.121094 8.804688 -71.683594 C 8.585938 -71.246094 8.660156 -70.882812 9.023438 -70.519531 C 10.261719 -69.136719 10.917969 -67.535156 10.917969 -65.644531 L 10.917969 -6.332031 C 10.917969 -4.65625 10.335938 -3.203125 9.242188 -2.039062 L 9.023438 -1.820312 C 8.734375 -1.382812 8.734375 -1.019531 8.953125 -0.582031 C 9.097656 -0.144531 9.460938 0 9.96875 0 L 26.273438 0 C 26.707031 0 27.074219 -0.21875 27.21875 -0.65625 C 27.363281 -1.089844 27.363281 -1.457031 27.074219 -1.820312 C 25.910156 -3.054688 25.324219 -4.511719 25.324219 -6.113281 L 25.324219 -23.507812 C 25.324219 -24.089844 25.542969 -24.453125 26.125 -24.671875 C 26.707031 -24.816406 27.144531 -24.671875 27.582031 -24.160156 L 41.992188 -3.710938 C 42.355469 -2.984375 42.28125 -2.402344 41.847656 -1.964844 L 41.773438 -1.820312 C 41.480469 -1.382812 41.480469 -1.019531 41.699219 -0.582031 C 41.847656 -0.144531 42.210938 0 42.71875 0 L 61.640625 0 C 62.078125 0 62.367188 -0.21875 62.660156 -0.65625 C 62.734375 -0.875 62.734375 -1.089844 62.734375 -1.382812 C 62.660156 -1.675781 62.515625 -1.890625 62.296875 -2.039062 Z M 62.296875 -2.039062 "/></g></g></g><g fill="rgb(0%, 0%, 0%)" fill-opacity="1"><g transform="translate(292.251607, 170.801356)"><g><path d="M 52.980469 -72.847656 C 51.742188 -71.683594 50.289062 -71.175781 48.6875 -71.175781 L 9.898438 -71.175781 C 9.386719 -71.175781 9.023438 -70.957031 8.878906 -70.519531 C 8.660156 -70.082031 8.660156 -69.71875 8.953125 -69.355469 L 9.167969 -69.136719 C 10.335938 -67.828125 10.917969 -66.300781 10.917969 -64.550781 L 10.917969 -5.457031 C 10.917969 -4.585938 10.769531 -3.785156 10.480469 -2.984375 C 10.1875 -2.183594 9.753906 -1.457031 9.167969 -0.875 L 8.953125 -0.65625 C 8.660156 -0.21875 8.660156 0.144531 8.878906 0.582031 C 9.023438 1.019531 9.386719 1.164062 9.898438 1.164062 L 48.6875 1.164062 C 50.289062 1.164062 51.742188 1.746094 52.980469 2.839844 C 53.34375 3.203125 53.78125 3.273438 54.21875 3.054688 C 54.65625 2.910156 54.945312 2.546875 54.945312 1.964844 L 54.945312 -14.265625 C 54.945312 -14.699219 54.726562 -15.066406 54.289062 -15.28125 C 53.855469 -15.429688 53.417969 -15.355469 53.125 -15.066406 C 51.816406 -13.828125 50.289062 -13.246094 48.542969 -13.246094 L 27.144531 -13.246094 C 26.636719 -13.246094 26.199219 -13.390625 25.835938 -13.753906 C 25.472656 -14.046875 25.324219 -14.480469 25.324219 -15.066406 L 25.324219 -25.980469 C 25.324219 -26.492188 25.472656 -26.925781 25.835938 -27.289062 C 26.199219 -27.582031 26.636719 -27.800781 27.144531 -27.800781 L 33.550781 -27.800781 C 35.296875 -27.800781 36.824219 -27.144531 38.132812 -25.980469 C 38.5 -25.691406 38.863281 -25.691406 39.300781 -25.910156 C 39.734375 -26.125 39.953125 -26.492188 39.953125 -26.925781 L 39.953125 -43.082031 C 39.953125 -43.519531 39.734375 -43.8125 39.300781 -44.03125 C 38.863281 -44.246094 38.5 -44.246094 38.132812 -44.03125 C 36.824219 -42.792969 35.296875 -42.210938 33.550781 -42.210938 L 27.144531 -42.210938 C 26.636719 -42.210938 26.199219 -42.355469 25.835938 -42.71875 C 25.472656 -43.011719 25.324219 -43.445312 25.324219 -44.03125 L 25.324219 -54.945312 C 25.324219 -55.457031 25.472656 -55.890625 25.835938 -56.253906 C 26.199219 -56.546875 26.636719 -56.765625 27.144531 -56.765625 L 48.542969 -56.765625 C 50.289062 -56.765625 51.816406 -56.109375 53.125 -54.945312 C 53.417969 -54.582031 53.855469 -54.507812 54.289062 -54.726562 C 54.726562 -54.875 54.945312 -55.238281 54.945312 -55.746094 L 54.945312 -72.046875 C 54.945312 -72.484375 54.65625 -72.847656 54.21875 -73.066406 C 53.78125 -73.210938 53.34375 -73.140625 52.980469 -72.847656 Z M 52.980469 -72.847656 "/></g></g></g><g fill="rgb(0%, 0%, 0%)" fill-opacity="1"><g transform="translate(355.931011, 170.801356)"><g><path d="M 56.039062 -59.457031 C 53.707031 -63.605469 50.871094 -66.808594 47.523438 -68.992188 C 44.175781 -71.175781 40.390625 -72.339844 36.316406 -72.339844 L 9.824219 -72.339844 C 9.316406 -72.339844 8.953125 -72.121094 8.804688 -71.683594 C 8.585938 -71.246094 8.660156 -70.8125 9.023438 -70.519531 C 10.335938 -69.0625 11.0625 -67.316406 11.0625 -65.351562 L 11.0625 -6.914062 C 11.0625 -4.949219 10.335938 -3.203125 9.023438 -1.746094 C 8.660156 -1.382812 8.585938 -1.019531 8.804688 -0.582031 C 8.953125 -0.144531 9.316406 0 9.824219 0 L 36.316406 0 C 40.390625 0 44.175781 -1.089844 47.523438 -3.273438 C 50.871094 -5.457031 53.707031 -8.585938 56.039062 -12.734375 C 57.710938 -15.863281 59.019531 -19.429688 59.96875 -23.433594 C 60.914062 -27.4375 61.421875 -31.65625 61.421875 -36.097656 C 61.421875 -40.464844 60.914062 -44.683594 59.96875 -48.6875 C 59.019531 -52.691406 57.710938 -56.253906 56.039062 -59.457031 Z M 43.375 -19.722656 C 42.648438 -18.414062 41.917969 -17.394531 41.191406 -16.664062 C 40.464844 -15.9375 39.734375 -15.355469 39.152344 -15.066406 C 38.5 -14.699219 37.917969 -14.480469 37.40625 -14.480469 C 36.898438 -14.410156 36.535156 -14.410156 36.316406 -14.410156 L 28.164062 -14.410156 C 27.4375 -14.410156 26.78125 -14.628906 26.273438 -15.210938 C 25.691406 -15.71875 25.472656 -16.375 25.472656 -17.101562 L 25.472656 -54.289062 C 25.472656 -55.238281 25.761719 -56.039062 26.492188 -56.765625 C 27.21875 -57.492188 28.089844 -57.855469 29.109375 -57.855469 L 36.316406 -57.855469 C 37.917969 -57.855469 39.445312 -57.203125 40.753906 -55.964844 C 42.066406 -54.65625 43.230469 -52.980469 44.175781 -50.941406 C 45.046875 -48.90625 45.777344 -46.578125 46.285156 -43.957031 C 46.722656 -41.335938 47.011719 -38.71875 47.011719 -36.097656 C 47.011719 -32.894531 46.648438 -29.839844 46.066406 -27 C 45.414062 -24.160156 44.539062 -21.761719 43.375 -19.722656 Z M 43.375 -19.722656 "/></g></g></g></svg>