<svg xmlns="http://www.w3.org/2000/svg" xmlns:xlink="http://www.w3.org/1999/xlink" width="576" zoomAndPan="magnify" viewBox="0 0 432 287.999989" height="384" preserveAspectRatio="xMidYMid meet" version="1.0"><defs><g/></defs><g fill="rgb(100%, 75.689697%, 69.799805%)" fill-opacity="0.302"><g transform="translate(11.014942, 166.369774)"><g><path d="M 91.460938 -69.132812 L 76.507812 -69.132812 L 76.507812 -69.0625 L 76.507812 -69.132812 L 75.183594 -69.132812 C 74.699219 -69.132812 74.351562 -68.925781 74.210938 -68.507812 C 74.003906 -68.089844 74.003906 -67.742188 74.28125 -67.394531 L 74.558594 -67.117188 C 75.253906 -66.28125 75.460938 -65.449219 75.183594 -64.472656 L 63.707031 -24.761719 C 63.570312 -24.34375 63.292969 -24.132812 62.875 -24.132812 C 62.457031 -24.132812 62.179688 -24.34375 62.039062 -24.761719 L 57.03125 -42.21875 C 56.683594 -43.191406 56.894531 -44.09375 57.65625 -44.859375 L 57.796875 -45 C 58.003906 -45.347656 58.003906 -45.695312 57.796875 -46.113281 C 57.589844 -46.460938 57.242188 -46.667969 56.824219 -46.667969 L 39.851562 -46.667969 C 39.433594 -46.667969 39.085938 -46.460938 38.878906 -46.113281 C 38.671875 -45.695312 38.671875 -45.347656 38.949219 -45 L 39.085938 -44.859375 C 39.78125 -44.027344 39.992188 -43.191406 39.714844 -42.21875 L 34.707031 -24.761719 C 34.566406 -24.34375 34.289062 -24.132812 33.871094 -24.132812 C 33.382812 -24.132812 33.105469 -24.34375 33.035156 -24.761719 L 21.5625 -64.472656 C 21.28125 -65.449219 21.492188 -66.28125 22.1875 -67.117188 L 22.464844 -67.394531 C 22.671875 -67.742188 22.671875 -68.089844 22.535156 -68.507812 C 22.324219 -68.925781 21.976562 -69.132812 21.5625 -69.132812 L 5.285156 -69.132812 C 4.800781 -69.132812 4.453125 -68.925781 4.3125 -68.507812 C 4.101562 -68.089844 4.101562 -67.742188 4.382812 -67.394531 C 6.191406 -65.726562 7.441406 -63.640625 8.136719 -61.273438 L 24.550781 -4.519531 C 24.828125 -3.476562 24.550781 -2.574219 23.855469 -1.738281 C 23.578125 -1.320312 23.578125 -0.972656 23.785156 -0.554688 C 23.996094 -0.140625 24.34375 0 24.761719 0 L 42.914062 0 C 43.332031 0 43.609375 -0.140625 43.816406 -0.554688 C 44.027344 -0.972656 44.027344 -1.320312 43.816406 -1.738281 L 43.746094 -1.738281 C 43.050781 -2.433594 42.84375 -3.339844 43.121094 -4.382812 L 47.503906 -19.542969 C 47.640625 -19.960938 47.921875 -20.167969 48.339844 -20.167969 C 48.753906 -20.167969 49.101562 -19.960938 49.242188 -19.542969 L 53.554688 -4.453125 C 53.832031 -3.40625 53.625 -2.503906 52.929688 -1.808594 L 52.859375 -1.738281 C 52.582031 -1.320312 52.582031 -0.972656 52.789062 -0.554688 C 52.996094 -0.140625 53.34375 0 53.761719 0 L 72.054688 0 C 72.472656 0 72.820312 -0.140625 72.960938 -0.554688 C 73.097656 -0.972656 73.097656 -1.320312 72.820312 -1.738281 C 72.054688 -2.433594 71.847656 -3.339844 72.195312 -4.3125 L 88.609375 -61.34375 C 88.957031 -62.457031 89.441406 -63.570312 90.070312 -64.613281 C 90.625 -65.65625 91.390625 -66.558594 92.363281 -67.394531 C 92.574219 -67.742188 92.574219 -68.089844 92.433594 -68.507812 C 92.226562 -68.925781 91.875 -69.132812 91.460938 -69.132812 Z M 91.460938 -69.132812 "/></g></g></g><g fill="rgb(100%, 75.689697%, 69.799805%)" fill-opacity="0.302"><g transform="translate(107.761159, 166.369774)"><g><path d="M 63.292969 -1.25 C 63.292969 -1.53125 63.152344 -1.738281 62.945312 -1.878906 C 61.34375 -3.199219 60.300781 -4.867188 59.746094 -6.957031 L 43.121094 -64.402344 C 42.773438 -65.515625 42.984375 -66.558594 43.816406 -67.394531 C 44.027344 -67.742188 44.027344 -68.089844 43.886719 -68.507812 C 43.679688 -68.925781 43.332031 -69.132812 42.914062 -69.132812 L 24.550781 -69.132812 C 24.132812 -69.132812 23.785156 -68.925781 23.578125 -68.507812 C 23.371094 -68.089844 23.371094 -67.742188 23.648438 -67.394531 C 24.480469 -66.558594 24.691406 -65.515625 24.34375 -64.402344 L 7.789062 -6.886719 C 7.234375 -4.9375 6.121094 -3.269531 4.519531 -1.878906 C 4.3125 -1.667969 4.171875 -1.460938 4.171875 -1.25 C 4.101562 -0.902344 4.171875 -0.625 4.382812 -0.347656 C 4.589844 -0.0703125 4.867188 0 5.285156 0 L 21.421875 0 C 21.839844 0 22.1875 -0.140625 22.324219 -0.554688 C 22.464844 -0.972656 22.464844 -1.320312 22.1875 -1.667969 C 21.351562 -2.503906 21.144531 -3.546875 21.421875 -4.660156 L 23.578125 -11.894531 C 23.785156 -12.660156 24.203125 -13.285156 24.828125 -13.703125 C 25.386719 -14.117188 26.082031 -14.398438 26.917969 -14.398438 L 40.617188 -14.398438 C 41.382812 -14.398438 42.078125 -14.117188 42.703125 -13.703125 C 43.261719 -13.285156 43.679688 -12.660156 43.957031 -11.894531 L 46.042969 -4.660156 C 46.320312 -3.546875 46.042969 -2.574219 45.347656 -1.738281 L 45.347656 -1.667969 C 45.070312 -1.25 45.070312 -0.902344 45.277344 -0.554688 C 45.417969 -0.140625 45.765625 0 46.25 0 L 62.25 0 C 62.597656 0 62.875 -0.0703125 63.082031 -0.347656 C 63.292969 -0.625 63.359375 -0.902344 63.292969 -1.25 Z M 38.253906 -28.167969 L 29.28125 -28.167969 C 29.003906 -28.167969 28.792969 -28.238281 28.65625 -28.445312 C 28.445312 -28.65625 28.375 -28.933594 28.515625 -29.210938 L 33.035156 -44.722656 C 33.105469 -45.070312 33.316406 -45.277344 33.730469 -45.277344 C 34.148438 -45.277344 34.359375 -45.070312 34.496094 -44.722656 L 38.949219 -29.210938 C 39.019531 -28.933594 38.949219 -28.65625 38.808594 -28.445312 C 38.671875 -28.238281 38.460938 -28.167969 38.253906 -28.167969 Z M 38.253906 -28.167969 "/></g></g></g><g fill="rgb(100%, 75.689697%, 69.799805%)" fill-opacity="0.302"><g transform="translate(175.295712, 166.369774)"><g><path d="M 50.5625 -15.371094 L 49.730469 -14.675781 C 48.964844 -13.980469 48.128906 -13.703125 47.226562 -13.703125 L 25.664062 -13.703125 C 25.175781 -13.703125 24.761719 -13.839844 24.480469 -14.117188 C 24.132812 -14.398438 23.996094 -14.8125 23.996094 -15.371094 L 23.996094 -62.945312 C 23.996094 -64.542969 24.550781 -66.003906 25.664062 -67.257812 L 25.734375 -67.324219 C 25.941406 -67.671875 25.941406 -68.019531 25.804688 -68.4375 C 25.59375 -68.785156 25.246094 -68.996094 24.828125 -68.996094 L 9.457031 -68.996094 C 8.972656 -68.996094 8.625 -68.785156 8.484375 -68.4375 C 8.277344 -68.019531 8.277344 -67.671875 8.554688 -67.324219 C 9.667969 -66.074219 10.222656 -64.613281 10.222656 -63.011719 L 10.222656 -1.53125 C 10.222656 -1.042969 10.363281 -0.625 10.710938 -0.347656 C 10.988281 0 11.40625 0.140625 11.894531 0.140625 L 47.226562 0.140625 C 48.128906 0.140625 48.964844 0.488281 49.730469 1.113281 L 50.5625 1.808594 C 50.910156 2.085938 51.257812 2.085938 51.675781 1.878906 C 52.023438 1.738281 52.234375 1.390625 52.234375 0.902344 L 52.234375 -14.464844 C 52.234375 -14.882812 52.023438 -15.230469 51.675781 -15.441406 C 51.257812 -15.578125 50.910156 -15.578125 50.5625 -15.371094 Z M 50.5625 -15.371094 "/></g></g></g><g fill="rgb(100%, 75.689697%, 69.799805%)" fill-opacity="0.302"><g transform="translate(231.771532, 166.369774)"><g><path d="M 50.5625 -15.371094 L 49.730469 -14.675781 C 48.964844 -13.980469 48.128906 -13.703125 47.226562 -13.703125 L 25.664062 -13.703125 C 25.175781 -13.703125 24.761719 -13.839844 24.480469 -14.117188 C 24.132812 -14.398438 23.996094 -14.8125 23.996094 -15.371094 L 23.996094 -62.945312 C 23.996094 -64.542969 24.550781 -66.003906 25.664062 -67.257812 L 25.734375 -67.324219 C 25.941406 -67.671875 25.941406 -68.019531 25.804688 -68.4375 C 25.59375 -68.785156 25.246094 -68.996094 24.828125 -68.996094 L 9.457031 -68.996094 C 8.972656 -68.996094 8.625 -68.785156 8.484375 -68.4375 C 8.277344 -68.019531 8.277344 -67.671875 8.554688 -67.324219 C 9.667969 -66.074219 10.222656 -64.613281 10.222656 -63.011719 L 10.222656 -1.53125 C 10.222656 -1.042969 10.363281 -0.625 10.710938 -0.347656 C 10.988281 0 11.40625 0.140625 11.894531 0.140625 L 47.226562 0.140625 C 48.128906 0.140625 48.964844 0.488281 49.730469 1.113281 L 50.5625 1.808594 C 50.910156 2.085938 51.257812 2.085938 51.675781 1.878906 C 52.023438 1.738281 52.234375 1.390625 52.234375 0.902344 L 52.234375 -14.464844 C 52.234375 -14.882812 52.023438 -15.230469 51.675781 -15.441406 C 51.257812 -15.578125 50.910156 -15.578125 50.5625 -15.371094 Z M 50.5625 -15.371094 "/></g></g></g><g fill="rgb(100%, 75.689697%, 69.799805%)" fill-opacity="0.302"><g transform="translate(288.247353, 166.369774)"><g><path d="M 50.632812 -69.621094 C 49.449219 -68.507812 48.058594 -68.019531 46.53125 -68.019531 L 9.457031 -68.019531 C 8.972656 -68.019531 8.625 -67.8125 8.484375 -67.394531 C 8.277344 -66.976562 8.277344 -66.628906 8.554688 -66.28125 L 8.761719 -66.074219 C 9.875 -64.820312 10.433594 -63.359375 10.433594 -61.691406 L 10.433594 -5.214844 C 10.433594 -4.382812 10.292969 -3.617188 10.015625 -2.851562 C 9.738281 -2.085938 9.320312 -1.390625 8.761719 -0.835938 L 8.554688 -0.625 C 8.277344 -0.207031 8.277344 0.140625 8.484375 0.554688 C 8.625 0.972656 8.972656 1.113281 9.457031 1.113281 L 46.53125 1.113281 C 48.058594 1.113281 49.449219 1.667969 50.632812 2.710938 C 50.980469 3.058594 51.398438 3.128906 51.816406 2.921875 C 52.234375 2.78125 52.511719 2.433594 52.511719 1.878906 L 52.511719 -13.632812 C 52.511719 -14.050781 52.300781 -14.398438 51.886719 -14.605469 C 51.46875 -14.746094 51.050781 -14.675781 50.773438 -14.398438 C 49.519531 -13.214844 48.058594 -12.660156 46.390625 -12.660156 L 25.941406 -12.660156 C 25.457031 -12.660156 25.039062 -12.796875 24.691406 -13.144531 C 24.34375 -13.421875 24.203125 -13.839844 24.203125 -14.398438 L 24.203125 -24.828125 C 24.203125 -25.316406 24.34375 -25.734375 24.691406 -26.082031 C 25.039062 -26.359375 25.457031 -26.570312 25.941406 -26.570312 L 32.0625 -26.570312 C 33.730469 -26.570312 35.191406 -25.941406 36.445312 -24.828125 C 36.792969 -24.550781 37.140625 -24.550781 37.558594 -24.761719 C 37.976562 -24.96875 38.183594 -25.316406 38.183594 -25.734375 L 38.183594 -41.175781 C 38.183594 -41.589844 37.976562 -41.871094 37.558594 -42.078125 C 37.140625 -42.285156 36.792969 -42.285156 36.445312 -42.078125 C 35.191406 -40.894531 33.730469 -40.339844 32.0625 -40.339844 L 25.941406 -40.339844 C 25.457031 -40.339844 25.039062 -40.480469 24.691406 -40.828125 C 24.34375 -41.105469 24.203125 -41.523438 24.203125 -42.078125 L 24.203125 -52.511719 C 24.203125 -52.996094 24.34375 -53.414062 24.691406 -53.761719 C 25.039062 -54.042969 25.457031 -54.25 25.941406 -54.25 L 46.390625 -54.25 C 48.058594 -54.25 49.519531 -53.625 50.773438 -52.511719 C 51.050781 -52.164062 51.46875 -52.09375 51.886719 -52.300781 C 52.300781 -52.441406 52.511719 -52.789062 52.511719 -53.277344 L 52.511719 -68.855469 C 52.511719 -69.273438 52.234375 -69.621094 51.816406 -69.828125 C 51.398438 -69.96875 50.980469 -69.898438 50.632812 -69.621094 Z M 50.632812 -69.621094 "/></g></g></g><g fill="rgb(100%, 75.689697%, 69.799805%)" fill-opacity="0.302"><g transform="translate(349.104958, 166.369774)"><g><path d="M 54.457031 -70.871094 L 54.390625 -70.804688 C 53.136719 -69.691406 51.746094 -69.132812 50.144531 -69.132812 L 14.398438 -69.132812 C 12.726562 -69.132812 11.335938 -69.691406 10.085938 -70.804688 L 10.085938 -70.871094 C 9.667969 -71.082031 9.320312 -71.082031 8.902344 -70.871094 C 8.484375 -70.664062 8.347656 -70.386719 8.347656 -69.96875 L 8.347656 -54.527344 C 8.347656 -54.042969 8.484375 -53.695312 8.902344 -53.554688 C 9.320312 -53.34375 9.667969 -53.34375 10.085938 -53.625 C 11.335938 -54.738281 12.726562 -55.363281 14.398438 -55.363281 L 23.996094 -55.363281 C 24.34375 -55.363281 24.691406 -55.222656 24.96875 -54.945312 C 25.246094 -54.667969 25.386719 -54.320312 25.386719 -53.972656 L 25.386719 -6.121094 C 25.386719 -4.453125 24.828125 -2.992188 23.71875 -1.808594 L 23.648438 -1.738281 C 23.371094 -1.320312 23.371094 -0.972656 23.578125 -0.554688 C 23.71875 -0.140625 24.066406 0 24.550781 0 L 39.992188 0 C 40.410156 0 40.6875 -0.140625 40.894531 -0.554688 C 41.105469 -0.972656 41.105469 -1.320312 40.894531 -1.738281 C 39.714844 -2.992188 39.15625 -4.382812 39.15625 -6.050781 L 39.15625 -53.972656 C 39.15625 -54.320312 39.296875 -54.667969 39.574219 -54.945312 C 39.851562 -55.222656 40.132812 -55.363281 40.546875 -55.363281 L 50.144531 -55.363281 C 51.816406 -55.363281 53.207031 -54.738281 54.390625 -53.625 L 54.457031 -53.625 C 54.804688 -53.34375 55.152344 -53.34375 55.570312 -53.554688 C 55.988281 -53.695312 56.195312 -54.042969 56.195312 -54.527344 L 56.195312 -69.96875 C 56.195312 -70.386719 55.988281 -70.664062 55.570312 -70.871094 C 55.152344 -71.082031 54.804688 -71.082031 54.457031 -70.871094 Z M 54.457031 -70.871094 "/></g></g></g><g fill="rgb(100%, 75.689697%, 69.799805%)" fill-opacity="0.502"><g transform="translate(12.855576, 167.151078)"><g><path d="M 91.460938 -69.132812 L 76.507812 -69.132812 L 76.507812 -69.0625 L 76.507812 -69.132812 L 75.183594 -69.132812 C 74.699219 -69.132812 74.351562 -68.925781 74.210938 -68.507812 C 74.003906 -68.089844 74.003906 -67.742188 74.28125 -67.394531 L 74.558594 -67.117188 C 75.253906 -66.28125 75.460938 -65.449219 75.183594 -64.472656 L 63.707031 -24.761719 C 63.570312 -24.34375 63.292969 -24.132812 62.875 -24.132812 C 62.457031 -24.132812 62.179688 -24.34375 62.039062 -24.761719 L 57.03125 -42.21875 C 56.683594 -43.191406 56.894531 -44.09375 57.65625 -44.859375 L 57.796875 -45 C 58.003906 -45.347656 58.003906 -45.695312 57.796875 -46.113281 C 57.589844 -46.460938 57.242188 -46.667969 56.824219 -46.667969 L 39.851562 -46.667969 C 39.433594 -46.667969 39.085938 -46.460938 38.878906 -46.113281 C 38.671875 -45.695312 38.671875 -45.347656 38.949219 -45 L 39.085938 -44.859375 C 39.78125 -44.027344 39.992188 -43.191406 39.714844 -42.21875 L 34.707031 -24.761719 C 34.566406 -24.34375 34.289062 -24.132812 33.871094 -24.132812 C 33.382812 -24.132812 33.105469 -24.34375 33.035156 -24.761719 L 21.5625 -64.472656 C 21.28125 -65.449219 21.492188 -66.28125 22.1875 -67.117188 L 22.464844 -67.394531 C 22.671875 -67.742188 22.671875 -68.089844 22.535156 -68.507812 C 22.324219 -68.925781 21.976562 -69.132812 21.5625 -69.132812 L 5.285156 -69.132812 C 4.800781 -69.132812 4.453125 -68.925781 4.3125 -68.507812 C 4.101562 -68.089844 4.101562 -67.742188 4.382812 -67.394531 C 6.191406 -65.726562 7.441406 -63.640625 8.136719 -61.273438 L 24.550781 -4.519531 C 24.828125 -3.476562 24.550781 -2.574219 23.855469 -1.738281 C 23.578125 -1.320312 23.578125 -0.972656 23.785156 -0.554688 C 23.996094 -0.140625 24.34375 0 24.761719 0 L 42.914062 0 C 43.332031 0 43.609375 -0.140625 43.816406 -0.554688 C 44.027344 -0.972656 44.027344 -1.320312 43.816406 -1.738281 L 43.746094 -1.738281 C 43.050781 -2.433594 42.84375 -3.339844 43.121094 -4.382812 L 47.503906 -19.542969 C 47.640625 -19.960938 47.921875 -20.167969 48.339844 -20.167969 C 48.753906 -20.167969 49.101562 -19.960938 49.242188 -19.542969 L 53.554688 -4.453125 C 53.832031 -3.40625 53.625 -2.503906 52.929688 -1.808594 L 52.859375 -1.738281 C 52.582031 -1.320312 52.582031 -0.972656 52.789062 -0.554688 C 52.996094 -0.140625 53.34375 0 53.761719 0 L 72.054688 0 C 72.472656 0 72.820312 -0.140625 72.960938 -0.554688 C 73.097656 -0.972656 73.097656 -1.320312 72.820312 -1.738281 C 72.054688 -2.433594 71.847656 -3.339844 72.195312 -4.3125 L 88.609375 -61.34375 C 88.957031 -62.457031 89.441406 -63.570312 90.070312 -64.613281 C 90.625 -65.65625 91.390625 -66.558594 92.363281 -67.394531 C 92.574219 -67.742188 92.574219 -68.089844 92.433594 -68.507812 C 92.226562 -68.925781 91.875 -69.132812 91.460938 -69.132812 Z M 91.460938 -69.132812 "/></g></g></g><g fill="rgb(100%, 75.689697%, 69.799805%)" fill-opacity="0.502"><g transform="translate(109.601794, 167.151078)"><g><path d="M 63.292969 -1.25 C 63.292969 -1.53125 63.152344 -1.738281 62.945312 -1.878906 C 61.34375 -3.199219 60.300781 -4.867188 59.746094 -6.957031 L 43.121094 -64.402344 C 42.773438 -65.515625 42.984375 -66.558594 43.816406 -67.394531 C 44.027344 -67.742188 44.027344 -68.089844 43.886719 -68.507812 C 43.679688 -68.925781 43.332031 -69.132812 42.914062 -69.132812 L 24.550781 -69.132812 C 24.132812 -69.132812 23.785156 -68.925781 23.578125 -68.507812 C 23.371094 -68.089844 23.371094 -67.742188 23.648438 -67.394531 C 24.480469 -66.558594 24.691406 -65.515625 24.34375 -64.402344 L 7.789062 -6.886719 C 7.234375 -4.9375 6.121094 -3.269531 4.519531 -1.878906 C 4.3125 -1.667969 4.171875 -1.460938 4.171875 -1.25 C 4.101562 -0.902344 4.171875 -0.625 4.382812 -0.347656 C 4.589844 -0.0703125 4.867188 0 5.285156 0 L 21.421875 0 C 21.839844 0 22.1875 -0.140625 22.324219 -0.554688 C 22.464844 -0.972656 22.464844 -1.320312 22.1875 -1.667969 C 21.351562 -2.503906 21.144531 -3.546875 21.421875 -4.660156 L 23.578125 -11.894531 C 23.785156 -12.660156 24.203125 -13.285156 24.828125 -13.703125 C 25.386719 -14.117188 26.082031 -14.398438 26.917969 -14.398438 L 40.617188 -14.398438 C 41.382812 -14.398438 42.078125 -14.117188 42.703125 -13.703125 C 43.261719 -13.285156 43.679688 -12.660156 43.957031 -11.894531 L 46.042969 -4.660156 C 46.320312 -3.546875 46.042969 -2.574219 45.347656 -1.738281 L 45.347656 -1.667969 C 45.070312 -1.25 45.070312 -0.902344 45.277344 -0.554688 C 45.417969 -0.140625 45.765625 0 46.25 0 L 62.25 0 C 62.597656 0 62.875 -0.0703125 63.082031 -0.347656 C 63.292969 -0.625 63.359375 -0.902344 63.292969 -1.25 Z M 38.253906 -28.167969 L 29.28125 -28.167969 C 29.003906 -28.167969 28.792969 -28.238281 28.65625 -28.445312 C 28.445312 -28.65625 28.375 -28.933594 28.515625 -29.210938 L 33.035156 -44.722656 C 33.105469 -45.070312 33.316406 -45.277344 33.730469 -45.277344 C 34.148438 -45.277344 34.359375 -45.070312 34.496094 -44.722656 L 38.949219 -29.210938 C 39.019531 -28.933594 38.949219 -28.65625 38.808594 -28.445312 C 38.671875 -28.238281 38.460938 -28.167969 38.253906 -28.167969 Z M 38.253906 -28.167969 "/></g></g></g><g fill="rgb(100%, 75.689697%, 69.799805%)" fill-opacity="0.502"><g transform="translate(177.136347, 167.151078)"><g><path d="M 50.5625 -15.371094 L 49.730469 -14.675781 C 48.964844 -13.980469 48.128906 -13.703125 47.226562 -13.703125 L 25.664062 -13.703125 C 25.175781 -13.703125 24.761719 -13.839844 24.480469 -14.117188 C 24.132812 -14.398438 23.996094 -14.8125 23.996094 -15.371094 L 23.996094 -62.945312 C 23.996094 -64.542969 24.550781 -66.003906 25.664062 -67.257812 L 25.734375 -67.324219 C 25.941406 -67.671875 25.941406 -68.019531 25.804688 -68.4375 C 25.59375 -68.785156 25.246094 -68.996094 24.828125 -68.996094 L 9.457031 -68.996094 C 8.972656 -68.996094 8.625 -68.785156 8.484375 -68.4375 C 8.277344 -68.019531 8.277344 -67.671875 8.554688 -67.324219 C 9.667969 -66.074219 10.222656 -64.613281 10.222656 -63.011719 L 10.222656 -1.53125 C 10.222656 -1.042969 10.363281 -0.625 10.710938 -0.347656 C 10.988281 0 11.40625 0.140625 11.894531 0.140625 L 47.226562 0.140625 C 48.128906 0.140625 48.964844 0.488281 49.730469 1.113281 L 50.5625 1.808594 C 50.910156 2.085938 51.257812 2.085938 51.675781 1.878906 C 52.023438 1.738281 52.234375 1.390625 52.234375 0.902344 L 52.234375 -14.464844 C 52.234375 -14.882812 52.023438 -15.230469 51.675781 -15.441406 C 51.257812 -15.578125 50.910156 -15.578125 50.5625 -15.371094 Z M 50.5625 -15.371094 "/></g></g></g><g fill="rgb(100%, 75.689697%, 69.799805%)" fill-opacity="0.502"><g transform="translate(233.612167, 167.151078)"><g><path d="M 50.5625 -15.371094 L 49.730469 -14.675781 C 48.964844 -13.980469 48.128906 -13.703125 47.226562 -13.703125 L 25.664062 -13.703125 C 25.175781 -13.703125 24.761719 -13.839844 24.480469 -14.117188 C 24.132812 -14.398438 23.996094 -14.8125 23.996094 -15.371094 L 23.996094 -62.945312 C 23.996094 -64.542969 24.550781 -66.003906 25.664062 -67.257812 L 25.734375 -67.324219 C 25.941406 -67.671875 25.941406 -68.019531 25.804688 -68.4375 C 25.59375 -68.785156 25.246094 -68.996094 24.828125 -68.996094 L 9.457031 -68.996094 C 8.972656 -68.996094 8.625 -68.785156 8.484375 -68.4375 C 8.277344 -68.019531 8.277344 -67.671875 8.554688 -67.324219 C 9.667969 -66.074219 10.222656 -64.613281 10.222656 -63.011719 L 10.222656 -1.53125 C 10.222656 -1.042969 10.363281 -0.625 10.710938 -0.347656 C 10.988281 0 11.40625 0.140625 11.894531 0.140625 L 47.226562 0.140625 C 48.128906 0.140625 48.964844 0.488281 49.730469 1.113281 L 50.5625 1.808594 C 50.910156 2.085938 51.257812 2.085938 51.675781 1.878906 C 52.023438 1.738281 52.234375 1.390625 52.234375 0.902344 L 52.234375 -14.464844 C 52.234375 -14.882812 52.023438 -15.230469 51.675781 -15.441406 C 51.257812 -15.578125 50.910156 -15.578125 50.5625 -15.371094 Z M 50.5625 -15.371094 "/></g></g></g><g fill="rgb(100%, 75.689697%, 69.799805%)" fill-opacity="0.502"><g transform="translate(290.087987, 167.151078)"><g><path d="M 50.632812 -69.621094 C 49.449219 -68.507812 48.058594 -68.019531 46.53125 -68.019531 L 9.457031 -68.019531 C 8.972656 -68.019531 8.625 -67.8125 8.484375 -67.394531 C 8.277344 -66.976562 8.277344 -66.628906 8.554688 -66.28125 L 8.761719 -66.074219 C 9.875 -64.820312 10.433594 -63.359375 10.433594 -61.691406 L 10.433594 -5.214844 C 10.433594 -4.382812 10.292969 -3.617188 10.015625 -2.851562 C 9.738281 -2.085938 9.320312 -1.390625 8.761719 -0.835938 L 8.554688 -0.625 C 8.277344 -0.207031 8.277344 0.140625 8.484375 0.554688 C 8.625 0.972656 8.972656 1.113281 9.457031 1.113281 L 46.53125 1.113281 C 48.058594 1.113281 49.449219 1.667969 50.632812 2.710938 C 50.980469 3.058594 51.398438 3.128906 51.816406 2.921875 C 52.234375 2.78125 52.511719 2.433594 52.511719 1.878906 L 52.511719 -13.632812 C 52.511719 -14.050781 52.300781 -14.398438 51.886719 -14.605469 C 51.46875 -14.746094 51.050781 -14.675781 50.773438 -14.398438 C 49.519531 -13.214844 48.058594 -12.660156 46.390625 -12.660156 L 25.941406 -12.660156 C 25.457031 -12.660156 25.039062 -12.796875 24.691406 -13.144531 C 24.34375 -13.421875 24.203125 -13.839844 24.203125 -14.398438 L 24.203125 -24.828125 C 24.203125 -25.316406 24.34375 -25.734375 24.691406 -26.082031 C 25.039062 -26.359375 25.457031 -26.570312 25.941406 -26.570312 L 32.0625 -26.570312 C 33.730469 -26.570312 35.191406 -25.941406 36.445312 -24.828125 C 36.792969 -24.550781 37.140625 -24.550781 37.558594 -24.761719 C 37.976562 -24.96875 38.183594 -25.316406 38.183594 -25.734375 L 38.183594 -41.175781 C 38.183594 -41.589844 37.976562 -41.871094 37.558594 -42.078125 C 37.140625 -42.285156 36.792969 -42.285156 36.445312 -42.078125 C 35.191406 -40.894531 33.730469 -40.339844 32.0625 -40.339844 L 25.941406 -40.339844 C 25.457031 -40.339844 25.039062 -40.480469 24.691406 -40.828125 C 24.34375 -41.105469 24.203125 -41.523438 24.203125 -42.078125 L 24.203125 -52.511719 C 24.203125 -52.996094 24.34375 -53.414062 24.691406 -53.761719 C 25.039062 -54.042969 25.457031 -54.25 25.941406 -54.25 L 46.390625 -54.25 C 48.058594 -54.25 49.519531 -53.625 50.773438 -52.511719 C 51.050781 -52.164062 51.46875 -52.09375 51.886719 -52.300781 C 52.300781 -52.441406 52.511719 -52.789062 52.511719 -53.277344 L 52.511719 -68.855469 C 52.511719 -69.273438 52.234375 -69.621094 51.816406 -69.828125 C 51.398438 -69.96875 50.980469 -69.898438 50.632812 -69.621094 Z M 50.632812 -69.621094 "/></g></g></g><g fill="rgb(100%, 75.689697%, 69.799805%)" fill-opacity="0.502"><g transform="translate(350.945593, 167.151078)"><g><path d="M 54.457031 -70.871094 L 54.390625 -70.804688 C 53.136719 -69.691406 51.746094 -69.132812 50.144531 -69.132812 L 14.398438 -69.132812 C 12.726562 -69.132812 11.335938 -69.691406 10.085938 -70.804688 L 10.085938 -70.871094 C 9.667969 -71.082031 9.320312 -71.082031 8.902344 -70.871094 C 8.484375 -70.664062 8.347656 -70.386719 8.347656 -69.96875 L 8.347656 -54.527344 C 8.347656 -54.042969 8.484375 -53.695312 8.902344 -53.554688 C 9.320312 -53.34375 9.667969 -53.34375 10.085938 -53.625 C 11.335938 -54.738281 12.726562 -55.363281 14.398438 -55.363281 L 23.996094 -55.363281 C 24.34375 -55.363281 24.691406 -55.222656 24.96875 -54.945312 C 25.246094 -54.667969 25.386719 -54.320312 25.386719 -53.972656 L 25.386719 -6.121094 C 25.386719 -4.453125 24.828125 -2.992188 23.71875 -1.808594 L 23.648438 -1.738281 C 23.371094 -1.320312 23.371094 -0.972656 23.578125 -0.554688 C 23.71875 -0.140625 24.066406 0 24.550781 0 L 39.992188 0 C 40.410156 0 40.6875 -0.140625 40.894531 -0.554688 C 41.105469 -0.972656 41.105469 -1.320312 40.894531 -1.738281 C 39.714844 -2.992188 39.15625 -4.382812 39.15625 -6.050781 L 39.15625 -53.972656 C 39.15625 -54.320312 39.296875 -54.667969 39.574219 -54.945312 C 39.851562 -55.222656 40.132812 -55.363281 40.546875 -55.363281 L 50.144531 -55.363281 C 51.816406 -55.363281 53.207031 -54.738281 54.390625 -53.625 L 54.457031 -53.625 C 54.804688 -53.34375 55.152344 -53.34375 55.570312 -53.554688 C 55.988281 -53.695312 56.195312 -54.042969 56.195312 -54.527344 L 56.195312 -69.96875 C 56.195312 -70.386719 55.988281 -70.664062 55.570312 -70.871094 C 55.152344 -71.082031 54.804688 -71.082031 54.457031 -70.871094 Z M 54.457031 -70.871094 "/></g></g></g><g fill="rgb(0%, 0%, 0%)" fill-opacity="1"><g transform="translate(14.696211, 167.932381)"><g><path d="M 91.460938 -69.132812 L 76.507812 -69.132812 L 76.507812 -69.0625 L 76.507812 -69.132812 L 75.183594 -69.132812 C 74.699219 -69.132812 74.351562 -68.925781 74.210938 -68.507812 C 74.003906 -68.089844 74.003906 -67.742188 74.28125 -67.394531 L 74.558594 -67.117188 C 75.253906 -66.28125 75.460938 -65.449219 75.183594 -64.472656 L 63.707031 -24.761719 C 63.570312 -24.34375 63.292969 -24.132812 62.875 -24.132812 C 62.457031 -24.132812 62.179688 -24.34375 62.039062 -24.761719 L 57.03125 -42.21875 C 56.683594 -43.191406 56.894531 -44.09375 57.65625 -44.859375 L 57.796875 -45 C 58.003906 -45.347656 58.003906 -45.695312 57.796875 -46.113281 C 57.589844 -46.460938 57.242188 -46.667969 56.824219 -46.667969 L 39.851562 -46.667969 C 39.433594 -46.667969 39.085938 -46.460938 38.878906 -46.113281 C 38.671875 -45.695312 38.671875 -45.347656 38.949219 -45 L 39.085938 -44.859375 C 39.78125 -44.027344 39.992188 -43.191406 39.714844 -42.21875 L 34.707031 -24.761719 C 34.566406 -24.34375 34.289062 -24.132812 33.871094 -24.132812 C 33.382812 -24.132812 33.105469 -24.34375 33.035156 -24.761719 L 21.5625 -64.472656 C 21.28125 -65.449219 21.492188 -66.28125 22.1875 -67.117188 L 22.464844 -67.394531 C 22.671875 -67.742188 22.671875 -68.089844 22.535156 -68.507812 C 22.324219 -68.925781 21.976562 -69.132812 21.5625 -69.132812 L 5.285156 -69.132812 C 4.800781 -69.132812 4.453125 -68.925781 4.3125 -68.507812 C 4.101562 -68.089844 4.101562 -67.742188 4.382812 -67.394531 C 6.191406 -65.726562 7.441406 -63.640625 8.136719 -61.273438 L 24.550781 -4.519531 C 24.828125 -3.476562 24.550781 -2.574219 23.855469 -1.738281 C 23.578125 -1.320312 23.578125 -0.972656 23.785156 -0.554688 C 23.996094 -0.140625 24.34375 0 24.761719 0 L 42.914062 0 C 43.332031 0 43.609375 -0.140625 43.816406 -0.554688 C 44.027344 -0.972656 44.027344 -1.320312 43.816406 -1.738281 L 43.746094 -1.738281 C 43.050781 -2.433594 42.84375 -3.339844 43.121094 -4.382812 L 47.503906 -19.542969 C 47.640625 -19.960938 47.921875 -20.167969 48.339844 -20.167969 C 48.753906 -20.167969 49.101562 -19.960938 49.242188 -19.542969 L 53.554688 -4.453125 C 53.832031 -3.40625 53.625 -2.503906 52.929688 -1.808594 L 52.859375 -1.738281 C 52.582031 -1.320312 52.582031 -0.972656 52.789062 -0.554688 C 52.996094 -0.140625 53.34375 0 53.761719 0 L 72.054688 0 C 72.472656 0 72.820312 -0.140625 72.960938 -0.554688 C 73.097656 -0.972656 73.097656 -1.320312 72.820312 -1.738281 C 72.054688 -2.433594 71.847656 -3.339844 72.195312 -4.3125 L 88.609375 -61.34375 C 88.957031 -62.457031 89.441406 -63.570312 90.070312 -64.613281 C 90.625 -65.65625 91.390625 -66.558594 92.363281 -67.394531 C 92.574219 -67.742188 92.574219 -68.089844 92.433594 -68.507812 C 92.226562 -68.925781 91.875 -69.132812 91.460938 -69.132812 Z M 91.460938 -69.132812 "/></g></g></g><g fill="rgb(0%, 0%, 0%)" fill-opacity="1"><g transform="translate(111.442428, 167.932381)"><g><path d="M 63.292969 -1.25 C 63.292969 -1.53125 63.152344 -1.738281 62.945312 -1.878906 C 61.34375 -3.199219 60.300781 -4.867188 59.746094 -6.957031 L 43.121094 -64.402344 C 42.773438 -65.515625 42.984375 -66.558594 43.816406 -67.394531 C 44.027344 -67.742188 44.027344 -68.089844 43.886719 -68.507812 C 43.679688 -68.925781 43.332031 -69.132812 42.914062 -69.132812 L 24.550781 -69.132812 C 24.132812 -69.132812 23.785156 -68.925781 23.578125 -68.507812 C 23.371094 -68.089844 23.371094 -67.742188 23.648438 -67.394531 C 24.480469 -66.558594 24.691406 -65.515625 24.34375 -64.402344 L 7.789062 -6.886719 C 7.234375 -4.9375 6.121094 -3.269531 4.519531 -1.878906 C 4.3125 -1.667969 4.171875 -1.460938 4.171875 -1.25 C 4.101562 -0.902344 4.171875 -0.625 4.382812 -0.347656 C 4.589844 -0.0703125 4.867188 0 5.285156 0 L 21.421875 0 C 21.839844 0 22.1875 -0.140625 22.324219 -0.554688 C 22.464844 -0.972656 22.464844 -1.320312 22.1875 -1.667969 C 21.351562 -2.503906 21.144531 -3.546875 21.421875 -4.660156 L 23.578125 -11.894531 C 23.785156 -12.660156 24.203125 -13.285156 24.828125 -13.703125 C 25.386719 -14.117188 26.082031 -14.398438 26.917969 -14.398438 L 40.617188 -14.398438 C 41.382812 -14.398438 42.078125 -14.117188 42.703125 -13.703125 C 43.261719 -13.285156 43.679688 -12.660156 43.957031 -11.894531 L 46.042969 -4.660156 C 46.320312 -3.546875 46.042969 -2.574219 45.347656 -1.738281 L 45.347656 -1.667969 C 45.070312 -1.25 45.070312 -0.902344 45.277344 -0.554688 C 45.417969 -0.140625 45.765625 0 46.25 0 L 62.25 0 C 62.597656 0 62.875 -0.0703125 63.082031 -0.347656 C 63.292969 -0.625 63.359375 -0.902344 63.292969 -1.25 Z M 38.253906 -28.167969 L 29.28125 -28.167969 C 29.003906 -28.167969 28.792969 -28.238281 28.65625 -28.445312 C 28.445312 -28.65625 28.375 -28.933594 28.515625 -29.210938 L 33.035156 -44.722656 C 33.105469 -45.070312 33.316406 -45.277344 33.730469 -45.277344 C 34.148438 -45.277344 34.359375 -45.070312 34.496094 -44.722656 L 38.949219 -29.210938 C 39.019531 -28.933594 38.949219 -28.65625 38.808594 -28.445312 C 38.671875 -28.238281 38.460938 -28.167969 38.253906 -28.167969 Z M 38.253906 -28.167969 "/></g></g></g><g fill="rgb(0%, 0%, 0%)" fill-opacity="1"><g transform="translate(178.976981, 167.932381)"><g><path d="M 50.5625 -15.371094 L 49.730469 -14.675781 C 48.964844 -13.980469 48.128906 -13.703125 47.226562 -13.703125 L 25.664062 -13.703125 C 25.175781 -13.703125 24.761719 -13.839844 24.480469 -14.117188 C 24.132812 -14.398438 23.996094 -14.8125 23.996094 -15.371094 L 23.996094 -62.945312 C 23.996094 -64.542969 24.550781 -66.003906 25.664062 -67.257812 L 25.734375 -67.324219 C 25.941406 -67.671875 25.941406 -68.019531 25.804688 -68.4375 C 25.59375 -68.785156 25.246094 -68.996094 24.828125 -68.996094 L 9.457031 -68.996094 C 8.972656 -68.996094 8.625 -68.785156 8.484375 -68.4375 C 8.277344 -68.019531 8.277344 -67.671875 8.554688 -67.324219 C 9.667969 -66.074219 10.222656 -64.613281 10.222656 -63.011719 L 10.222656 -1.53125 C 10.222656 -1.042969 10.363281 -0.625 10.710938 -0.347656 C 10.988281 0 11.40625 0.140625 11.894531 0.140625 L 47.226562 0.140625 C 48.128906 0.140625 48.964844 0.488281 49.730469 1.113281 L 50.5625 1.808594 C 50.910156 2.085938 51.257812 2.085938 51.675781 1.878906 C 52.023438 1.738281 52.234375 1.390625 52.234375 0.902344 L 52.234375 -14.464844 C 52.234375 -14.882812 52.023438 -15.230469 51.675781 -15.441406 C 51.257812 -15.578125 50.910156 -15.578125 50.5625 -15.371094 Z M 50.5625 -15.371094 "/></g></g></g><g fill="rgb(0%, 0%, 0%)" fill-opacity="1"><g transform="translate(235.452801, 167.932381)"><g><path d="M 50.5625 -15.371094 L 49.730469 -14.675781 C 48.964844 -13.980469 48.128906 -13.703125 47.226562 -13.703125 L 25.664062 -13.703125 C 25.175781 -13.703125 24.761719 -13.839844 24.480469 -14.117188 C 24.132812 -14.398438 23.996094 -14.8125 23.996094 -15.371094 L 23.996094 -62.945312 C 23.996094 -64.542969 24.550781 -66.003906 25.664062 -67.257812 L 25.734375 -67.324219 C 25.941406 -67.671875 25.941406 -68.019531 25.804688 -68.4375 C 25.59375 -68.785156 25.246094 -68.996094 24.828125 -68.996094 L 9.457031 -68.996094 C 8.972656 -68.996094 8.625 -68.785156 8.484375 -68.4375 C 8.277344 -68.019531 8.277344 -67.671875 8.554688 -67.324219 C 9.667969 -66.074219 10.222656 -64.613281 10.222656 -63.011719 L 10.222656 -1.53125 C 10.222656 -1.042969 10.363281 -0.625 10.710938 -0.347656 C 10.988281 0 11.40625 0.140625 11.894531 0.140625 L 47.226562 0.140625 C 48.128906 0.140625 48.964844 0.488281 49.730469 1.113281 L 50.5625 1.808594 C 50.910156 2.085938 51.257812 2.085938 51.675781 1.878906 C 52.023438 1.738281 52.234375 1.390625 52.234375 0.902344 L 52.234375 -14.464844 C 52.234375 -14.882812 52.023438 -15.230469 51.675781 -15.441406 C 51.257812 -15.578125 50.910156 -15.578125 50.5625 -15.371094 Z M 50.5625 -15.371094 "/></g></g></g><g fill="rgb(0%, 0%, 0%)" fill-opacity="1"><g transform="translate(291.928622, 167.932381)"><g><path d="M 50.632812 -69.621094 C 49.449219 -68.507812 48.058594 -68.019531 46.53125 -68.019531 L 9.457031 -68.019531 C 8.972656 -68.019531 8.625 -67.8125 8.484375 -67.394531 C 8.277344 -66.976562 8.277344 -66.628906 8.554688 -66.28125 L 8.761719 -66.074219 C 9.875 -64.820312 10.433594 -63.359375 10.433594 -61.691406 L 10.433594 -5.214844 C 10.433594 -4.382812 10.292969 -3.617188 10.015625 -2.851562 C 9.738281 -2.085938 9.320312 -1.390625 8.761719 -0.835938 L 8.554688 -0.625 C 8.277344 -0.207031 8.277344 0.140625 8.484375 0.554688 C 8.625 0.972656 8.972656 1.113281 9.457031 1.113281 L 46.53125 1.113281 C 48.058594 1.113281 49.449219 1.667969 50.632812 2.710938 C 50.980469 3.058594 51.398438 3.128906 51.816406 2.921875 C 52.234375 2.78125 52.511719 2.433594 52.511719 1.878906 L 52.511719 -13.632812 C 52.511719 -14.050781 52.300781 -14.398438 51.886719 -14.605469 C 51.46875 -14.746094 51.050781 -14.675781 50.773438 -14.398438 C 49.519531 -13.214844 48.058594 -12.660156 46.390625 -12.660156 L 25.941406 -12.660156 C 25.457031 -12.660156 25.039062 -12.796875 24.691406 -13.144531 C 24.34375 -13.421875 24.203125 -13.839844 24.203125 -14.398438 L 24.203125 -24.828125 C 24.203125 -25.316406 24.34375 -25.734375 24.691406 -26.082031 C 25.039062 -26.359375 25.457031 -26.570312 25.941406 -26.570312 L 32.0625 -26.570312 C 33.730469 -26.570312 35.191406 -25.941406 36.445312 -24.828125 C 36.792969 -24.550781 37.140625 -24.550781 37.558594 -24.761719 C 37.976562 -24.96875 38.183594 -25.316406 38.183594 -25.734375 L 38.183594 -41.175781 C 38.183594 -41.589844 37.976562 -41.871094 37.558594 -42.078125 C 37.140625 -42.285156 36.792969 -42.285156 36.445312 -42.078125 C 35.191406 -40.894531 33.730469 -40.339844 32.0625 -40.339844 L 25.941406 -40.339844 C 25.457031 -40.339844 25.039062 -40.480469 24.691406 -40.828125 C 24.34375 -41.105469 24.203125 -41.523438 24.203125 -42.078125 L 24.203125 -52.511719 C 24.203125 -52.996094 24.34375 -53.414062 24.691406 -53.761719 C 25.039062 -54.042969 25.457031 -54.25 25.941406 -54.25 L 46.390625 -54.25 C 48.058594 -54.25 49.519531 -53.625 50.773438 -52.511719 C 51.050781 -52.164062 51.46875 -52.09375 51.886719 -52.300781 C 52.300781 -52.441406 52.511719 -52.789062 52.511719 -53.277344 L 52.511719 -68.855469 C 52.511719 -69.273438 52.234375 -69.621094 51.816406 -69.828125 C 51.398438 -69.96875 50.980469 -69.898438 50.632812 -69.621094 Z M 50.632812 -69.621094 "/></g></g></g><g fill="rgb(0%, 0%, 0%)" fill-opacity="1"><g transform="translate(352.786227, 167.932381)"><g><path d="M 54.457031 -70.871094 L 54.390625 -70.804688 C 53.136719 -69.691406 51.746094 -69.132812 50.144531 -69.132812 L 14.398438 -69.132812 C 12.726562 -69.132812 11.335938 -69.691406 10.085938 -70.804688 L 10.085938 -70.871094 C 9.667969 -71.082031 9.320312 -71.082031 8.902344 -70.871094 C 8.484375 -70.664062 8.347656 -70.386719 8.347656 -69.96875 L 8.347656 -54.527344 C 8.347656 -54.042969 8.484375 -53.695312 8.902344 -53.554688 C 9.320312 -53.34375 9.667969 -53.34375 10.085938 -53.625 C 11.335938 -54.738281 12.726562 -55.363281 14.398438 -55.363281 L 23.996094 -55.363281 C 24.34375 -55.363281 24.691406 -55.222656 24.96875 -54.945312 C 25.246094 -54.667969 25.386719 -54.320312 25.386719 -53.972656 L 25.386719 -6.121094 C 25.386719 -4.453125 24.828125 -2.992188 23.71875 -1.808594 L 23.648438 -1.738281 C 23.371094 -1.320312 23.371094 -0.972656 23.578125 -0.554688 C 23.71875 -0.140625 24.066406 0 24.550781 0 L 39.992188 0 C 40.410156 0 40.6875 -0.140625 40.894531 -0.554688 C 41.105469 -0.972656 41.105469 -1.320312 40.894531 -1.738281 C 39.714844 -2.992188 39.15625 -4.382812 39.15625 -6.050781 L 39.15625 -53.972656 C 39.15625 -54.320312 39.296875 -54.667969 39.574219 -54.945312 C 39.851562 -55.222656 40.132812 -55.363281 40.546875 -55.363281 L 50.144531 -55.363281 C 51.816406 -55.363281 53.207031 -54.738281 54.390625 -53.625 L 54.457031 -53.625 C 54.804688 -53.34375 55.152344 -53.34375 55.570312 -53.554688 C 55.988281 -53.695312 56.195312 -54.042969 56.195312 -54.527344 L 56.195312 -69.96875 C 56.195312 -70.386719 55.988281 -70.664062 55.570312 -70.871094 C 55.152344 -71.082031 54.804688 -71.082031 54.457031 -70.871094 Z M 54.457031 -70.871094 "/></g></g></g></svg>