<svg xmlns="http://www.w3.org/2000/svg" xmlns:xlink="http://www.w3.org/1999/xlink" width="500" zoomAndPan="magnify" viewBox="0 0 375 374.999991" height="500" preserveAspectRatio="xMidYMid meet" version="1.0"><defs><clipPath id="id1"><path d="M 143 87.214844 L 232 87.214844 L 232 175 L 143 175 Z M 143 87.214844 " clip-rule="nonzero"/></clipPath><clipPath id="id2"><path d="M 117.050781 182 L 258.050781 182 L 258.050781 287.464844 L 117.050781 287.464844 Z M 117.050781 182 " clip-rule="nonzero"/></clipPath><clipPath id="id3"><path d="M 168.332031 104.21875 L 206.582031 104.21875 L 206.582031 154.46875 L 168.332031 154.46875 Z M 168.332031 104.21875 " clip-rule="nonzero"/></clipPath></defs><rect x="-37.5" width="450" fill="rgb(100%, 100%, 100%)" y="-37.499999" height="449.999989" fill-opacity="1"/><rect x="-37.5" width="450" fill="rgb(100%, 100%, 100%)" y="-37.499999" height="449.999989" fill-opacity="1"/><rect x="-37.5" width="450" fill="rgb(100%, 100%, 100%)" y="-37.499999" height="449.999989" fill-opacity="1"/><rect x="-37.5" width="450" fill="rgb(100%, 100%, 100%)" y="-37.499999" height="449.999989" fill-opacity="1"/><g clip-path="url(#id1)"><path fill="rgb(6.269836%, 5.879211%, 5.099487%)" d="M 187.550781 93.355469 C 166.734375 93.355469 149.808594 110.242188 149.808594 131.007812 C 149.808594 151.765625 166.734375 168.664062 187.550781 168.664062 C 208.363281 168.664062 225.292969 151.765625 225.292969 131.007812 C 225.292969 110.242188 208.363281 93.355469 187.550781 93.355469 Z M 187.550781 174.726562 C 163.390625 174.726562 143.730469 155.113281 143.730469 131.007812 C 143.730469 106.90625 163.390625 87.292969 187.550781 87.292969 C 211.707031 87.292969 231.367188 106.90625 231.367188 131.007812 C 231.367188 155.113281 211.707031 174.726562 187.550781 174.726562 " fill-opacity="1" fill-rule="nonzero"/></g><g clip-path="url(#id2)"><path fill="rgb(6.269836%, 5.879211%, 5.099487%)" d="M 156.957031 188.894531 C 137.894531 190.089844 123.148438 205.660156 123.148438 224.890625 L 123.148438 267.144531 C 123.148438 274.964844 129.519531 281.324219 137.359375 281.324219 L 237.738281 281.324219 C 245.582031 281.324219 251.953125 274.964844 251.953125 267.144531 L 251.953125 224.890625 C 251.953125 205.660156 237.203125 190.089844 218.140625 188.894531 C 209.90625 196.917969 199.097656 201.324219 187.550781 201.324219 C 176 201.324219 165.195312 196.917969 156.957031 188.894531 Z M 237.738281 287.386719 L 137.359375 287.386719 C 126.175781 287.386719 117.070312 278.3125 117.070312 267.144531 L 117.070312 224.890625 C 117.070312 201.921875 135.089844 183.417969 158.082031 182.773438 C 158.984375 182.773438 159.765625 183.09375 160.363281 183.710938 C 167.542969 191.160156 177.195312 195.261719 187.550781 195.261719 C 197.902344 195.261719 207.554688 191.160156 214.738281 183.710938 C 215.335938 183.085938 216.113281 182.773438 217.015625 182.773438 C 240.007812 183.417969 258.027344 201.921875 258.027344 224.890625 L 258.027344 267.144531 C 258.027344 278.3125 248.921875 287.386719 237.738281 287.386719 " fill-opacity="1" fill-rule="nonzero"/></g><path fill="rgb(92.939758%, 92.939758%, 92.939758%)" d="M 201.628906 124.144531 C 200.445312 125.03125 199.003906 125.511719 197.527344 125.511719 C 195.710938 125.511719 193.972656 124.789062 192.691406 123.507812 L 192.140625 122.957031 L 192.691406 122.402344 C 193.972656 121.121094 195.710938 120.402344 197.527344 120.402344 C 199.003906 120.402344 200.445312 120.882812 201.628906 121.769531 L 203.210938 122.957031 Z M 183.070312 123.507812 C 181.789062 124.789062 180.050781 125.511719 178.238281 125.511719 C 176.757812 125.511719 175.320312 125.03125 174.136719 124.144531 L 172.550781 122.957031 L 174.136719 121.769531 C 175.320312 120.882812 176.757812 120.402344 178.238281 120.402344 C 180.050781 120.402344 181.789062 121.121094 183.070312 122.402344 L 183.621094 122.957031 Z M 205.59375 127.433594 L 204.0625 107.625 C 193.519531 104.296875 182.21875 104.214844 171.628906 107.390625 L 170.847656 107.625 L 169.332031 127.214844 C 169.210938 128.894531 169.46875 130.582031 170.09375 132.148438 L 174.253906 142.546875 L 184.472656 153.617188 L 191.289062 153.617188 L 202.164062 141.695312 L 204.976562 131.976562 C 205.496094 130.519531 205.707031 128.972656 205.59375 127.433594 " fill-opacity="1" fill-rule="nonzero"/><path fill="rgb(35.289001%, 37.649536%, 40.388489%)" d="M 185.328125 145.101562 C 185.878906 146.757812 185.878906 148.550781 185.328125 150.210938 L 187.882812 153.617188 L 190.4375 150.210938 C 189.882812 148.550781 189.882812 146.757812 190.4375 145.101562 L 185.328125 145.101562 " fill-opacity="1" fill-rule="nonzero"/><path fill="rgb(35.289001%, 37.649536%, 40.388489%)" d="M 183.78125 115.371094 L 176.808594 111.882812 L 170.847656 116.140625 L 176.808594 115.289062 L 182.417969 118.097656 C 183.105469 118.441406 183.941406 118.21875 184.367188 117.578125 C 184.878906 116.816406 184.601562 115.78125 183.78125 115.371094 " fill-opacity="1" fill-rule="nonzero"/><path fill="rgb(35.289001%, 37.649536%, 40.388489%)" d="M 191.980469 115.371094 L 198.953125 111.882812 L 204.0625 116.140625 L 198.953125 115.289062 L 193.34375 118.097656 C 192.65625 118.441406 191.820312 118.21875 191.394531 117.578125 C 190.886719 116.816406 191.160156 115.78125 191.980469 115.371094 " fill-opacity="1" fill-rule="nonzero"/><path fill="rgb(79.60968%, 79.219055%, 78.42865%)" d="M 190.4375 142.546875 L 185.328125 142.546875 C 185.101562 142.546875 184.882812 142.457031 184.722656 142.296875 L 183.265625 140.839844 C 182.933594 140.507812 182.933594 139.964844 183.265625 139.632812 C 183.597656 139.300781 184.140625 139.300781 184.472656 139.632812 L 185.679688 140.839844 L 190.082031 140.839844 L 191.289062 139.632812 C 191.625 139.300781 192.164062 139.300781 192.496094 139.632812 C 192.828125 139.964844 192.828125 140.507812 192.496094 140.839844 L 191.039062 142.296875 C 190.878906 142.457031 190.660156 142.546875 190.4375 142.546875 " fill-opacity="1" fill-rule="nonzero"/><path fill="rgb(89.408875%, 89.408875%, 89.019775%)" d="M 170.367188 133.671875 C 170.027344 133.671875 169.707031 133.46875 169.574219 133.136719 C 168.710938 130.980469 168.910156 128.503906 170.105469 126.511719 L 170.96875 125.074219 C 171.210938 124.667969 171.734375 124.539062 172.136719 124.78125 C 172.542969 125.023438 172.671875 125.546875 172.429688 125.949219 L 171.566406 127.390625 C 170.644531 128.925781 170.488281 130.839844 171.15625 132.503906 C 171.332031 132.941406 171.117188 133.4375 170.683594 133.613281 C 170.578125 133.652344 170.472656 133.671875 170.367188 133.671875 " fill-opacity="1" fill-rule="nonzero"/><path fill="rgb(89.408875%, 89.408875%, 89.019775%)" d="M 204.546875 133.671875 C 204.441406 133.671875 204.332031 133.652344 204.230469 133.613281 C 203.792969 133.4375 203.578125 132.941406 203.753906 132.503906 C 204.421875 130.839844 204.269531 128.925781 203.34375 127.390625 L 202.480469 125.949219 C 202.238281 125.546875 202.371094 125.023438 202.773438 124.78125 C 203.175781 124.539062 203.699219 124.667969 203.941406 125.074219 L 204.804688 126.511719 C 206 128.503906 206.199219 130.980469 205.335938 133.136719 C 205.203125 133.46875 204.882812 133.671875 204.546875 133.671875 " fill-opacity="1" fill-rule="nonzero"/><path fill="rgb(98.429871%, 98.81897%, 98.81897%)" d="M 192.992188 109.855469 C 192.945312 109.855469 192.898438 109.851562 192.851562 109.84375 L 191.632812 109.640625 C 191.171875 109.5625 190.855469 109.125 190.933594 108.660156 C 191.011719 108.195312 191.449219 107.882812 191.914062 107.960938 L 193.132812 108.160156 C 193.59375 108.238281 193.910156 108.679688 193.832031 109.140625 C 193.761719 109.558594 193.402344 109.855469 192.992188 109.855469 " fill-opacity="1" fill-rule="nonzero"/><path fill="rgb(98.429871%, 98.81897%, 98.81897%)" d="M 182.769531 109.855469 C 182.359375 109.855469 182 109.558594 181.929688 109.140625 C 181.855469 108.679688 182.167969 108.238281 182.632812 108.160156 L 183.847656 107.960938 C 185.46875 107.6875 187.121094 107.582031 188.761719 107.640625 C 189.234375 107.660156 189.601562 108.054688 189.585938 108.523438 C 189.566406 108.992188 189.167969 109.363281 188.703125 109.34375 C 187.175781 109.289062 185.636719 109.386719 184.128906 109.640625 L 182.910156 109.84375 C 182.863281 109.851562 182.816406 109.855469 182.769531 109.855469 " fill-opacity="1" fill-rule="nonzero"/><path fill="rgb(35.289001%, 37.649536%, 40.388489%)" d="M 185.328125 134.878906 L 181.917969 137.433594 L 177.660156 137.433594 L 175.105469 133.175781 L 170.847656 133.175781 L 175.957031 140.839844 L 183.621094 140.839844 L 187.882812 137.433594 L 185.328125 134.878906 " fill-opacity="1" fill-rule="nonzero"/><path fill="rgb(35.289001%, 37.649536%, 40.388489%)" d="M 190.4375 134.878906 L 193.84375 137.433594 L 198.101562 137.433594 L 200.65625 133.175781 L 204.703125 133.175781 L 199.804688 140.839844 L 192.140625 140.839844 L 187.882812 137.433594 L 190.4375 134.878906 " fill-opacity="1" fill-rule="nonzero"/><path fill="rgb(79.60968%, 79.219055%, 78.42865%)" d="M 192.632812 131.234375 L 191.289062 130.335938 L 189.585938 126.078125 L 189.585938 121.820312 C 189.585938 120.878906 188.820312 120.117188 187.882812 120.117188 C 186.941406 120.117188 186.179688 120.878906 186.179688 121.820312 L 186.179688 126.078125 L 184.472656 130.335938 L 183.128906 131.234375 C 182.371094 131.738281 181.917969 132.585938 181.917969 133.492188 C 181.917969 134.660156 182.667969 135.695312 183.773438 136.066406 L 184.472656 136.300781 C 186.492188 137.8125 189.269531 137.8125 191.289062 136.300781 L 191.988281 136.066406 C 193.09375 135.695312 193.84375 134.660156 193.84375 133.492188 C 193.84375 132.585938 193.390625 131.738281 192.632812 131.234375 " fill-opacity="1" fill-rule="nonzero"/><path fill="rgb(79.60968%, 79.219055%, 78.42865%)" d="M 191.289062 145.953125 L 183.621094 145.953125 C 183.398438 145.953125 183.179688 145.863281 183.019531 145.703125 L 180.464844 143.148438 C 180.132812 142.816406 180.132812 142.277344 180.464844 141.941406 C 180.796875 141.609375 181.335938 141.609375 181.671875 141.941406 L 183.976562 144.25 L 190.933594 144.25 L 193.242188 141.941406 C 193.574219 141.609375 194.113281 141.609375 194.445312 141.941406 C 194.777344 142.277344 194.777344 142.816406 194.445312 143.148438 L 191.890625 145.703125 C 191.730469 145.863281 191.511719 145.953125 191.289062 145.953125 " fill-opacity="1" fill-rule="nonzero"/><path fill="rgb(50.588989%, 50.979614%, 51.368713%)" d="M 183.070312 123.507812 C 181.789062 124.789062 180.050781 125.511719 178.238281 125.511719 C 176.757812 125.511719 175.320312 125.03125 174.136719 124.144531 L 172.550781 122.957031 L 174.136719 121.769531 C 175.320312 120.882812 176.757812 120.402344 178.238281 120.402344 C 180.050781 120.402344 181.789062 121.121094 183.070312 122.402344 L 183.621094 122.957031 L 183.070312 123.507812 " fill-opacity="1" fill-rule="nonzero"/><path fill="rgb(50.588989%, 50.979614%, 51.368713%)" d="M 201.628906 124.144531 C 200.445312 125.03125 199.003906 125.511719 197.527344 125.511719 C 195.710938 125.511719 193.972656 124.789062 192.691406 123.507812 L 192.140625 122.957031 L 192.691406 122.402344 C 193.972656 121.121094 195.710938 120.402344 197.527344 120.402344 C 199.003906 120.402344 200.445312 120.882812 201.628906 121.769531 L 203.210938 122.957031 L 201.628906 124.144531 " fill-opacity="1" fill-rule="nonzero"/><path fill="rgb(6.269836%, 5.879211%, 5.099487%)" d="M 197.527344 121.253906 C 198.8125 121.253906 200.085938 121.675781 201.117188 122.449219 L 201.792969 122.957031 L 201.117188 123.460938 C 200.085938 124.234375 198.8125 124.660156 197.527344 124.660156 C 195.949219 124.660156 194.46875 124.054688 193.34375 122.957031 C 194.46875 121.855469 195.949219 121.253906 197.527344 121.253906 Z M 192.089844 124.113281 C 193.542969 125.5625 195.472656 126.363281 197.527344 126.363281 C 199.179688 126.363281 200.816406 125.816406 202.136719 124.824219 L 203.722656 123.636719 C 203.9375 123.476562 204.0625 123.222656 204.0625 122.957031 C 204.0625 122.6875 203.9375 122.433594 203.722656 122.273438 L 202.136719 121.085938 C 200.816406 120.09375 199.179688 119.550781 197.527344 119.550781 C 195.472656 119.550781 193.542969 120.347656 192.089844 121.800781 L 191.539062 122.355469 C 191.203125 122.6875 191.203125 123.226562 191.539062 123.558594 L 192.089844 124.113281 " fill-opacity="1" fill-rule="nonzero"/><g clip-path="url(#id3)"><path fill="rgb(6.269836%, 5.879211%, 5.099487%)" d="M 201.105469 114.785156 L 199.09375 114.449219 C 198.914062 114.421875 198.734375 114.449219 198.570312 114.527344 L 192.960938 117.335938 C 192.660156 117.484375 192.289062 117.386719 192.101562 117.105469 C 191.957031 116.886719 191.984375 116.671875 192.011719 116.5625 C 192.039062 116.453125 192.125 116.25 192.359375 116.132812 L 198.835938 112.894531 Z M 174.183594 114.804688 L 176.886719 112.875 L 183.402344 116.132812 C 183.636719 116.25 183.722656 116.453125 183.75 116.5625 C 183.78125 116.671875 183.808594 116.886719 183.660156 117.105469 C 183.472656 117.386719 183.101562 117.484375 182.800781 117.335938 L 177.191406 114.527344 C 177.070312 114.46875 176.941406 114.4375 176.808594 114.4375 C 176.769531 114.4375 176.730469 114.441406 176.6875 114.449219 Z M 170.980469 116.984375 L 176.667969 116.171875 L 182.039062 118.859375 C 182.378906 119.027344 182.738281 119.109375 183.097656 119.109375 C 183.871094 119.109375 184.625 118.730469 185.078125 118.050781 C 185.457031 117.484375 185.570312 116.78125 185.398438 116.125 C 185.222656 115.464844 184.773438 114.914062 184.164062 114.609375 L 177.191406 111.121094 C 176.90625 110.980469 176.570312 111.007812 176.316406 111.191406 L 171.140625 114.886719 L 171.652344 108.273438 L 171.871094 108.207031 C 176.933594 106.6875 182.179688 105.917969 187.464844 105.917969 C 192.824219 105.917969 198.136719 106.710938 203.257812 108.269531 L 203.761719 114.78125 L 199.496094 111.230469 C 199.238281 111.011719 198.875 110.972656 198.570312 111.121094 L 191.597656 114.609375 C 190.988281 114.914062 190.539062 115.464844 190.367188 116.125 C 190.191406 116.78125 190.308594 117.484375 190.683594 118.050781 C 191.136719 118.730469 191.890625 119.109375 192.664062 119.109375 C 193.023438 119.109375 193.386719 119.027344 193.722656 118.859375 L 199.085938 116.175781 L 203.921875 116.984375 C 203.925781 116.984375 203.929688 116.984375 203.929688 116.984375 L 204.644531 126.25 L 203.941406 125.074219 C 203.699219 124.667969 203.175781 124.539062 202.773438 124.78125 C 202.371094 125.023438 202.238281 125.546875 202.480469 125.949219 L 203.34375 127.390625 C 204.234375 128.871094 204.40625 130.703125 203.820312 132.324219 L 200.65625 132.324219 C 200.355469 132.324219 200.078125 132.480469 199.925781 132.738281 L 197.617188 136.582031 L 194.125 136.582031 L 193.523438 136.132812 C 194.253906 135.46875 194.695312 134.523438 194.695312 133.492188 C 194.695312 132.296875 194.101562 131.1875 193.109375 130.527344 L 191.980469 129.777344 L 190.4375 125.914062 L 190.4375 121.820312 C 190.4375 120.410156 189.289062 119.265625 187.882812 119.265625 C 186.472656 119.265625 185.328125 120.410156 185.328125 121.820312 L 185.328125 125.914062 L 183.78125 129.777344 L 182.65625 130.527344 C 181.660156 131.1875 181.066406 132.296875 181.066406 133.492188 C 181.066406 134.523438 181.507812 135.46875 182.238281 136.132812 L 181.636719 136.582031 L 178.144531 136.582031 L 175.835938 132.738281 C 175.683594 132.480469 175.40625 132.324219 175.105469 132.324219 L 171.089844 132.324219 C 170.503906 130.703125 170.675781 128.871094 171.566406 127.390625 L 172.429688 125.949219 C 172.671875 125.546875 172.542969 125.023438 172.136719 124.78125 C 171.734375 124.539062 171.210938 124.667969 170.96875 125.074219 L 170.261719 126.25 Z M 199.347656 139.988281 L 192.4375 139.988281 L 189.902344 137.960938 C 190.527344 137.757812 191.132812 137.460938 191.683594 137.066406 L 191.855469 137.007812 L 193.332031 138.117188 C 193.480469 138.226562 193.660156 138.285156 193.84375 138.285156 L 198.101562 138.285156 C 198.398438 138.285156 198.675781 138.128906 198.832031 137.875 L 201.136719 134.027344 L 203.324219 134.027344 Z M 201.398438 141.265625 L 190.910156 152.765625 L 189.585938 152.765625 L 191.117188 150.722656 C 191.285156 150.496094 191.332031 150.207031 191.242188 149.941406 C 190.816406 148.660156 190.761719 147.261719 191.078125 145.953125 L 191.289062 145.953125 C 191.511719 145.953125 191.730469 145.863281 191.890625 145.703125 L 194.445312 143.148438 C 194.777344 142.816406 194.777344 142.277344 194.445312 141.941406 C 194.113281 141.609375 193.574219 141.609375 193.242188 141.941406 L 190.933594 144.25 L 183.976562 144.25 L 181.671875 141.941406 C 181.335938 141.609375 180.796875 141.609375 180.464844 141.941406 C 180.132812 142.277344 180.132812 142.816406 180.464844 143.148438 L 183.019531 145.703125 C 183.179688 145.863281 183.398438 145.953125 183.621094 145.953125 L 184.683594 145.953125 C 185 147.261719 184.945312 148.660156 184.519531 149.941406 C 184.429688 150.207031 184.476562 150.496094 184.644531 150.722656 L 186.179688 152.765625 L 184.847656 152.765625 L 174.988281 142.082031 L 174.078125 139.8125 L 175.285156 141.363281 C 175.445312 141.570312 175.695312 141.695312 175.957031 141.695312 L 183.621094 141.695312 C 183.761719 141.695312 183.898438 141.660156 184.023438 141.59375 L 184.722656 142.296875 C 184.882812 142.457031 185.101562 142.546875 185.328125 142.546875 L 190.4375 142.546875 C 190.660156 142.546875 190.878906 142.457031 191.039062 142.296875 L 191.738281 141.59375 C 191.863281 141.660156 192 141.695312 192.140625 141.695312 L 199.804688 141.695312 C 200.089844 141.695312 200.355469 141.550781 200.511719 141.3125 L 202.058594 138.996094 Z M 187.882812 152.199219 L 186.265625 150.042969 C 186.632812 148.714844 186.6875 147.304688 186.425781 145.953125 L 189.335938 145.953125 C 189.074219 147.304688 189.128906 148.714844 189.496094 150.042969 Z M 190.390625 140.535156 L 190.082031 140.839844 L 185.679688 140.839844 L 185.371094 140.535156 L 187.882812 138.527344 Z M 188.792969 126.394531 L 190.496094 130.652344 C 190.5625 130.8125 190.671875 130.949219 190.816406 131.046875 L 192.164062 131.945312 C 192.679688 132.289062 192.992188 132.867188 192.992188 133.492188 C 192.992188 134.289062 192.484375 134.996094 191.734375 135.253906 C 191.726562 135.253906 191.722656 135.257812 191.71875 135.257812 L 191.019531 135.492188 C 190.929688 135.519531 190.851562 135.5625 190.777344 135.617188 C 189.070312 136.898438 186.691406 136.898438 184.984375 135.617188 C 184.914062 135.5625 184.832031 135.519531 184.742188 135.492188 L 184.046875 135.257812 C 184.039062 135.257812 184.035156 135.253906 184.027344 135.253906 C 183.277344 134.996094 182.769531 134.289062 182.769531 133.492188 C 182.769531 132.867188 183.082031 132.289062 183.597656 131.945312 L 184.945312 131.046875 C 185.089844 130.949219 185.203125 130.8125 185.265625 130.652344 L 186.96875 126.394531 C 187.007812 126.292969 187.03125 126.1875 187.03125 126.078125 L 187.03125 121.820312 C 187.03125 121.351562 187.410156 120.96875 187.882812 120.96875 C 188.351562 120.96875 188.734375 121.351562 188.734375 121.820312 L 188.734375 126.078125 C 188.734375 126.1875 188.753906 126.292969 188.792969 126.394531 Z M 171.792969 134.101562 L 171.765625 134.027344 L 174.625 134.027344 L 176.929688 137.875 C 177.085938 138.128906 177.363281 138.285156 177.660156 138.285156 L 181.917969 138.285156 C 182.105469 138.285156 182.285156 138.226562 182.429688 138.117188 L 183.90625 137.007812 L 184.078125 137.066406 C 184.632812 137.460938 185.234375 137.757812 185.859375 137.960938 L 183.324219 139.988281 L 176.375 139.988281 Z M 169.363281 132.609375 C 169.3125 132.664062 169.265625 132.730469 169.230469 132.800781 C 169.089844 133.09375 169.125 133.441406 169.324219 133.699219 L 170.300781 134.957031 L 173.464844 142.863281 C 173.503906 142.957031 173.558594 143.046875 173.628906 143.121094 L 183.847656 154.195312 C 184.011719 154.371094 184.238281 154.46875 184.472656 154.46875 L 191.289062 154.46875 C 191.527344 154.46875 191.753906 154.367188 191.917969 154.191406 L 202.792969 142.265625 C 202.878906 142.171875 202.945312 142.054688 202.980469 141.929688 L 205.191406 134.292969 L 205.621094 133.648438 C 205.796875 133.386719 205.8125 133.050781 205.664062 132.773438 C 205.660156 132.761719 205.648438 132.75 205.644531 132.738281 L 205.789062 132.238281 C 206.347656 130.667969 206.566406 129.03125 206.441406 127.367188 L 204.910156 107.558594 C 204.886719 107.214844 204.652344 106.917969 204.320312 106.8125 C 198.863281 105.089844 193.191406 104.214844 187.464844 104.214844 C 182.015625 104.214844 176.601562 105.011719 171.382812 106.574219 L 170.601562 106.808594 C 170.265625 106.910156 170.027344 107.210938 170 107.558594 L 168.484375 127.152344 C 168.351562 128.953125 168.636719 130.789062 169.304688 132.464844 L 169.363281 132.609375 " fill-opacity="1" fill-rule="nonzero"/></g><path fill="rgb(6.269836%, 5.879211%, 5.099487%)" d="M 174.644531 122.449219 C 175.675781 121.675781 176.949219 121.253906 178.238281 121.253906 C 179.8125 121.253906 181.292969 121.855469 182.417969 122.957031 C 181.292969 124.054688 179.8125 124.660156 178.238281 124.660156 C 176.949219 124.660156 175.675781 124.234375 174.644531 123.460938 L 173.96875 122.957031 Z M 172.039062 123.636719 L 173.625 124.824219 C 174.945312 125.816406 176.585938 126.363281 178.238281 126.363281 C 180.289062 126.363281 182.21875 125.5625 183.671875 124.113281 L 184.226562 123.558594 C 184.558594 123.226562 184.558594 122.6875 184.226562 122.355469 L 183.671875 121.800781 C 182.21875 120.347656 180.289062 119.550781 178.238281 119.550781 C 176.585938 119.550781 174.945312 120.09375 173.625 121.085938 L 172.039062 122.273438 C 171.824219 122.433594 171.699219 122.6875 171.699219 122.957031 C 171.699219 123.222656 171.824219 123.476562 172.039062 123.636719 " fill-opacity="1" fill-rule="nonzero"/><path fill="rgb(6.269836%, 5.879211%, 5.099487%)" d="M 191.632812 109.640625 L 192.851562 109.84375 C 192.898438 109.851562 192.945312 109.855469 192.992188 109.855469 C 193.402344 109.855469 193.761719 109.558594 193.832031 109.140625 C 193.910156 108.679688 193.59375 108.238281 193.132812 108.160156 L 191.914062 107.960938 C 191.449219 107.882812 191.011719 108.195312 190.933594 108.660156 C 190.855469 109.125 191.171875 109.5625 191.632812 109.640625 " fill-opacity="1" fill-rule="nonzero"/><path fill="rgb(6.269836%, 5.879211%, 5.099487%)" d="M 188.703125 109.34375 C 189.167969 109.363281 189.566406 108.992188 189.585938 108.523438 C 189.601562 108.054688 189.234375 107.660156 188.761719 107.640625 C 187.121094 107.582031 185.46875 107.6875 183.847656 107.960938 L 182.632812 108.160156 C 182.167969 108.238281 181.855469 108.679688 181.929688 109.140625 C 182 109.558594 182.359375 109.855469 182.769531 109.855469 C 182.816406 109.855469 182.863281 109.851562 182.910156 109.84375 L 184.128906 109.640625 C 185.636719 109.386719 187.175781 109.289062 188.703125 109.34375 " fill-opacity="1" fill-rule="nonzero"/></svg>