<svg xmlns="http://www.w3.org/2000/svg" xmlns:xlink="http://www.w3.org/1999/xlink" width="100" zoomAndPan="magnify" viewBox="0 0 75 37.5" height="50" preserveAspectRatio="xMidYMid meet" version="1.0"><defs><g/></defs><g fill="rgb(100%, 75.689697%, 69.799805%)" fill-opacity="0.302"><g transform="translate(9.578826, 18.303376)"><g><path d="M 12.136719 -0.371094 L 11.914062 -0.550781 C 11.675781 -0.742188 11.46875 -0.980469 11.304688 -1.246094 L 9.464844 -4.183594 C 9.40625 -4.273438 9.375 -4.375 9.40625 -4.496094 C 9.4375 -4.597656 9.496094 -4.6875 9.597656 -4.761719 C 9.96875 -5.03125 10.296875 -5.328125 10.5625 -5.667969 C 10.964844 -6.15625 11.277344 -6.722656 11.484375 -7.34375 C 11.691406 -7.96875 11.808594 -8.621094 11.808594 -9.300781 C 11.808594 -9.984375 11.691406 -10.652344 11.484375 -11.277344 C 11.277344 -11.898438 10.964844 -12.460938 10.5625 -12.96875 C 10.089844 -13.53125 9.511719 -13.976562 8.855469 -14.289062 C 8.191406 -14.585938 7.460938 -14.746094 6.691406 -14.746094 L 2.003906 -14.746094 C 1.898438 -14.746094 1.824219 -14.703125 1.796875 -14.613281 C 1.75 -14.523438 1.765625 -14.449219 1.839844 -14.375 C 2.078125 -14.109375 2.210938 -13.796875 2.210938 -13.441406 L 2.210938 -1.277344 C 2.210938 -0.933594 2.09375 -0.636719 1.871094 -0.386719 C 1.78125 -0.296875 1.765625 -0.222656 1.808594 -0.132812 C 1.839844 -0.0429688 1.914062 0 2.03125 0 L 5.355469 0 C 5.445312 0 5.519531 -0.03125 5.550781 -0.117188 C 5.578125 -0.207031 5.578125 -0.28125 5.519531 -0.371094 C 5.265625 -0.636719 5.148438 -0.933594 5.148438 -1.289062 L 5.148438 -3.457031 C 5.148438 -3.574219 5.179688 -3.679688 5.265625 -3.769531 C 5.355469 -3.859375 5.460938 -3.902344 5.578125 -3.902344 L 5.933594 -3.902344 C 6.082031 -3.902344 6.214844 -3.828125 6.304688 -3.695312 L 8.128906 -0.757812 C 8.203125 -0.625 8.191406 -0.503906 8.101562 -0.386719 L 8.085938 -0.371094 C 8.027344 -0.28125 8.027344 -0.207031 8.070312 -0.117188 C 8.101562 -0.03125 8.175781 0 8.277344 0 L 12.03125 0 C 12.136719 0 12.195312 -0.0429688 12.226562 -0.132812 C 12.253906 -0.222656 12.226562 -0.296875 12.136719 -0.371094 Z M 8.292969 -7.535156 C 7.921875 -7.0625 7.386719 -6.839844 6.691406 -6.839844 L 5.578125 -6.839844 C 5.460938 -6.839844 5.355469 -6.871094 5.265625 -6.957031 C 5.179688 -7.046875 5.148438 -7.152344 5.148438 -7.269531 L 5.148438 -11.363281 C 5.148438 -11.484375 5.179688 -11.585938 5.265625 -11.675781 C 5.355469 -11.765625 5.460938 -11.808594 5.578125 -11.808594 L 6.691406 -11.808594 C 7.226562 -11.808594 7.625 -11.691406 7.921875 -11.453125 C 8.21875 -11.214844 8.425781 -10.949219 8.574219 -10.652344 C 8.710938 -10.355469 8.796875 -10.074219 8.828125 -9.808594 C 8.855469 -9.539062 8.871094 -9.363281 8.871094 -9.300781 C 8.871094 -8.945312 8.8125 -8.621094 8.722656 -8.324219 C 8.621094 -8.027344 8.472656 -7.757812 8.292969 -7.535156 Z M 8.292969 -7.535156 "/></g></g></g><g fill="rgb(100%, 75.689697%, 69.799805%)" fill-opacity="0.302"><g transform="translate(23.589032, 18.303376)"><g><path d="M 11.214844 -12.433594 C 10.652344 -13.175781 9.984375 -13.738281 9.242188 -14.140625 C 8.488281 -14.523438 7.699219 -14.734375 6.871094 -14.734375 C 6.039062 -14.734375 5.238281 -14.523438 4.480469 -14.140625 C 3.722656 -13.738281 3.070312 -13.175781 2.507812 -12.433594 C 1.972656 -11.734375 1.574219 -10.949219 1.304688 -10.089844 C 1.023438 -9.226562 0.890625 -8.308594 0.890625 -7.359375 C 0.890625 -6.410156 1.023438 -5.488281 1.304688 -4.628906 C 1.574219 -3.753906 1.972656 -2.980469 2.507812 -2.300781 C 3.070312 -1.558594 3.722656 -0.980469 4.480469 -0.59375 C 5.238281 -0.191406 6.039062 0 6.871094 0 C 7.699219 0 8.488281 -0.191406 9.242188 -0.59375 C 9.984375 -0.980469 10.652344 -1.558594 11.214844 -2.300781 C 11.75 -2.980469 12.152344 -3.753906 12.433594 -4.628906 C 12.699219 -5.488281 12.847656 -6.410156 12.847656 -7.359375 C 12.847656 -8.308594 12.699219 -9.226562 12.433594 -10.089844 C 12.152344 -10.949219 11.75 -11.734375 11.214844 -12.433594 Z M 6.871094 -2.9375 C 6.453125 -2.9375 6.054688 -3.054688 5.695312 -3.292969 C 5.328125 -3.53125 5 -3.84375 4.734375 -4.242188 C 4.449219 -4.644531 4.226562 -5.117188 4.066406 -5.652344 C 3.902344 -6.1875 3.828125 -6.75 3.828125 -7.359375 C 3.828125 -7.953125 3.902344 -8.53125 4.066406 -9.066406 C 4.226562 -9.597656 4.449219 -10.058594 4.734375 -10.472656 C 5 -10.875 5.328125 -11.203125 5.695312 -11.4375 C 6.054688 -11.675781 6.453125 -11.796875 6.871094 -11.796875 C 7.285156 -11.796875 7.671875 -11.675781 8.042969 -11.4375 C 8.398438 -11.203125 8.722656 -10.875 8.992188 -10.472656 C 9.257812 -10.058594 9.480469 -9.597656 9.644531 -9.066406 C 9.808594 -8.53125 9.894531 -7.953125 9.894531 -7.359375 C 9.894531 -6.75 9.808594 -6.1875 9.644531 -5.652344 C 9.480469 -5.117188 9.257812 -4.644531 8.992188 -4.242188 C 8.722656 -3.84375 8.398438 -3.53125 8.042969 -3.292969 C 7.671875 -3.054688 7.285156 -2.9375 6.871094 -2.9375 Z M 6.871094 -2.9375 "/></g></g></g><g fill="rgb(100%, 75.689697%, 69.799805%)" fill-opacity="0.302"><g transform="translate(37.317548, 18.303376)"><g><path d="M 13.5 -0.265625 C 13.5 -0.328125 13.472656 -0.371094 13.425781 -0.402344 C 13.085938 -0.683594 12.863281 -1.039062 12.746094 -1.484375 L 9.199219 -13.738281 C 9.125 -13.976562 9.167969 -14.199219 9.347656 -14.375 C 9.390625 -14.449219 9.390625 -14.523438 9.363281 -14.613281 C 9.316406 -14.703125 9.242188 -14.746094 9.152344 -14.746094 L 5.238281 -14.746094 C 5.148438 -14.746094 5.074219 -14.703125 5.03125 -14.613281 C 4.984375 -14.523438 4.984375 -14.449219 5.042969 -14.375 C 5.222656 -14.199219 5.265625 -13.976562 5.191406 -13.738281 L 1.660156 -1.46875 C 1.542969 -1.054688 1.304688 -0.699219 0.964844 -0.402344 C 0.917969 -0.355469 0.890625 -0.3125 0.890625 -0.265625 C 0.875 -0.191406 0.890625 -0.132812 0.933594 -0.0742188 C 0.980469 -0.015625 1.039062 0 1.128906 0 L 4.570312 0 C 4.660156 0 4.734375 -0.03125 4.761719 -0.117188 C 4.792969 -0.207031 4.792969 -0.28125 4.734375 -0.355469 C 4.554688 -0.535156 4.511719 -0.757812 4.570312 -0.992188 L 5.03125 -2.535156 C 5.074219 -2.699219 5.164062 -2.832031 5.296875 -2.921875 C 5.414062 -3.011719 5.5625 -3.070312 5.742188 -3.070312 L 8.664062 -3.070312 C 8.828125 -3.070312 8.976562 -3.011719 9.109375 -2.921875 C 9.226562 -2.832031 9.316406 -2.699219 9.375 -2.535156 L 9.820312 -0.992188 C 9.882812 -0.757812 9.820312 -0.550781 9.671875 -0.371094 L 9.671875 -0.355469 C 9.613281 -0.265625 9.613281 -0.191406 9.660156 -0.117188 C 9.6875 -0.03125 9.761719 0 9.867188 0 L 13.277344 0 C 13.351562 0 13.414062 -0.015625 13.457031 -0.0742188 C 13.5 -0.132812 13.515625 -0.191406 13.5 -0.265625 Z M 8.160156 -6.007812 L 6.246094 -6.007812 C 6.1875 -6.007812 6.140625 -6.023438 6.113281 -6.066406 C 6.066406 -6.113281 6.054688 -6.171875 6.082031 -6.230469 L 7.046875 -9.539062 C 7.0625 -9.613281 7.105469 -9.660156 7.195312 -9.660156 C 7.285156 -9.660156 7.328125 -9.613281 7.359375 -9.539062 L 8.308594 -6.230469 C 8.324219 -6.171875 8.308594 -6.113281 8.277344 -6.066406 C 8.25 -6.023438 8.203125 -6.007812 8.160156 -6.007812 Z M 8.160156 -6.007812 "/></g></g></g><g fill="rgb(100%, 75.689697%, 69.799805%)" fill-opacity="0.302"><g transform="translate(51.713212, 18.303376)"><g><path d="M 11.425781 -12.121094 C 10.949219 -12.96875 10.371094 -13.621094 9.6875 -14.066406 C 9.003906 -14.511719 8.234375 -14.746094 7.402344 -14.746094 L 2.003906 -14.746094 C 1.898438 -14.746094 1.824219 -14.703125 1.796875 -14.613281 C 1.75 -14.523438 1.765625 -14.4375 1.839844 -14.375 C 2.105469 -14.078125 2.253906 -13.722656 2.253906 -13.324219 L 2.253906 -1.410156 C 2.253906 -1.007812 2.105469 -0.652344 1.839844 -0.355469 C 1.765625 -0.28125 1.75 -0.207031 1.796875 -0.117188 C 1.824219 -0.03125 1.898438 0 2.003906 0 L 7.402344 0 C 8.234375 0 9.003906 -0.222656 9.6875 -0.667969 C 10.371094 -1.113281 10.949219 -1.75 11.425781 -2.597656 C 11.765625 -3.234375 12.03125 -3.960938 12.226562 -4.777344 C 12.417969 -5.59375 12.523438 -6.453125 12.523438 -7.359375 C 12.523438 -8.25 12.417969 -9.109375 12.226562 -9.925781 C 12.03125 -10.742188 11.765625 -11.46875 11.425781 -12.121094 Z M 8.84375 -4.019531 C 8.695312 -3.753906 8.546875 -3.546875 8.398438 -3.398438 C 8.25 -3.25 8.101562 -3.128906 7.980469 -3.070312 C 7.847656 -2.996094 7.730469 -2.953125 7.625 -2.953125 C 7.523438 -2.9375 7.449219 -2.9375 7.402344 -2.9375 L 5.742188 -2.9375 C 5.59375 -2.9375 5.460938 -2.980469 5.355469 -3.101562 C 5.238281 -3.203125 5.191406 -3.339844 5.191406 -3.488281 L 5.191406 -11.066406 C 5.191406 -11.261719 5.253906 -11.425781 5.402344 -11.574219 C 5.550781 -11.722656 5.726562 -11.796875 5.933594 -11.796875 L 7.402344 -11.796875 C 7.730469 -11.796875 8.042969 -11.660156 8.308594 -11.410156 C 8.574219 -11.140625 8.8125 -10.800781 9.003906 -10.386719 C 9.183594 -9.96875 9.332031 -9.496094 9.4375 -8.960938 C 9.523438 -8.425781 9.585938 -7.894531 9.585938 -7.359375 C 9.585938 -6.707031 9.511719 -6.082031 9.390625 -5.503906 C 9.257812 -4.925781 9.078125 -4.4375 8.84375 -4.019531 Z M 8.84375 -4.019531 "/></g></g></g><g fill="rgb(100%, 75.689697%, 69.799805%)" fill-opacity="0.502"><g transform="translate(9.578826, 18.767151)"><g><path d="M 12.136719 -0.371094 L 11.914062 -0.550781 C 11.675781 -0.742188 11.46875 -0.980469 11.304688 -1.246094 L 9.464844 -4.183594 C 9.40625 -4.273438 9.375 -4.375 9.40625 -4.496094 C 9.4375 -4.597656 9.496094 -4.6875 9.597656 -4.761719 C 9.96875 -5.03125 10.296875 -5.328125 10.5625 -5.667969 C 10.964844 -6.15625 11.277344 -6.722656 11.484375 -7.34375 C 11.691406 -7.96875 11.808594 -8.621094 11.808594 -9.300781 C 11.808594 -9.984375 11.691406 -10.652344 11.484375 -11.277344 C 11.277344 -11.898438 10.964844 -12.460938 10.5625 -12.96875 C 10.089844 -13.53125 9.511719 -13.976562 8.855469 -14.289062 C 8.191406 -14.585938 7.460938 -14.746094 6.691406 -14.746094 L 2.003906 -14.746094 C 1.898438 -14.746094 1.824219 -14.703125 1.796875 -14.613281 C 1.75 -14.523438 1.765625 -14.449219 1.839844 -14.375 C 2.078125 -14.109375 2.210938 -13.796875 2.210938 -13.441406 L 2.210938 -1.277344 C 2.210938 -0.933594 2.09375 -0.636719 1.871094 -0.386719 C 1.78125 -0.296875 1.765625 -0.222656 1.808594 -0.132812 C 1.839844 -0.0429688 1.914062 0 2.03125 0 L 5.355469 0 C 5.445312 0 5.519531 -0.03125 5.550781 -0.117188 C 5.578125 -0.207031 5.578125 -0.28125 5.519531 -0.371094 C 5.265625 -0.636719 5.148438 -0.933594 5.148438 -1.289062 L 5.148438 -3.457031 C 5.148438 -3.574219 5.179688 -3.679688 5.265625 -3.769531 C 5.355469 -3.859375 5.460938 -3.902344 5.578125 -3.902344 L 5.933594 -3.902344 C 6.082031 -3.902344 6.214844 -3.828125 6.304688 -3.695312 L 8.128906 -0.757812 C 8.203125 -0.625 8.191406 -0.503906 8.101562 -0.386719 L 8.085938 -0.371094 C 8.027344 -0.28125 8.027344 -0.207031 8.070312 -0.117188 C 8.101562 -0.03125 8.175781 0 8.277344 0 L 12.03125 0 C 12.136719 0 12.195312 -0.0429688 12.226562 -0.132812 C 12.253906 -0.222656 12.226562 -0.296875 12.136719 -0.371094 Z M 8.292969 -7.535156 C 7.921875 -7.0625 7.386719 -6.839844 6.691406 -6.839844 L 5.578125 -6.839844 C 5.460938 -6.839844 5.355469 -6.871094 5.265625 -6.957031 C 5.179688 -7.046875 5.148438 -7.152344 5.148438 -7.269531 L 5.148438 -11.363281 C 5.148438 -11.484375 5.179688 -11.585938 5.265625 -11.675781 C 5.355469 -11.765625 5.460938 -11.808594 5.578125 -11.808594 L 6.691406 -11.808594 C 7.226562 -11.808594 7.625 -11.691406 7.921875 -11.453125 C 8.21875 -11.214844 8.425781 -10.949219 8.574219 -10.652344 C 8.710938 -10.355469 8.796875 -10.074219 8.828125 -9.808594 C 8.855469 -9.539062 8.871094 -9.363281 8.871094 -9.300781 C 8.871094 -8.945312 8.8125 -8.621094 8.722656 -8.324219 C 8.621094 -8.027344 8.472656 -7.757812 8.292969 -7.535156 Z M 8.292969 -7.535156 "/></g></g></g><g fill="rgb(100%, 75.689697%, 69.799805%)" fill-opacity="0.502"><g transform="translate(23.589032, 18.767151)"><g><path d="M 11.214844 -12.433594 C 10.652344 -13.175781 9.984375 -13.738281 9.242188 -14.140625 C 8.488281 -14.523438 7.699219 -14.734375 6.871094 -14.734375 C 6.039062 -14.734375 5.238281 -14.523438 4.480469 -14.140625 C 3.722656 -13.738281 3.070312 -13.175781 2.507812 -12.433594 C 1.972656 -11.734375 1.574219 -10.949219 1.304688 -10.089844 C 1.023438 -9.226562 0.890625 -8.308594 0.890625 -7.359375 C 0.890625 -6.410156 1.023438 -5.488281 1.304688 -4.628906 C 1.574219 -3.753906 1.972656 -2.980469 2.507812 -2.300781 C 3.070312 -1.558594 3.722656 -0.980469 4.480469 -0.59375 C 5.238281 -0.191406 6.039062 0 6.871094 0 C 7.699219 0 8.488281 -0.191406 9.242188 -0.59375 C 9.984375 -0.980469 10.652344 -1.558594 11.214844 -2.300781 C 11.75 -2.980469 12.152344 -3.753906 12.433594 -4.628906 C 12.699219 -5.488281 12.847656 -6.410156 12.847656 -7.359375 C 12.847656 -8.308594 12.699219 -9.226562 12.433594 -10.089844 C 12.152344 -10.949219 11.75 -11.734375 11.214844 -12.433594 Z M 6.871094 -2.9375 C 6.453125 -2.9375 6.054688 -3.054688 5.695312 -3.292969 C 5.328125 -3.53125 5 -3.84375 4.734375 -4.242188 C 4.449219 -4.644531 4.226562 -5.117188 4.066406 -5.652344 C 3.902344 -6.1875 3.828125 -6.75 3.828125 -7.359375 C 3.828125 -7.953125 3.902344 -8.53125 4.066406 -9.066406 C 4.226562 -9.597656 4.449219 -10.058594 4.734375 -10.472656 C 5 -10.875 5.328125 -11.203125 5.695312 -11.4375 C 6.054688 -11.675781 6.453125 -11.796875 6.871094 -11.796875 C 7.285156 -11.796875 7.671875 -11.675781 8.042969 -11.4375 C 8.398438 -11.203125 8.722656 -10.875 8.992188 -10.472656 C 9.257812 -10.058594 9.480469 -9.597656 9.644531 -9.066406 C 9.808594 -8.53125 9.894531 -7.953125 9.894531 -7.359375 C 9.894531 -6.75 9.808594 -6.1875 9.644531 -5.652344 C 9.480469 -5.117188 9.257812 -4.644531 8.992188 -4.242188 C 8.722656 -3.84375 8.398438 -3.53125 8.042969 -3.292969 C 7.671875 -3.054688 7.285156 -2.9375 6.871094 -2.9375 Z M 6.871094 -2.9375 "/></g></g></g><g fill="rgb(100%, 75.689697%, 69.799805%)" fill-opacity="0.502"><g transform="translate(37.317548, 18.767151)"><g><path d="M 13.5 -0.265625 C 13.5 -0.328125 13.472656 -0.371094 13.425781 -0.402344 C 13.085938 -0.683594 12.863281 -1.039062 12.746094 -1.484375 L 9.199219 -13.738281 C 9.125 -13.976562 9.167969 -14.199219 9.347656 -14.375 C 9.390625 -14.449219 9.390625 -14.523438 9.363281 -14.613281 C 9.316406 -14.703125 9.242188 -14.746094 9.152344 -14.746094 L 5.238281 -14.746094 C 5.148438 -14.746094 5.074219 -14.703125 5.03125 -14.613281 C 4.984375 -14.523438 4.984375 -14.449219 5.042969 -14.375 C 5.222656 -14.199219 5.265625 -13.976562 5.191406 -13.738281 L 1.660156 -1.46875 C 1.542969 -1.054688 1.304688 -0.699219 0.964844 -0.402344 C 0.917969 -0.355469 0.890625 -0.3125 0.890625 -0.265625 C 0.875 -0.191406 0.890625 -0.132812 0.933594 -0.0742188 C 0.980469 -0.015625 1.039062 0 1.128906 0 L 4.570312 0 C 4.660156 0 4.734375 -0.03125 4.761719 -0.117188 C 4.792969 -0.207031 4.792969 -0.28125 4.734375 -0.355469 C 4.554688 -0.535156 4.511719 -0.757812 4.570312 -0.992188 L 5.03125 -2.535156 C 5.074219 -2.699219 5.164062 -2.832031 5.296875 -2.921875 C 5.414062 -3.011719 5.5625 -3.070312 5.742188 -3.070312 L 8.664062 -3.070312 C 8.828125 -3.070312 8.976562 -3.011719 9.109375 -2.921875 C 9.226562 -2.832031 9.316406 -2.699219 9.375 -2.535156 L 9.820312 -0.992188 C 9.882812 -0.757812 9.820312 -0.550781 9.671875 -0.371094 L 9.671875 -0.355469 C 9.613281 -0.265625 9.613281 -0.191406 9.660156 -0.117188 C 9.6875 -0.03125 9.761719 0 9.867188 0 L 13.277344 0 C 13.351562 0 13.414062 -0.015625 13.457031 -0.0742188 C 13.5 -0.132812 13.515625 -0.191406 13.5 -0.265625 Z M 8.160156 -6.007812 L 6.246094 -6.007812 C 6.1875 -6.007812 6.140625 -6.023438 6.113281 -6.066406 C 6.066406 -6.113281 6.054688 -6.171875 6.082031 -6.230469 L 7.046875 -9.539062 C 7.0625 -9.613281 7.105469 -9.660156 7.195312 -9.660156 C 7.285156 -9.660156 7.328125 -9.613281 7.359375 -9.539062 L 8.308594 -6.230469 C 8.324219 -6.171875 8.308594 -6.113281 8.277344 -6.066406 C 8.25 -6.023438 8.203125 -6.007812 8.160156 -6.007812 Z M 8.160156 -6.007812 "/></g></g></g><g fill="rgb(100%, 75.689697%, 69.799805%)" fill-opacity="0.502"><g transform="translate(51.713212, 18.767151)"><g><path d="M 11.425781 -12.121094 C 10.949219 -12.96875 10.371094 -13.621094 9.6875 -14.066406 C 9.003906 -14.511719 8.234375 -14.746094 7.402344 -14.746094 L 2.003906 -14.746094 C 1.898438 -14.746094 1.824219 -14.703125 1.796875 -14.613281 C 1.75 -14.523438 1.765625 -14.4375 1.839844 -14.375 C 2.105469 -14.078125 2.253906 -13.722656 2.253906 -13.324219 L 2.253906 -1.410156 C 2.253906 -1.007812 2.105469 -0.652344 1.839844 -0.355469 C 1.765625 -0.28125 1.75 -0.207031 1.796875 -0.117188 C 1.824219 -0.03125 1.898438 0 2.003906 0 L 7.402344 0 C 8.234375 0 9.003906 -0.222656 9.6875 -0.667969 C 10.371094 -1.113281 10.949219 -1.75 11.425781 -2.597656 C 11.765625 -3.234375 12.03125 -3.960938 12.226562 -4.777344 C 12.417969 -5.59375 12.523438 -6.453125 12.523438 -7.359375 C 12.523438 -8.25 12.417969 -9.109375 12.226562 -9.925781 C 12.03125 -10.742188 11.765625 -11.46875 11.425781 -12.121094 Z M 8.84375 -4.019531 C 8.695312 -3.753906 8.546875 -3.546875 8.398438 -3.398438 C 8.25 -3.25 8.101562 -3.128906 7.980469 -3.070312 C 7.847656 -2.996094 7.730469 -2.953125 7.625 -2.953125 C 7.523438 -2.9375 7.449219 -2.9375 7.402344 -2.9375 L 5.742188 -2.9375 C 5.59375 -2.9375 5.460938 -2.980469 5.355469 -3.101562 C 5.238281 -3.203125 5.191406 -3.339844 5.191406 -3.488281 L 5.191406 -11.066406 C 5.191406 -11.261719 5.253906 -11.425781 5.402344 -11.574219 C 5.550781 -11.722656 5.726562 -11.796875 5.933594 -11.796875 L 7.402344 -11.796875 C 7.730469 -11.796875 8.042969 -11.660156 8.308594 -11.410156 C 8.574219 -11.140625 8.8125 -10.800781 9.003906 -10.386719 C 9.183594 -9.96875 9.332031 -9.496094 9.4375 -8.960938 C 9.523438 -8.425781 9.585938 -7.894531 9.585938 -7.359375 C 9.585938 -6.707031 9.511719 -6.082031 9.390625 -5.503906 C 9.257812 -4.925781 9.078125 -4.4375 8.84375 -4.019531 Z M 8.84375 -4.019531 "/></g></g></g><g fill="rgb(0%, 0%, 0%)" fill-opacity="1"><g transform="translate(9.578826, 19.230926)"><g><path d="M 12.136719 -0.371094 L 11.914062 -0.550781 C 11.675781 -0.742188 11.46875 -0.980469 11.304688 -1.246094 L 9.464844 -4.183594 C 9.40625 -4.273438 9.375 -4.375 9.40625 -4.496094 C 9.4375 -4.597656 9.496094 -4.6875 9.597656 -4.761719 C 9.96875 -5.03125 10.296875 -5.328125 10.5625 -5.667969 C 10.964844 -6.15625 11.277344 -6.722656 11.484375 -7.34375 C 11.691406 -7.96875 11.808594 -8.621094 11.808594 -9.300781 C 11.808594 -9.984375 11.691406 -10.652344 11.484375 -11.277344 C 11.277344 -11.898438 10.964844 -12.460938 10.5625 -12.96875 C 10.089844 -13.53125 9.511719 -13.976562 8.855469 -14.289062 C 8.191406 -14.585938 7.460938 -14.746094 6.691406 -14.746094 L 2.003906 -14.746094 C 1.898438 -14.746094 1.824219 -14.703125 1.796875 -14.613281 C 1.75 -14.523438 1.765625 -14.449219 1.839844 -14.375 C 2.078125 -14.109375 2.210938 -13.796875 2.210938 -13.441406 L 2.210938 -1.277344 C 2.210938 -0.933594 2.09375 -0.636719 1.871094 -0.386719 C 1.78125 -0.296875 1.765625 -0.222656 1.808594 -0.132812 C 1.839844 -0.0429688 1.914062 0 2.03125 0 L 5.355469 0 C 5.445312 0 5.519531 -0.03125 5.550781 -0.117188 C 5.578125 -0.207031 5.578125 -0.28125 5.519531 -0.371094 C 5.265625 -0.636719 5.148438 -0.933594 5.148438 -1.289062 L 5.148438 -3.457031 C 5.148438 -3.574219 5.179688 -3.679688 5.265625 -3.769531 C 5.355469 -3.859375 5.460938 -3.902344 5.578125 -3.902344 L 5.933594 -3.902344 C 6.082031 -3.902344 6.214844 -3.828125 6.304688 -3.695312 L 8.128906 -0.757812 C 8.203125 -0.625 8.191406 -0.503906 8.101562 -0.386719 L 8.085938 -0.371094 C 8.027344 -0.28125 8.027344 -0.207031 8.070312 -0.117188 C 8.101562 -0.03125 8.175781 0 8.277344 0 L 12.03125 0 C 12.136719 0 12.195312 -0.0429688 12.226562 -0.132812 C 12.253906 -0.222656 12.226562 -0.296875 12.136719 -0.371094 Z M 8.292969 -7.535156 C 7.921875 -7.0625 7.386719 -6.839844 6.691406 -6.839844 L 5.578125 -6.839844 C 5.460938 -6.839844 5.355469 -6.871094 5.265625 -6.957031 C 5.179688 -7.046875 5.148438 -7.152344 5.148438 -7.269531 L 5.148438 -11.363281 C 5.148438 -11.484375 5.179688 -11.585938 5.265625 -11.675781 C 5.355469 -11.765625 5.460938 -11.808594 5.578125 -11.808594 L 6.691406 -11.808594 C 7.226562 -11.808594 7.625 -11.691406 7.921875 -11.453125 C 8.21875 -11.214844 8.425781 -10.949219 8.574219 -10.652344 C 8.710938 -10.355469 8.796875 -10.074219 8.828125 -9.808594 C 8.855469 -9.539062 8.871094 -9.363281 8.871094 -9.300781 C 8.871094 -8.945312 8.8125 -8.621094 8.722656 -8.324219 C 8.621094 -8.027344 8.472656 -7.757812 8.292969 -7.535156 Z M 8.292969 -7.535156 "/></g></g></g><g fill="rgb(0%, 0%, 0%)" fill-opacity="1"><g transform="translate(23.589032, 19.230926)"><g><path d="M 11.214844 -12.433594 C 10.652344 -13.175781 9.984375 -13.738281 9.242188 -14.140625 C 8.488281 -14.523438 7.699219 -14.734375 6.871094 -14.734375 C 6.039062 -14.734375 5.238281 -14.523438 4.480469 -14.140625 C 3.722656 -13.738281 3.070312 -13.175781 2.507812 -12.433594 C 1.972656 -11.734375 1.574219 -10.949219 1.304688 -10.089844 C 1.023438 -9.226562 0.890625 -8.308594 0.890625 -7.359375 C 0.890625 -6.410156 1.023438 -5.488281 1.304688 -4.628906 C 1.574219 -3.753906 1.972656 -2.980469 2.507812 -2.300781 C 3.070312 -1.558594 3.722656 -0.980469 4.480469 -0.59375 C 5.238281 -0.191406 6.039062 0 6.871094 0 C 7.699219 0 8.488281 -0.191406 9.242188 -0.59375 C 9.984375 -0.980469 10.652344 -1.558594 11.214844 -2.300781 C 11.75 -2.980469 12.152344 -3.753906 12.433594 -4.628906 C 12.699219 -5.488281 12.847656 -6.410156 12.847656 -7.359375 C 12.847656 -8.308594 12.699219 -9.226562 12.433594 -10.089844 C 12.152344 -10.949219 11.75 -11.734375 11.214844 -12.433594 Z M 6.871094 -2.9375 C 6.453125 -2.9375 6.054688 -3.054688 5.695312 -3.292969 C 5.328125 -3.53125 5 -3.84375 4.734375 -4.242188 C 4.449219 -4.644531 4.226562 -5.117188 4.066406 -5.652344 C 3.902344 -6.1875 3.828125 -6.75 3.828125 -7.359375 C 3.828125 -7.953125 3.902344 -8.53125 4.066406 -9.066406 C 4.226562 -9.597656 4.449219 -10.058594 4.734375 -10.472656 C 5 -10.875 5.328125 -11.203125 5.695312 -11.4375 C 6.054688 -11.675781 6.453125 -11.796875 6.871094 -11.796875 C 7.285156 -11.796875 7.671875 -11.675781 8.042969 -11.4375 C 8.398438 -11.203125 8.722656 -10.875 8.992188 -10.472656 C 9.257812 -10.058594 9.480469 -9.597656 9.644531 -9.066406 C 9.808594 -8.53125 9.894531 -7.953125 9.894531 -7.359375 C 9.894531 -6.75 9.808594 -6.1875 9.644531 -5.652344 C 9.480469 -5.117188 9.257812 -4.644531 8.992188 -4.242188 C 8.722656 -3.84375 8.398438 -3.53125 8.042969 -3.292969 C 7.671875 -3.054688 7.285156 -2.9375 6.871094 -2.9375 Z M 6.871094 -2.9375 "/></g></g></g><g fill="rgb(0%, 0%, 0%)" fill-opacity="1"><g transform="translate(37.317548, 19.230926)"><g><path d="M 13.5 -0.265625 C 13.5 -0.328125 13.472656 -0.371094 13.425781 -0.402344 C 13.085938 -0.683594 12.863281 -1.039062 12.746094 -1.484375 L 9.199219 -13.738281 C 9.125 -13.976562 9.167969 -14.199219 9.347656 -14.375 C 9.390625 -14.449219 9.390625 -14.523438 9.363281 -14.613281 C 9.316406 -14.703125 9.242188 -14.746094 9.152344 -14.746094 L 5.238281 -14.746094 C 5.148438 -14.746094 5.074219 -14.703125 5.03125 -14.613281 C 4.984375 -14.523438 4.984375 -14.449219 5.042969 -14.375 C 5.222656 -14.199219 5.265625 -13.976562 5.191406 -13.738281 L 1.660156 -1.46875 C 1.542969 -1.054688 1.304688 -0.699219 0.964844 -0.402344 C 0.917969 -0.355469 0.890625 -0.3125 0.890625 -0.265625 C 0.875 -0.191406 0.890625 -0.132812 0.933594 -0.0742188 C 0.980469 -0.015625 1.039062 0 1.128906 0 L 4.570312 0 C 4.660156 0 4.734375 -0.03125 4.761719 -0.117188 C 4.792969 -0.207031 4.792969 -0.28125 4.734375 -0.355469 C 4.554688 -0.535156 4.511719 -0.757812 4.570312 -0.992188 L 5.03125 -2.535156 C 5.074219 -2.699219 5.164062 -2.832031 5.296875 -2.921875 C 5.414062 -3.011719 5.5625 -3.070312 5.742188 -3.070312 L 8.664062 -3.070312 C 8.828125 -3.070312 8.976562 -3.011719 9.109375 -2.921875 C 9.226562 -2.832031 9.316406 -2.699219 9.375 -2.535156 L 9.820312 -0.992188 C 9.882812 -0.757812 9.820312 -0.550781 9.671875 -0.371094 L 9.671875 -0.355469 C 9.613281 -0.265625 9.613281 -0.191406 9.660156 -0.117188 C 9.6875 -0.03125 9.761719 0 9.867188 0 L 13.277344 0 C 13.351562 0 13.414062 -0.015625 13.457031 -0.0742188 C 13.5 -0.132812 13.515625 -0.191406 13.5 -0.265625 Z M 8.160156 -6.007812 L 6.246094 -6.007812 C 6.1875 -6.007812 6.140625 -6.023438 6.113281 -6.066406 C 6.066406 -6.113281 6.054688 -6.171875 6.082031 -6.230469 L 7.046875 -9.539062 C 7.0625 -9.613281 7.105469 -9.660156 7.195312 -9.660156 C 7.285156 -9.660156 7.328125 -9.613281 7.359375 -9.539062 L 8.308594 -6.230469 C 8.324219 -6.171875 8.308594 -6.113281 8.277344 -6.066406 C 8.25 -6.023438 8.203125 -6.007812 8.160156 -6.007812 Z M 8.160156 -6.007812 "/></g></g></g><g fill="rgb(0%, 0%, 0%)" fill-opacity="1"><g transform="translate(51.713212, 19.230926)"><g><path d="M 11.425781 -12.121094 C 10.949219 -12.96875 10.371094 -13.621094 9.6875 -14.066406 C 9.003906 -14.511719 8.234375 -14.746094 7.402344 -14.746094 L 2.003906 -14.746094 C 1.898438 -14.746094 1.824219 -14.703125 1.796875 -14.613281 C 1.75 -14.523438 1.765625 -14.4375 1.839844 -14.375 C 2.105469 -14.078125 2.253906 -13.722656 2.253906 -13.324219 L 2.253906 -1.410156 C 2.253906 -1.007812 2.105469 -0.652344 1.839844 -0.355469 C 1.765625 -0.28125 1.75 -0.207031 1.796875 -0.117188 C 1.824219 -0.03125 1.898438 0 2.003906 0 L 7.402344 0 C 8.234375 0 9.003906 -0.222656 9.6875 -0.667969 C 10.371094 -1.113281 10.949219 -1.75 11.425781 -2.597656 C 11.765625 -3.234375 12.03125 -3.960938 12.226562 -4.777344 C 12.417969 -5.59375 12.523438 -6.453125 12.523438 -7.359375 C 12.523438 -8.25 12.417969 -9.109375 12.226562 -9.925781 C 12.03125 -10.742188 11.765625 -11.46875 11.425781 -12.121094 Z M 8.84375 -4.019531 C 8.695312 -3.753906 8.546875 -3.546875 8.398438 -3.398438 C 8.25 -3.25 8.101562 -3.128906 7.980469 -3.070312 C 7.847656 -2.996094 7.730469 -2.953125 7.625 -2.953125 C 7.523438 -2.9375 7.449219 -2.9375 7.402344 -2.9375 L 5.742188 -2.9375 C 5.59375 -2.9375 5.460938 -2.980469 5.355469 -3.101562 C 5.238281 -3.203125 5.191406 -3.339844 5.191406 -3.488281 L 5.191406 -11.066406 C 5.191406 -11.261719 5.253906 -11.425781 5.402344 -11.574219 C 5.550781 -11.722656 5.726562 -11.796875 5.933594 -11.796875 L 7.402344 -11.796875 C 7.730469 -11.796875 8.042969 -11.660156 8.308594 -11.410156 C 8.574219 -11.140625 8.8125 -10.800781 9.003906 -10.386719 C 9.183594 -9.96875 9.332031 -9.496094 9.4375 -8.960938 C 9.523438 -8.425781 9.585938 -7.894531 9.585938 -7.359375 C 9.585938 -6.707031 9.511719 -6.082031 9.390625 -5.503906 C 9.257812 -4.925781 9.078125 -4.4375 8.84375 -4.019531 Z M 8.84375 -4.019531 "/></g></g></g><g fill="rgb(100%, 75.689697%, 69.799805%)" fill-opacity="0.302"><g transform="translate(14.660914, 35.039022)"><g><path d="M 16.066406 -1.246094 L 16.066406 -13.5 C 16.066406 -13.828125 16.171875 -14.125 16.410156 -14.375 C 16.46875 -14.449219 16.484375 -14.523438 16.453125 -14.613281 C 16.410156 -14.703125 16.351562 -14.746094 16.261719 -14.746094 L 13.128906 -14.746094 L 13.117188 -14.734375 L 13.117188 -14.746094 L 12.714844 -14.746094 C 12.609375 -14.746094 12.535156 -14.703125 12.507812 -14.613281 C 12.460938 -14.523438 12.460938 -14.449219 12.523438 -14.375 C 12.582031 -14.289062 12.566406 -14.226562 12.507812 -14.183594 L 9.449219 -11.363281 C 9.347656 -11.277344 9.226562 -11.246094 9.109375 -11.246094 C 8.992188 -11.246094 8.886719 -11.277344 8.796875 -11.363281 L 5.695312 -14.214844 C 5.636719 -14.257812 5.636719 -14.300781 5.695312 -14.363281 C 5.757812 -14.4375 5.769531 -14.523438 5.742188 -14.613281 C 5.695312 -14.703125 5.621094 -14.746094 5.519531 -14.746094 L 2.019531 -14.746094 C 1.914062 -14.746094 1.839844 -14.703125 1.808594 -14.613281 C 1.765625 -14.523438 1.765625 -14.449219 1.824219 -14.375 L 1.839844 -14.363281 C 2.0625 -14.109375 2.179688 -13.8125 2.179688 -13.488281 L 2.179688 -1.261719 C 2.179688 -0.917969 2.0625 -0.625 1.839844 -0.386719 L 1.824219 -0.371094 C 1.765625 -0.28125 1.765625 -0.207031 1.808594 -0.117188 C 1.839844 -0.03125 1.914062 0 2.019531 0 L 5.296875 0 C 5.386719 0 5.460938 -0.03125 5.503906 -0.117188 C 5.535156 -0.207031 5.535156 -0.28125 5.488281 -0.371094 L 5.460938 -0.402344 C 5.222656 -0.636719 5.117188 -0.933594 5.117188 -1.277344 L 5.117188 -10.265625 C 5.117188 -10.355469 5.148438 -10.414062 5.238281 -10.445312 C 5.328125 -10.472656 5.402344 -10.472656 5.476562 -10.414062 L 8.796875 -7.328125 C 8.886719 -7.238281 8.992188 -7.195312 9.125 -7.195312 C 9.242188 -7.195312 9.363281 -7.238281 9.449219 -7.328125 L 12.773438 -10.414062 C 12.832031 -10.472656 12.90625 -10.472656 12.996094 -10.445312 C 13.085938 -10.414062 13.128906 -10.355469 13.128906 -10.265625 L 13.128906 -1.289062 C 13.128906 -0.964844 13.011719 -0.667969 12.773438 -0.414062 L 12.746094 -0.371094 C 12.683594 -0.28125 12.683594 -0.207031 12.730469 -0.117188 C 12.757812 -0.03125 12.832031 0 12.9375 0 L 16.261719 0 C 16.351562 0 16.410156 -0.03125 16.453125 -0.117188 C 16.484375 -0.207031 16.46875 -0.28125 16.410156 -0.371094 C 16.171875 -0.609375 16.066406 -0.90625 16.066406 -1.246094 Z M 16.066406 -1.246094 "/></g></g></g><g fill="rgb(100%, 75.689697%, 69.799805%)" fill-opacity="0.302"><g transform="translate(32.896412, 35.039022)"><g><path d="M 13.5 -0.265625 C 13.5 -0.328125 13.472656 -0.371094 13.425781 -0.402344 C 13.085938 -0.683594 12.863281 -1.039062 12.746094 -1.484375 L 9.199219 -13.738281 C 9.125 -13.976562 9.167969 -14.199219 9.347656 -14.375 C 9.390625 -14.449219 9.390625 -14.523438 9.363281 -14.613281 C 9.316406 -14.703125 9.242188 -14.746094 9.152344 -14.746094 L 5.238281 -14.746094 C 5.148438 -14.746094 5.074219 -14.703125 5.03125 -14.613281 C 4.984375 -14.523438 4.984375 -14.449219 5.042969 -14.375 C 5.222656 -14.199219 5.265625 -13.976562 5.191406 -13.738281 L 1.660156 -1.46875 C 1.542969 -1.054688 1.304688 -0.699219 0.964844 -0.402344 C 0.917969 -0.355469 0.890625 -0.3125 0.890625 -0.265625 C 0.875 -0.191406 0.890625 -0.132812 0.933594 -0.0742188 C 0.980469 -0.015625 1.039062 0 1.128906 0 L 4.570312 0 C 4.660156 0 4.734375 -0.03125 4.761719 -0.117188 C 4.792969 -0.207031 4.792969 -0.28125 4.734375 -0.355469 C 4.554688 -0.535156 4.511719 -0.757812 4.570312 -0.992188 L 5.03125 -2.535156 C 5.074219 -2.699219 5.164062 -2.832031 5.296875 -2.921875 C 5.414062 -3.011719 5.5625 -3.070312 5.742188 -3.070312 L 8.664062 -3.070312 C 8.828125 -3.070312 8.976562 -3.011719 9.109375 -2.921875 C 9.226562 -2.832031 9.316406 -2.699219 9.375 -2.535156 L 9.820312 -0.992188 C 9.882812 -0.757812 9.820312 -0.550781 9.671875 -0.371094 L 9.671875 -0.355469 C 9.613281 -0.265625 9.613281 -0.191406 9.660156 -0.117188 C 9.6875 -0.03125 9.761719 0 9.867188 0 L 13.277344 0 C 13.351562 0 13.414062 -0.015625 13.457031 -0.0742188 C 13.5 -0.132812 13.515625 -0.191406 13.5 -0.265625 Z M 8.160156 -6.007812 L 6.246094 -6.007812 C 6.1875 -6.007812 6.140625 -6.023438 6.113281 -6.066406 C 6.066406 -6.113281 6.054688 -6.171875 6.082031 -6.230469 L 7.046875 -9.539062 C 7.0625 -9.613281 7.105469 -9.660156 7.195312 -9.660156 C 7.285156 -9.660156 7.328125 -9.613281 7.359375 -9.539062 L 8.308594 -6.230469 C 8.324219 -6.171875 8.308594 -6.113281 8.277344 -6.066406 C 8.25 -6.023438 8.203125 -6.007812 8.160156 -6.007812 Z M 8.160156 -6.007812 "/></g></g></g><g fill="rgb(100%, 75.689697%, 69.799805%)" fill-opacity="0.302"><g transform="translate(47.292076, 35.039022)"><g><path d="M 10.609375 -12.96875 C 10.132812 -13.53125 9.554688 -13.976562 8.902344 -14.289062 C 8.234375 -14.585938 7.507812 -14.746094 6.734375 -14.746094 L 2.003906 -14.746094 C 1.898438 -14.746094 1.824219 -14.703125 1.796875 -14.613281 C 1.75 -14.523438 1.765625 -14.449219 1.839844 -14.375 C 2.105469 -14.078125 2.253906 -13.722656 2.253906 -13.324219 L 2.253906 -1.425781 C 2.253906 -1.007812 2.105469 -0.667969 1.839844 -0.371094 C 1.765625 -0.28125 1.75 -0.207031 1.796875 -0.117188 C 1.824219 -0.03125 1.898438 0 2.003906 0 L 5.355469 0 C 5.445312 0 5.519531 -0.03125 5.550781 -0.117188 C 5.578125 -0.207031 5.578125 -0.28125 5.519531 -0.371094 C 5.296875 -0.609375 5.191406 -0.875 5.191406 -1.171875 L 5.191406 -3.339844 C 5.191406 -3.488281 5.238281 -3.621094 5.355469 -3.738281 C 5.460938 -3.84375 5.59375 -3.902344 5.757812 -3.902344 L 6.734375 -3.902344 C 7.507812 -3.902344 8.234375 -4.050781 8.902344 -4.347656 C 9.554688 -4.644531 10.132812 -5.089844 10.609375 -5.667969 C 11.007812 -6.15625 11.320312 -6.722656 11.527344 -7.34375 C 11.734375 -7.96875 11.855469 -8.621094 11.855469 -9.300781 C 11.855469 -9.984375 11.734375 -10.652344 11.527344 -11.277344 C 11.320312 -11.898438 11.007812 -12.460938 10.609375 -12.96875 Z M 8.339844 -7.535156 C 7.96875 -7.0625 7.433594 -6.839844 6.734375 -6.839844 L 5.609375 -6.839844 C 5.488281 -6.839844 5.402344 -6.871094 5.3125 -6.957031 C 5.222656 -7.03125 5.191406 -7.121094 5.191406 -7.238281 L 5.191406 -11.394531 C 5.191406 -11.5 5.222656 -11.585938 5.3125 -11.675781 C 5.402344 -11.765625 5.488281 -11.808594 5.609375 -11.808594 L 6.734375 -11.808594 C 7.269531 -11.808594 7.671875 -11.691406 7.96875 -11.453125 C 8.265625 -11.214844 8.472656 -10.949219 8.621094 -10.652344 C 8.753906 -10.355469 8.84375 -10.074219 8.871094 -9.808594 C 8.902344 -9.539062 8.917969 -9.363281 8.917969 -9.300781 C 8.917969 -8.945312 8.855469 -8.621094 8.769531 -8.324219 C 8.664062 -8.027344 8.515625 -7.757812 8.339844 -7.535156 Z M 8.339844 -7.535156 "/></g></g></g><g fill="rgb(100%, 75.689697%, 69.799805%)" fill-opacity="0.502"><g transform="translate(14.660914, 35.502797)"><g><path d="M 16.066406 -1.246094 L 16.066406 -13.5 C 16.066406 -13.828125 16.171875 -14.125 16.410156 -14.375 C 16.46875 -14.449219 16.484375 -14.523438 16.453125 -14.613281 C 16.410156 -14.703125 16.351562 -14.746094 16.261719 -14.746094 L 13.128906 -14.746094 L 13.117188 -14.734375 L 13.117188 -14.746094 L 12.714844 -14.746094 C 12.609375 -14.746094 12.535156 -14.703125 12.507812 -14.613281 C 12.460938 -14.523438 12.460938 -14.449219 12.523438 -14.375 C 12.582031 -14.289062 12.566406 -14.226562 12.507812 -14.183594 L 9.449219 -11.363281 C 9.347656 -11.277344 9.226562 -11.246094 9.109375 -11.246094 C 8.992188 -11.246094 8.886719 -11.277344 8.796875 -11.363281 L 5.695312 -14.214844 C 5.636719 -14.257812 5.636719 -14.300781 5.695312 -14.363281 C 5.757812 -14.4375 5.769531 -14.523438 5.742188 -14.613281 C 5.695312 -14.703125 5.621094 -14.746094 5.519531 -14.746094 L 2.019531 -14.746094 C 1.914062 -14.746094 1.839844 -14.703125 1.808594 -14.613281 C 1.765625 -14.523438 1.765625 -14.449219 1.824219 -14.375 L 1.839844 -14.363281 C 2.0625 -14.109375 2.179688 -13.8125 2.179688 -13.488281 L 2.179688 -1.261719 C 2.179688 -0.917969 2.0625 -0.625 1.839844 -0.386719 L 1.824219 -0.371094 C 1.765625 -0.28125 1.765625 -0.207031 1.808594 -0.117188 C 1.839844 -0.03125 1.914062 0 2.019531 0 L 5.296875 0 C 5.386719 0 5.460938 -0.03125 5.503906 -0.117188 C 5.535156 -0.207031 5.535156 -0.28125 5.488281 -0.371094 L 5.460938 -0.402344 C 5.222656 -0.636719 5.117188 -0.933594 5.117188 -1.277344 L 5.117188 -10.265625 C 5.117188 -10.355469 5.148438 -10.414062 5.238281 -10.445312 C 5.328125 -10.472656 5.402344 -10.472656 5.476562 -10.414062 L 8.796875 -7.328125 C 8.886719 -7.238281 8.992188 -7.195312 9.125 -7.195312 C 9.242188 -7.195312 9.363281 -7.238281 9.449219 -7.328125 L 12.773438 -10.414062 C 12.832031 -10.472656 12.90625 -10.472656 12.996094 -10.445312 C 13.085938 -10.414062 13.128906 -10.355469 13.128906 -10.265625 L 13.128906 -1.289062 C 13.128906 -0.964844 13.011719 -0.667969 12.773438 -0.414062 L 12.746094 -0.371094 C 12.683594 -0.28125 12.683594 -0.207031 12.730469 -0.117188 C 12.757812 -0.03125 12.832031 0 12.9375 0 L 16.261719 0 C 16.351562 0 16.410156 -0.03125 16.453125 -0.117188 C 16.484375 -0.207031 16.46875 -0.28125 16.410156 -0.371094 C 16.171875 -0.609375 16.066406 -0.90625 16.066406 -1.246094 Z M 16.066406 -1.246094 "/></g></g></g><g fill="rgb(100%, 75.689697%, 69.799805%)" fill-opacity="0.502"><g transform="translate(32.896412, 35.502797)"><g><path d="M 13.5 -0.265625 C 13.5 -0.328125 13.472656 -0.371094 13.425781 -0.402344 C 13.085938 -0.683594 12.863281 -1.039062 12.746094 -1.484375 L 9.199219 -13.738281 C 9.125 -13.976562 9.167969 -14.199219 9.347656 -14.375 C 9.390625 -14.449219 9.390625 -14.523438 9.363281 -14.613281 C 9.316406 -14.703125 9.242188 -14.746094 9.152344 -14.746094 L 5.238281 -14.746094 C 5.148438 -14.746094 5.074219 -14.703125 5.03125 -14.613281 C 4.984375 -14.523438 4.984375 -14.449219 5.042969 -14.375 C 5.222656 -14.199219 5.265625 -13.976562 5.191406 -13.738281 L 1.660156 -1.46875 C 1.542969 -1.054688 1.304688 -0.699219 0.964844 -0.402344 C 0.917969 -0.355469 0.890625 -0.3125 0.890625 -0.265625 C 0.875 -0.191406 0.890625 -0.132812 0.933594 -0.0742188 C 0.980469 -0.015625 1.039062 0 1.128906 0 L 4.570312 0 C 4.660156 0 4.734375 -0.03125 4.761719 -0.117188 C 4.792969 -0.207031 4.792969 -0.28125 4.734375 -0.355469 C 4.554688 -0.535156 4.511719 -0.757812 4.570312 -0.992188 L 5.03125 -2.535156 C 5.074219 -2.699219 5.164062 -2.832031 5.296875 -2.921875 C 5.414062 -3.011719 5.5625 -3.070312 5.742188 -3.070312 L 8.664062 -3.070312 C 8.828125 -3.070312 8.976562 -3.011719 9.109375 -2.921875 C 9.226562 -2.832031 9.316406 -2.699219 9.375 -2.535156 L 9.820312 -0.992188 C 9.882812 -0.757812 9.820312 -0.550781 9.671875 -0.371094 L 9.671875 -0.355469 C 9.613281 -0.265625 9.613281 -0.191406 9.660156 -0.117188 C 9.6875 -0.03125 9.761719 0 9.867188 0 L 13.277344 0 C 13.351562 0 13.414062 -0.015625 13.457031 -0.0742188 C 13.5 -0.132812 13.515625 -0.191406 13.5 -0.265625 Z M 8.160156 -6.007812 L 6.246094 -6.007812 C 6.1875 -6.007812 6.140625 -6.023438 6.113281 -6.066406 C 6.066406 -6.113281 6.054688 -6.171875 6.082031 -6.230469 L 7.046875 -9.539062 C 7.0625 -9.613281 7.105469 -9.660156 7.195312 -9.660156 C 7.285156 -9.660156 7.328125 -9.613281 7.359375 -9.539062 L 8.308594 -6.230469 C 8.324219 -6.171875 8.308594 -6.113281 8.277344 -6.066406 C 8.25 -6.023438 8.203125 -6.007812 8.160156 -6.007812 Z M 8.160156 -6.007812 "/></g></g></g><g fill="rgb(100%, 75.689697%, 69.799805%)" fill-opacity="0.502"><g transform="translate(47.292076, 35.502797)"><g><path d="M 10.609375 -12.96875 C 10.132812 -13.53125 9.554688 -13.976562 8.902344 -14.289062 C 8.234375 -14.585938 7.507812 -14.746094 6.734375 -14.746094 L 2.003906 -14.746094 C 1.898438 -14.746094 1.824219 -14.703125 1.796875 -14.613281 C 1.75 -14.523438 1.765625 -14.449219 1.839844 -14.375 C 2.105469 -14.078125 2.253906 -13.722656 2.253906 -13.324219 L 2.253906 -1.425781 C 2.253906 -1.007812 2.105469 -0.667969 1.839844 -0.371094 C 1.765625 -0.28125 1.75 -0.207031 1.796875 -0.117188 C 1.824219 -0.03125 1.898438 0 2.003906 0 L 5.355469 0 C 5.445312 0 5.519531 -0.03125 5.550781 -0.117188 C 5.578125 -0.207031 5.578125 -0.28125 5.519531 -0.371094 C 5.296875 -0.609375 5.191406 -0.875 5.191406 -1.171875 L 5.191406 -3.339844 C 5.191406 -3.488281 5.238281 -3.621094 5.355469 -3.738281 C 5.460938 -3.84375 5.59375 -3.902344 5.757812 -3.902344 L 6.734375 -3.902344 C 7.507812 -3.902344 8.234375 -4.050781 8.902344 -4.347656 C 9.554688 -4.644531 10.132812 -5.089844 10.609375 -5.667969 C 11.007812 -6.15625 11.320312 -6.722656 11.527344 -7.34375 C 11.734375 -7.96875 11.855469 -8.621094 11.855469 -9.300781 C 11.855469 -9.984375 11.734375 -10.652344 11.527344 -11.277344 C 11.320312 -11.898438 11.007812 -12.460938 10.609375 -12.96875 Z M 8.339844 -7.535156 C 7.96875 -7.0625 7.433594 -6.839844 6.734375 -6.839844 L 5.609375 -6.839844 C 5.488281 -6.839844 5.402344 -6.871094 5.3125 -6.957031 C 5.222656 -7.03125 5.191406 -7.121094 5.191406 -7.238281 L 5.191406 -11.394531 C 5.191406 -11.5 5.222656 -11.585938 5.3125 -11.675781 C 5.402344 -11.765625 5.488281 -11.808594 5.609375 -11.808594 L 6.734375 -11.808594 C 7.269531 -11.808594 7.671875 -11.691406 7.96875 -11.453125 C 8.265625 -11.214844 8.472656 -10.949219 8.621094 -10.652344 C 8.753906 -10.355469 8.84375 -10.074219 8.871094 -9.808594 C 8.902344 -9.539062 8.917969 -9.363281 8.917969 -9.300781 C 8.917969 -8.945312 8.855469 -8.621094 8.769531 -8.324219 C 8.664062 -8.027344 8.515625 -7.757812 8.339844 -7.535156 Z M 8.339844 -7.535156 "/></g></g></g><g fill="rgb(0%, 0%, 0%)" fill-opacity="1"><g transform="translate(14.660914, 35.966572)"><g><path d="M 16.066406 -1.246094 L 16.066406 -13.5 C 16.066406 -13.828125 16.171875 -14.125 16.410156 -14.375 C 16.46875 -14.449219 16.484375 -14.523438 16.453125 -14.613281 C 16.410156 -14.703125 16.351562 -14.746094 16.261719 -14.746094 L 13.128906 -14.746094 L 13.117188 -14.734375 L 13.117188 -14.746094 L 12.714844 -14.746094 C 12.609375 -14.746094 12.535156 -14.703125 12.507812 -14.613281 C 12.460938 -14.523438 12.460938 -14.449219 12.523438 -14.375 C 12.582031 -14.289062 12.566406 -14.226562 12.507812 -14.183594 L 9.449219 -11.363281 C 9.347656 -11.277344 9.226562 -11.246094 9.109375 -11.246094 C 8.992188 -11.246094 8.886719 -11.277344 8.796875 -11.363281 L 5.695312 -14.214844 C 5.636719 -14.257812 5.636719 -14.300781 5.695312 -14.363281 C 5.757812 -14.4375 5.769531 -14.523438 5.742188 -14.613281 C 5.695312 -14.703125 5.621094 -14.746094 5.519531 -14.746094 L 2.019531 -14.746094 C 1.914062 -14.746094 1.839844 -14.703125 1.808594 -14.613281 C 1.765625 -14.523438 1.765625 -14.449219 1.824219 -14.375 L 1.839844 -14.363281 C 2.0625 -14.109375 2.179688 -13.8125 2.179688 -13.488281 L 2.179688 -1.261719 C 2.179688 -0.917969 2.0625 -0.625 1.839844 -0.386719 L 1.824219 -0.371094 C 1.765625 -0.28125 1.765625 -0.207031 1.808594 -0.117188 C 1.839844 -0.03125 1.914062 0 2.019531 0 L 5.296875 0 C 5.386719 0 5.460938 -0.03125 5.503906 -0.117188 C 5.535156 -0.207031 5.535156 -0.28125 5.488281 -0.371094 L 5.460938 -0.402344 C 5.222656 -0.636719 5.117188 -0.933594 5.117188 -1.277344 L 5.117188 -10.265625 C 5.117188 -10.355469 5.148438 -10.414062 5.238281 -10.445312 C 5.328125 -10.472656 5.402344 -10.472656 5.476562 -10.414062 L 8.796875 -7.328125 C 8.886719 -7.238281 8.992188 -7.195312 9.125 -7.195312 C 9.242188 -7.195312 9.363281 -7.238281 9.449219 -7.328125 L 12.773438 -10.414062 C 12.832031 -10.472656 12.90625 -10.472656 12.996094 -10.445312 C 13.085938 -10.414062 13.128906 -10.355469 13.128906 -10.265625 L 13.128906 -1.289062 C 13.128906 -0.964844 13.011719 -0.667969 12.773438 -0.414062 L 12.746094 -0.371094 C 12.683594 -0.28125 12.683594 -0.207031 12.730469 -0.117188 C 12.757812 -0.03125 12.832031 0 12.9375 0 L 16.261719 0 C 16.351562 0 16.410156 -0.03125 16.453125 -0.117188 C 16.484375 -0.207031 16.46875 -0.28125 16.410156 -0.371094 C 16.171875 -0.609375 16.066406 -0.90625 16.066406 -1.246094 Z M 16.066406 -1.246094 "/></g></g></g><g fill="rgb(0%, 0%, 0%)" fill-opacity="1"><g transform="translate(32.896412, 35.966572)"><g><path d="M 13.5 -0.265625 C 13.5 -0.328125 13.472656 -0.371094 13.425781 -0.402344 C 13.085938 -0.683594 12.863281 -1.039062 12.746094 -1.484375 L 9.199219 -13.738281 C 9.125 -13.976562 9.167969 -14.199219 9.347656 -14.375 C 9.390625 -14.449219 9.390625 -14.523438 9.363281 -14.613281 C 9.316406 -14.703125 9.242188 -14.746094 9.152344 -14.746094 L 5.238281 -14.746094 C 5.148438 -14.746094 5.074219 -14.703125 5.03125 -14.613281 C 4.984375 -14.523438 4.984375 -14.449219 5.042969 -14.375 C 5.222656 -14.199219 5.265625 -13.976562 5.191406 -13.738281 L 1.660156 -1.46875 C 1.542969 -1.054688 1.304688 -0.699219 0.964844 -0.402344 C 0.917969 -0.355469 0.890625 -0.3125 0.890625 -0.265625 C 0.875 -0.191406 0.890625 -0.132812 0.933594 -0.0742188 C 0.980469 -0.015625 1.039062 0 1.128906 0 L 4.570312 0 C 4.660156 0 4.734375 -0.03125 4.761719 -0.117188 C 4.792969 -0.207031 4.792969 -0.28125 4.734375 -0.355469 C 4.554688 -0.535156 4.511719 -0.757812 4.570312 -0.992188 L 5.03125 -2.535156 C 5.074219 -2.699219 5.164062 -2.832031 5.296875 -2.921875 C 5.414062 -3.011719 5.5625 -3.070312 5.742188 -3.070312 L 8.664062 -3.070312 C 8.828125 -3.070312 8.976562 -3.011719 9.109375 -2.921875 C 9.226562 -2.832031 9.316406 -2.699219 9.375 -2.535156 L 9.820312 -0.992188 C 9.882812 -0.757812 9.820312 -0.550781 9.671875 -0.371094 L 9.671875 -0.355469 C 9.613281 -0.265625 9.613281 -0.191406 9.660156 -0.117188 C 9.6875 -0.03125 9.761719 0 9.867188 0 L 13.277344 0 C 13.351562 0 13.414062 -0.015625 13.457031 -0.0742188 C 13.5 -0.132812 13.515625 -0.191406 13.5 -0.265625 Z M 8.160156 -6.007812 L 6.246094 -6.007812 C 6.1875 -6.007812 6.140625 -6.023438 6.113281 -6.066406 C 6.066406 -6.113281 6.054688 -6.171875 6.082031 -6.230469 L 7.046875 -9.539062 C 7.0625 -9.613281 7.105469 -9.660156 7.195312 -9.660156 C 7.285156 -9.660156 7.328125 -9.613281 7.359375 -9.539062 L 8.308594 -6.230469 C 8.324219 -6.171875 8.308594 -6.113281 8.277344 -6.066406 C 8.25 -6.023438 8.203125 -6.007812 8.160156 -6.007812 Z M 8.160156 -6.007812 "/></g></g></g><g fill="rgb(0%, 0%, 0%)" fill-opacity="1"><g transform="translate(47.292076, 35.966572)"><g><path d="M 10.609375 -12.96875 C 10.132812 -13.53125 9.554688 -13.976562 8.902344 -14.289062 C 8.234375 -14.585938 7.507812 -14.746094 6.734375 -14.746094 L 2.003906 -14.746094 C 1.898438 -14.746094 1.824219 -14.703125 1.796875 -14.613281 C 1.75 -14.523438 1.765625 -14.449219 1.839844 -14.375 C 2.105469 -14.078125 2.253906 -13.722656 2.253906 -13.324219 L 2.253906 -1.425781 C 2.253906 -1.007812 2.105469 -0.667969 1.839844 -0.371094 C 1.765625 -0.28125 1.75 -0.207031 1.796875 -0.117188 C 1.824219 -0.03125 1.898438 0 2.003906 0 L 5.355469 0 C 5.445312 0 5.519531 -0.03125 5.550781 -0.117188 C 5.578125 -0.207031 5.578125 -0.28125 5.519531 -0.371094 C 5.296875 -0.609375 5.191406 -0.875 5.191406 -1.171875 L 5.191406 -3.339844 C 5.191406 -3.488281 5.238281 -3.621094 5.355469 -3.738281 C 5.460938 -3.84375 5.59375 -3.902344 5.757812 -3.902344 L 6.734375 -3.902344 C 7.507812 -3.902344 8.234375 -4.050781 8.902344 -4.347656 C 9.554688 -4.644531 10.132812 -5.089844 10.609375 -5.667969 C 11.007812 -6.15625 11.320312 -6.722656 11.527344 -7.34375 C 11.734375 -7.96875 11.855469 -8.621094 11.855469 -9.300781 C 11.855469 -9.984375 11.734375 -10.652344 11.527344 -11.277344 C 11.320312 -11.898438 11.007812 -12.460938 10.609375 -12.96875 Z M 8.339844 -7.535156 C 7.96875 -7.0625 7.433594 -6.839844 6.734375 -6.839844 L 5.609375 -6.839844 C 5.488281 -6.839844 5.402344 -6.871094 5.3125 -6.957031 C 5.222656 -7.03125 5.191406 -7.121094 5.191406 -7.238281 L 5.191406 -11.394531 C 5.191406 -11.5 5.222656 -11.585938 5.3125 -11.675781 C 5.402344 -11.765625 5.488281 -11.808594 5.609375 -11.808594 L 6.734375 -11.808594 C 7.269531 -11.808594 7.671875 -11.691406 7.96875 -11.453125 C 8.265625 -11.214844 8.472656 -10.949219 8.621094 -10.652344 C 8.753906 -10.355469 8.84375 -10.074219 8.871094 -9.808594 C 8.902344 -9.539062 8.917969 -9.363281 8.917969 -9.300781 C 8.917969 -8.945312 8.855469 -8.621094 8.769531 -8.324219 C 8.664062 -8.027344 8.515625 -7.757812 8.339844 -7.535156 Z M 8.339844 -7.535156 "/></g></g></g></svg>