<svg xmlns="http://www.w3.org/2000/svg" xmlns:xlink="http://www.w3.org/1999/xlink" width="100" zoomAndPan="magnify" viewBox="0 0 75 37.5" height="50" preserveAspectRatio="xMidYMid meet" version="1.0"><defs><g/></defs><g fill="rgb(100%, 75.689697%, 69.799805%)" fill-opacity="0.302"><g transform="translate(2.014839, 26.851267)"><g><path d="M 12.234375 -11.132812 L 12.160156 -11.222656 C 11.953125 -11.429688 11.816406 -11.667969 11.730469 -11.9375 C 11.460938 -12.769531 10.910156 -13.457031 10.105469 -13.992188 C 9.660156 -14.273438 9.152344 -14.496094 8.589844 -14.644531 C 8.023438 -14.792969 7.441406 -14.871094 6.816406 -14.871094 C 6.191406 -14.871094 5.582031 -14.78125 5 -14.632812 C 4.421875 -14.480469 3.898438 -14.257812 3.4375 -13.976562 C 2.8125 -13.589844 2.351562 -13.128906 2.023438 -12.578125 C 1.695312 -12.027344 1.546875 -11.429688 1.546875 -10.777344 C 1.546875 -9.527344 2.128906 -8.453125 3.320312 -7.574219 C 3.734375 -7.25 4.183594 -6.980469 4.671875 -6.742188 C 5.164062 -6.503906 5.671875 -6.265625 6.175781 -6.058594 C 6.472656 -5.910156 6.800781 -5.761719 7.128906 -5.609375 C 7.457031 -5.460938 7.753906 -5.296875 8.023438 -5.148438 C 8.289062 -4.984375 8.515625 -4.824219 8.691406 -4.660156 C 8.871094 -4.480469 8.960938 -4.316406 8.960938 -4.152344 C 8.960938 -3.945312 8.886719 -3.75 8.738281 -3.601562 C 8.589844 -3.453125 8.394531 -3.320312 8.171875 -3.230469 C 7.949219 -3.140625 7.710938 -3.066406 7.441406 -3.019531 C 7.175781 -2.960938 6.9375 -2.945312 6.699219 -2.945312 C 6.398438 -2.945312 6.101562 -2.976562 5.773438 -3.050781 C 5.449219 -3.109375 5.164062 -3.230469 4.941406 -3.394531 C 4.882812 -3.4375 4.835938 -3.496094 4.835938 -3.570312 C 4.824219 -3.648438 4.835938 -3.707031 4.898438 -3.765625 L 4.910156 -3.78125 C 4.957031 -3.855469 4.957031 -3.929688 4.925781 -4.019531 C 4.882812 -4.109375 4.808594 -4.152344 4.71875 -4.152344 L 1.429688 -4.152344 C 1.324219 -4.152344 1.25 -4.109375 1.21875 -4.019531 C 1.175781 -3.929688 1.175781 -3.855469 1.234375 -3.78125 L 1.292969 -3.722656 C 1.503906 -3.484375 1.636719 -3.230469 1.726562 -2.976562 C 1.996094 -2.113281 2.53125 -1.429688 3.363281 -0.90625 C 3.808594 -0.609375 4.332031 -0.386719 4.898438 -0.238281 C 5.460938 -0.0742188 6.074219 0 6.699219 0 C 7.441406 0 8.140625 -0.105469 8.78125 -0.3125 C 9.421875 -0.519531 9.972656 -0.804688 10.433594 -1.175781 C 10.894531 -1.53125 11.253906 -1.980469 11.519531 -2.484375 C 11.773438 -2.992188 11.90625 -3.542969 11.90625 -4.152344 C 11.90625 -4.792969 11.757812 -5.359375 11.476562 -5.835938 C 11.191406 -6.3125 10.835938 -6.726562 10.390625 -7.085938 C 9.941406 -7.441406 9.464844 -7.738281 8.929688 -8.007812 C 8.394531 -8.277344 7.875 -8.515625 7.367188 -8.75 C 7.023438 -8.902344 6.683594 -9.050781 6.339844 -9.214844 C 6 -9.363281 5.6875 -9.527344 5.417969 -9.703125 C 5.148438 -9.867188 4.925781 -10.046875 4.746094 -10.226562 C 4.570312 -10.402344 4.496094 -10.582031 4.496094 -10.777344 C 4.496094 -10.941406 4.554688 -11.089844 4.703125 -11.238281 C 4.835938 -11.386719 5.015625 -11.503906 5.238281 -11.609375 C 5.449219 -11.699219 5.699219 -11.773438 5.984375 -11.832031 C 6.25 -11.890625 6.535156 -11.921875 6.816406 -11.921875 C 7.144531 -11.921875 7.472656 -11.878906 7.769531 -11.816406 C 8.066406 -11.742188 8.304688 -11.640625 8.515625 -11.503906 C 8.574219 -11.460938 8.617188 -11.402344 8.617188 -11.328125 C 8.617188 -11.253906 8.601562 -11.191406 8.558594 -11.148438 L 8.558594 -11.132812 C 8.5 -11.042969 8.5 -10.96875 8.542969 -10.894531 C 8.574219 -10.804688 8.648438 -10.777344 8.75 -10.777344 L 12.042969 -10.777344 C 12.128906 -10.777344 12.203125 -10.804688 12.25 -10.894531 C 12.28125 -10.96875 12.28125 -11.042969 12.234375 -11.132812 Z M 12.234375 -11.132812 "/></g></g></g><g fill="rgb(100%, 75.689697%, 69.799805%)" fill-opacity="0.302"><g transform="translate(15.485025, 26.851267)"><g><path d="M 11.652344 -15.167969 L 11.640625 -15.152344 C 11.371094 -14.914062 11.074219 -14.792969 10.730469 -14.792969 L 3.082031 -14.792969 C 2.722656 -14.792969 2.425781 -14.914062 2.15625 -15.152344 L 2.15625 -15.167969 C 2.070312 -15.210938 1.996094 -15.210938 1.90625 -15.167969 C 1.816406 -15.121094 1.785156 -15.0625 1.785156 -14.972656 L 1.785156 -11.667969 C 1.785156 -11.566406 1.816406 -11.492188 1.90625 -11.460938 C 1.996094 -11.417969 2.070312 -11.417969 2.15625 -11.476562 C 2.425781 -11.714844 2.722656 -11.847656 3.082031 -11.847656 L 5.136719 -11.847656 C 5.210938 -11.847656 5.285156 -11.816406 5.34375 -11.757812 C 5.402344 -11.699219 5.433594 -11.625 5.433594 -11.550781 L 5.433594 -1.308594 C 5.433594 -0.953125 5.3125 -0.640625 5.074219 -0.386719 L 5.0625 -0.371094 C 5 -0.28125 5 -0.207031 5.046875 -0.117188 C 5.074219 -0.03125 5.148438 0 5.253906 0 L 8.558594 0 C 8.648438 0 8.707031 -0.03125 8.75 -0.117188 C 8.796875 -0.207031 8.796875 -0.28125 8.75 -0.371094 C 8.5 -0.640625 8.378906 -0.9375 8.378906 -1.292969 L 8.378906 -11.550781 C 8.378906 -11.625 8.410156 -11.699219 8.46875 -11.757812 C 8.527344 -11.816406 8.589844 -11.847656 8.675781 -11.847656 L 10.730469 -11.847656 C 11.089844 -11.847656 11.386719 -11.714844 11.640625 -11.476562 L 11.652344 -11.476562 C 11.730469 -11.417969 11.804688 -11.417969 11.890625 -11.460938 C 11.980469 -11.492188 12.027344 -11.566406 12.027344 -11.667969 L 12.027344 -14.972656 C 12.027344 -15.0625 11.980469 -15.121094 11.890625 -15.167969 C 11.804688 -15.210938 11.730469 -15.210938 11.652344 -15.167969 Z M 11.652344 -15.167969 "/></g></g></g><g fill="rgb(100%, 75.689697%, 69.799805%)" fill-opacity="0.302"><g transform="translate(29.297547, 26.851267)"><g><path d="M 13.542969 -0.269531 C 13.542969 -0.328125 13.515625 -0.371094 13.46875 -0.402344 C 13.128906 -0.683594 12.90625 -1.042969 12.785156 -1.488281 L 9.226562 -13.78125 C 9.152344 -14.019531 9.199219 -14.242188 9.378906 -14.421875 C 9.421875 -14.496094 9.421875 -14.570312 9.390625 -14.660156 C 9.347656 -14.75 9.273438 -14.792969 9.183594 -14.792969 L 5.253906 -14.792969 C 5.164062 -14.792969 5.089844 -14.75 5.046875 -14.660156 C 5 -14.570312 5 -14.496094 5.0625 -14.421875 C 5.238281 -14.242188 5.285156 -14.019531 5.210938 -13.78125 L 1.667969 -1.472656 C 1.546875 -1.058594 1.308594 -0.699219 0.96875 -0.402344 C 0.921875 -0.355469 0.894531 -0.3125 0.894531 -0.269531 C 0.878906 -0.195312 0.894531 -0.132812 0.9375 -0.0742188 C 0.980469 -0.015625 1.042969 0 1.132812 0 L 4.585938 0 C 4.671875 0 4.746094 -0.03125 4.777344 -0.117188 C 4.808594 -0.207031 4.808594 -0.28125 4.746094 -0.355469 C 4.570312 -0.535156 4.523438 -0.757812 4.585938 -0.996094 L 5.046875 -2.546875 C 5.089844 -2.707031 5.179688 -2.84375 5.3125 -2.933594 C 5.433594 -3.019531 5.582031 -3.082031 5.761719 -3.082031 L 8.691406 -3.082031 C 8.855469 -3.082031 9.003906 -3.019531 9.140625 -2.933594 C 9.257812 -2.84375 9.347656 -2.707031 9.40625 -2.546875 L 9.851562 -0.996094 C 9.914062 -0.757812 9.851562 -0.550781 9.703125 -0.371094 L 9.703125 -0.355469 C 9.644531 -0.269531 9.644531 -0.195312 9.691406 -0.117188 C 9.71875 -0.03125 9.792969 0 9.898438 0 L 13.320312 0 C 13.394531 0 13.457031 -0.015625 13.5 -0.0742188 C 13.542969 -0.132812 13.558594 -0.195312 13.542969 -0.269531 Z M 8.1875 -6.027344 L 6.265625 -6.027344 C 6.207031 -6.027344 6.160156 -6.042969 6.132812 -6.085938 C 6.085938 -6.132812 6.074219 -6.191406 6.101562 -6.25 L 7.070312 -9.570312 C 7.085938 -9.644531 7.128906 -9.691406 7.21875 -9.691406 C 7.308594 -9.691406 7.351562 -9.644531 7.382812 -9.570312 L 8.335938 -6.25 C 8.351562 -6.191406 8.335938 -6.132812 8.304688 -6.085938 C 8.277344 -6.042969 8.230469 -6.027344 8.1875 -6.027344 Z M 8.1875 -6.027344 "/></g></g></g><g fill="rgb(100%, 75.689697%, 69.799805%)" fill-opacity="0.302"><g transform="translate(43.750092, 26.851267)"><g><path d="M 12.742188 -0.417969 L 12.457031 -0.640625 C 12.25 -0.773438 12.070312 -0.953125 11.921875 -1.191406 L 7.769531 -7.070312 C 7.679688 -7.160156 7.652344 -7.277344 7.652344 -7.398438 C 7.652344 -7.515625 7.679688 -7.621094 7.769531 -7.726562 L 11.921875 -13.617188 C 12.070312 -13.8125 12.25 -14.007812 12.472656 -14.183594 L 12.742188 -14.378906 C 12.828125 -14.453125 12.859375 -14.554688 12.816406 -14.675781 C 12.753906 -14.75 12.679688 -14.792969 12.605469 -14.792969 L 8.738281 -14.792969 C 8.632812 -14.792969 8.558594 -14.75 8.527344 -14.660156 C 8.484375 -14.570312 8.484375 -14.496094 8.542969 -14.421875 L 8.558594 -14.40625 C 8.648438 -14.289062 8.664062 -14.167969 8.589844 -14.050781 L 5.640625 -9.851562 C 5.550781 -9.75 5.460938 -9.71875 5.34375 -9.75 C 5.222656 -9.777344 5.179688 -9.867188 5.179688 -10.003906 L 5.179688 -13.589844 C 5.179688 -13.886719 5.285156 -14.167969 5.507812 -14.40625 C 5.566406 -14.480469 5.582031 -14.570312 5.550781 -14.660156 C 5.507812 -14.75 5.433594 -14.792969 5.34375 -14.792969 L 2.007812 -14.792969 C 1.90625 -14.792969 1.832031 -14.75 1.800781 -14.660156 C 1.757812 -14.570312 1.769531 -14.496094 1.84375 -14.421875 C 2.097656 -14.140625 2.234375 -13.8125 2.234375 -13.425781 L 2.234375 -1.292969 C 2.234375 -0.953125 2.113281 -0.65625 1.890625 -0.417969 L 1.84375 -0.371094 C 1.785156 -0.28125 1.785156 -0.207031 1.832031 -0.117188 C 1.859375 -0.03125 1.933594 0 2.039062 0 L 5.375 0 C 5.460938 0 5.535156 -0.0429688 5.566406 -0.132812 C 5.597656 -0.222656 5.597656 -0.296875 5.535156 -0.371094 C 5.296875 -0.625 5.179688 -0.921875 5.179688 -1.25 L 5.179688 -4.808594 C 5.179688 -4.925781 5.222656 -5 5.34375 -5.046875 C 5.460938 -5.074219 5.550781 -5.046875 5.640625 -4.941406 L 8.589844 -0.757812 C 8.664062 -0.609375 8.648438 -0.492188 8.558594 -0.402344 L 8.542969 -0.371094 C 8.484375 -0.28125 8.484375 -0.207031 8.527344 -0.117188 C 8.558594 -0.03125 8.632812 0 8.738281 0 L 12.605469 0 C 12.695312 0 12.753906 -0.0429688 12.816406 -0.132812 C 12.828125 -0.179688 12.828125 -0.222656 12.828125 -0.28125 C 12.816406 -0.34375 12.785156 -0.386719 12.742188 -0.417969 Z M 12.742188 -0.417969 "/></g></g></g><g fill="rgb(100%, 75.689697%, 69.799805%)" fill-opacity="0.302"><g transform="translate(58.381243, 26.851267)"><g><path d="M 10.835938 -14.898438 C 10.582031 -14.660156 10.285156 -14.554688 9.957031 -14.554688 L 2.023438 -14.554688 C 1.921875 -14.554688 1.84375 -14.511719 1.816406 -14.421875 C 1.769531 -14.332031 1.769531 -14.257812 1.832031 -14.183594 L 1.875 -14.140625 C 2.113281 -13.871094 2.234375 -13.558594 2.234375 -13.203125 L 2.234375 -1.117188 C 2.234375 -0.9375 2.203125 -0.773438 2.144531 -0.609375 C 2.082031 -0.445312 1.996094 -0.296875 1.875 -0.179688 L 1.832031 -0.132812 C 1.769531 -0.0429688 1.769531 0.03125 1.816406 0.117188 C 1.84375 0.207031 1.921875 0.238281 2.023438 0.238281 L 9.957031 0.238281 C 10.285156 0.238281 10.582031 0.355469 10.835938 0.582031 C 10.910156 0.65625 11 0.667969 11.089844 0.625 C 11.179688 0.59375 11.238281 0.519531 11.238281 0.402344 L 11.238281 -2.917969 C 11.238281 -3.007812 11.191406 -3.082031 11.105469 -3.125 C 11.015625 -3.15625 10.925781 -3.140625 10.867188 -3.082031 C 10.597656 -2.828125 10.285156 -2.707031 9.925781 -2.707031 L 5.550781 -2.707031 C 5.449219 -2.707031 5.359375 -2.738281 5.285156 -2.8125 C 5.210938 -2.871094 5.179688 -2.960938 5.179688 -3.082031 L 5.179688 -5.3125 C 5.179688 -5.417969 5.210938 -5.507812 5.285156 -5.582031 C 5.359375 -5.640625 5.449219 -5.6875 5.550781 -5.6875 L 6.863281 -5.6875 C 7.21875 -5.6875 7.53125 -5.550781 7.800781 -5.3125 C 7.875 -5.253906 7.949219 -5.253906 8.039062 -5.296875 C 8.125 -5.34375 8.171875 -5.417969 8.171875 -5.507812 L 8.171875 -8.8125 C 8.171875 -8.902344 8.125 -8.960938 8.039062 -9.003906 C 7.949219 -9.050781 7.875 -9.050781 7.800781 -9.003906 C 7.53125 -8.75 7.21875 -8.632812 6.863281 -8.632812 L 5.550781 -8.632812 C 5.449219 -8.632812 5.359375 -8.664062 5.285156 -8.738281 C 5.210938 -8.796875 5.179688 -8.886719 5.179688 -9.003906 L 5.179688 -11.238281 C 5.179688 -11.339844 5.210938 -11.429688 5.285156 -11.503906 C 5.359375 -11.566406 5.449219 -11.609375 5.550781 -11.609375 L 9.925781 -11.609375 C 10.285156 -11.609375 10.597656 -11.476562 10.867188 -11.238281 C 10.925781 -11.164062 11.015625 -11.148438 11.105469 -11.191406 C 11.191406 -11.222656 11.238281 -11.296875 11.238281 -11.402344 L 11.238281 -14.734375 C 11.238281 -14.824219 11.179688 -14.898438 11.089844 -14.945312 C 11 -14.972656 10.910156 -14.957031 10.835938 -14.898438 Z M 10.835938 -14.898438 "/></g></g></g><g fill="rgb(100%, 75.689697%, 69.799805%)" fill-opacity="0.502"><g transform="translate(2.408739, 27.018467)"><g><path d="M 12.234375 -11.132812 L 12.160156 -11.222656 C 11.953125 -11.429688 11.816406 -11.667969 11.730469 -11.9375 C 11.460938 -12.769531 10.910156 -13.457031 10.105469 -13.992188 C 9.660156 -14.273438 9.152344 -14.496094 8.589844 -14.644531 C 8.023438 -14.792969 7.441406 -14.871094 6.816406 -14.871094 C 6.191406 -14.871094 5.582031 -14.78125 5 -14.632812 C 4.421875 -14.480469 3.898438 -14.257812 3.4375 -13.976562 C 2.8125 -13.589844 2.351562 -13.128906 2.023438 -12.578125 C 1.695312 -12.027344 1.546875 -11.429688 1.546875 -10.777344 C 1.546875 -9.527344 2.128906 -8.453125 3.320312 -7.574219 C 3.734375 -7.25 4.183594 -6.980469 4.671875 -6.742188 C 5.164062 -6.503906 5.671875 -6.265625 6.175781 -6.058594 C 6.472656 -5.910156 6.800781 -5.761719 7.128906 -5.609375 C 7.457031 -5.460938 7.753906 -5.296875 8.023438 -5.148438 C 8.289062 -4.984375 8.515625 -4.824219 8.691406 -4.660156 C 8.871094 -4.480469 8.960938 -4.316406 8.960938 -4.152344 C 8.960938 -3.945312 8.886719 -3.75 8.738281 -3.601562 C 8.589844 -3.453125 8.394531 -3.320312 8.171875 -3.230469 C 7.949219 -3.140625 7.710938 -3.066406 7.441406 -3.019531 C 7.175781 -2.960938 6.9375 -2.945312 6.699219 -2.945312 C 6.398438 -2.945312 6.101562 -2.976562 5.773438 -3.050781 C 5.449219 -3.109375 5.164062 -3.230469 4.941406 -3.394531 C 4.882812 -3.4375 4.835938 -3.496094 4.835938 -3.570312 C 4.824219 -3.648438 4.835938 -3.707031 4.898438 -3.765625 L 4.910156 -3.78125 C 4.957031 -3.855469 4.957031 -3.929688 4.925781 -4.019531 C 4.882812 -4.109375 4.808594 -4.152344 4.71875 -4.152344 L 1.429688 -4.152344 C 1.324219 -4.152344 1.25 -4.109375 1.21875 -4.019531 C 1.175781 -3.929688 1.175781 -3.855469 1.234375 -3.78125 L 1.292969 -3.722656 C 1.503906 -3.484375 1.636719 -3.230469 1.726562 -2.976562 C 1.996094 -2.113281 2.53125 -1.429688 3.363281 -0.90625 C 3.808594 -0.609375 4.332031 -0.386719 4.898438 -0.238281 C 5.460938 -0.0742188 6.074219 0 6.699219 0 C 7.441406 0 8.140625 -0.105469 8.78125 -0.3125 C 9.421875 -0.519531 9.972656 -0.804688 10.433594 -1.175781 C 10.894531 -1.53125 11.253906 -1.980469 11.519531 -2.484375 C 11.773438 -2.992188 11.90625 -3.542969 11.90625 -4.152344 C 11.90625 -4.792969 11.757812 -5.359375 11.476562 -5.835938 C 11.191406 -6.3125 10.835938 -6.726562 10.390625 -7.085938 C 9.941406 -7.441406 9.464844 -7.738281 8.929688 -8.007812 C 8.394531 -8.277344 7.875 -8.515625 7.367188 -8.75 C 7.023438 -8.902344 6.683594 -9.050781 6.339844 -9.214844 C 6 -9.363281 5.6875 -9.527344 5.417969 -9.703125 C 5.148438 -9.867188 4.925781 -10.046875 4.746094 -10.226562 C 4.570312 -10.402344 4.496094 -10.582031 4.496094 -10.777344 C 4.496094 -10.941406 4.554688 -11.089844 4.703125 -11.238281 C 4.835938 -11.386719 5.015625 -11.503906 5.238281 -11.609375 C 5.449219 -11.699219 5.699219 -11.773438 5.984375 -11.832031 C 6.25 -11.890625 6.535156 -11.921875 6.816406 -11.921875 C 7.144531 -11.921875 7.472656 -11.878906 7.769531 -11.816406 C 8.066406 -11.742188 8.304688 -11.640625 8.515625 -11.503906 C 8.574219 -11.460938 8.617188 -11.402344 8.617188 -11.328125 C 8.617188 -11.253906 8.601562 -11.191406 8.558594 -11.148438 L 8.558594 -11.132812 C 8.5 -11.042969 8.5 -10.96875 8.542969 -10.894531 C 8.574219 -10.804688 8.648438 -10.777344 8.75 -10.777344 L 12.042969 -10.777344 C 12.128906 -10.777344 12.203125 -10.804688 12.25 -10.894531 C 12.28125 -10.96875 12.28125 -11.042969 12.234375 -11.132812 Z M 12.234375 -11.132812 "/></g></g></g><g fill="rgb(100%, 75.689697%, 69.799805%)" fill-opacity="0.502"><g transform="translate(15.878926, 27.018467)"><g><path d="M 11.652344 -15.167969 L 11.640625 -15.152344 C 11.371094 -14.914062 11.074219 -14.792969 10.730469 -14.792969 L 3.082031 -14.792969 C 2.722656 -14.792969 2.425781 -14.914062 2.15625 -15.152344 L 2.15625 -15.167969 C 2.070312 -15.210938 1.996094 -15.210938 1.90625 -15.167969 C 1.816406 -15.121094 1.785156 -15.0625 1.785156 -14.972656 L 1.785156 -11.667969 C 1.785156 -11.566406 1.816406 -11.492188 1.90625 -11.460938 C 1.996094 -11.417969 2.070312 -11.417969 2.15625 -11.476562 C 2.425781 -11.714844 2.722656 -11.847656 3.082031 -11.847656 L 5.136719 -11.847656 C 5.210938 -11.847656 5.285156 -11.816406 5.34375 -11.757812 C 5.402344 -11.699219 5.433594 -11.625 5.433594 -11.550781 L 5.433594 -1.308594 C 5.433594 -0.953125 5.3125 -0.640625 5.074219 -0.386719 L 5.0625 -0.371094 C 5 -0.28125 5 -0.207031 5.046875 -0.117188 C 5.074219 -0.03125 5.148438 0 5.253906 0 L 8.558594 0 C 8.648438 0 8.707031 -0.03125 8.75 -0.117188 C 8.796875 -0.207031 8.796875 -0.28125 8.75 -0.371094 C 8.5 -0.640625 8.378906 -0.9375 8.378906 -1.292969 L 8.378906 -11.550781 C 8.378906 -11.625 8.410156 -11.699219 8.46875 -11.757812 C 8.527344 -11.816406 8.589844 -11.847656 8.675781 -11.847656 L 10.730469 -11.847656 C 11.089844 -11.847656 11.386719 -11.714844 11.640625 -11.476562 L 11.652344 -11.476562 C 11.730469 -11.417969 11.804688 -11.417969 11.890625 -11.460938 C 11.980469 -11.492188 12.027344 -11.566406 12.027344 -11.667969 L 12.027344 -14.972656 C 12.027344 -15.0625 11.980469 -15.121094 11.890625 -15.167969 C 11.804688 -15.210938 11.730469 -15.210938 11.652344 -15.167969 Z M 11.652344 -15.167969 "/></g></g></g><g fill="rgb(100%, 75.689697%, 69.799805%)" fill-opacity="0.502"><g transform="translate(29.691448, 27.018467)"><g><path d="M 13.542969 -0.269531 C 13.542969 -0.328125 13.515625 -0.371094 13.46875 -0.402344 C 13.128906 -0.683594 12.90625 -1.042969 12.785156 -1.488281 L 9.226562 -13.78125 C 9.152344 -14.019531 9.199219 -14.242188 9.378906 -14.421875 C 9.421875 -14.496094 9.421875 -14.570312 9.390625 -14.660156 C 9.347656 -14.75 9.273438 -14.792969 9.183594 -14.792969 L 5.253906 -14.792969 C 5.164062 -14.792969 5.089844 -14.75 5.046875 -14.660156 C 5 -14.570312 5 -14.496094 5.0625 -14.421875 C 5.238281 -14.242188 5.285156 -14.019531 5.210938 -13.78125 L 1.667969 -1.472656 C 1.546875 -1.058594 1.308594 -0.699219 0.96875 -0.402344 C 0.921875 -0.355469 0.894531 -0.3125 0.894531 -0.269531 C 0.878906 -0.195312 0.894531 -0.132812 0.9375 -0.0742188 C 0.980469 -0.015625 1.042969 0 1.132812 0 L 4.585938 0 C 4.671875 0 4.746094 -0.03125 4.777344 -0.117188 C 4.808594 -0.207031 4.808594 -0.28125 4.746094 -0.355469 C 4.570312 -0.535156 4.523438 -0.757812 4.585938 -0.996094 L 5.046875 -2.546875 C 5.089844 -2.707031 5.179688 -2.84375 5.3125 -2.933594 C 5.433594 -3.019531 5.582031 -3.082031 5.761719 -3.082031 L 8.691406 -3.082031 C 8.855469 -3.082031 9.003906 -3.019531 9.140625 -2.933594 C 9.257812 -2.84375 9.347656 -2.707031 9.40625 -2.546875 L 9.851562 -0.996094 C 9.914062 -0.757812 9.851562 -0.550781 9.703125 -0.371094 L 9.703125 -0.355469 C 9.644531 -0.269531 9.644531 -0.195312 9.691406 -0.117188 C 9.71875 -0.03125 9.792969 0 9.898438 0 L 13.320312 0 C 13.394531 0 13.457031 -0.015625 13.5 -0.0742188 C 13.542969 -0.132812 13.558594 -0.195312 13.542969 -0.269531 Z M 8.1875 -6.027344 L 6.265625 -6.027344 C 6.207031 -6.027344 6.160156 -6.042969 6.132812 -6.085938 C 6.085938 -6.132812 6.074219 -6.191406 6.101562 -6.25 L 7.070312 -9.570312 C 7.085938 -9.644531 7.128906 -9.691406 7.21875 -9.691406 C 7.308594 -9.691406 7.351562 -9.644531 7.382812 -9.570312 L 8.335938 -6.25 C 8.351562 -6.191406 8.335938 -6.132812 8.304688 -6.085938 C 8.277344 -6.042969 8.230469 -6.027344 8.1875 -6.027344 Z M 8.1875 -6.027344 "/></g></g></g><g fill="rgb(100%, 75.689697%, 69.799805%)" fill-opacity="0.502"><g transform="translate(44.143993, 27.018467)"><g><path d="M 12.742188 -0.417969 L 12.457031 -0.640625 C 12.25 -0.773438 12.070312 -0.953125 11.921875 -1.191406 L 7.769531 -7.070312 C 7.679688 -7.160156 7.652344 -7.277344 7.652344 -7.398438 C 7.652344 -7.515625 7.679688 -7.621094 7.769531 -7.726562 L 11.921875 -13.617188 C 12.070312 -13.8125 12.25 -14.007812 12.472656 -14.183594 L 12.742188 -14.378906 C 12.828125 -14.453125 12.859375 -14.554688 12.816406 -14.675781 C 12.753906 -14.75 12.679688 -14.792969 12.605469 -14.792969 L 8.738281 -14.792969 C 8.632812 -14.792969 8.558594 -14.75 8.527344 -14.660156 C 8.484375 -14.570312 8.484375 -14.496094 8.542969 -14.421875 L 8.558594 -14.40625 C 8.648438 -14.289062 8.664062 -14.167969 8.589844 -14.050781 L 5.640625 -9.851562 C 5.550781 -9.75 5.460938 -9.71875 5.34375 -9.75 C 5.222656 -9.777344 5.179688 -9.867188 5.179688 -10.003906 L 5.179688 -13.589844 C 5.179688 -13.886719 5.285156 -14.167969 5.507812 -14.40625 C 5.566406 -14.480469 5.582031 -14.570312 5.550781 -14.660156 C 5.507812 -14.75 5.433594 -14.792969 5.34375 -14.792969 L 2.007812 -14.792969 C 1.90625 -14.792969 1.832031 -14.75 1.800781 -14.660156 C 1.757812 -14.570312 1.769531 -14.496094 1.84375 -14.421875 C 2.097656 -14.140625 2.234375 -13.8125 2.234375 -13.425781 L 2.234375 -1.292969 C 2.234375 -0.953125 2.113281 -0.65625 1.890625 -0.417969 L 1.84375 -0.371094 C 1.785156 -0.28125 1.785156 -0.207031 1.832031 -0.117188 C 1.859375 -0.03125 1.933594 0 2.039062 0 L 5.375 0 C 5.460938 0 5.535156 -0.0429688 5.566406 -0.132812 C 5.597656 -0.222656 5.597656 -0.296875 5.535156 -0.371094 C 5.296875 -0.625 5.179688 -0.921875 5.179688 -1.25 L 5.179688 -4.808594 C 5.179688 -4.925781 5.222656 -5 5.34375 -5.046875 C 5.460938 -5.074219 5.550781 -5.046875 5.640625 -4.941406 L 8.589844 -0.757812 C 8.664062 -0.609375 8.648438 -0.492188 8.558594 -0.402344 L 8.542969 -0.371094 C 8.484375 -0.28125 8.484375 -0.207031 8.527344 -0.117188 C 8.558594 -0.03125 8.632812 0 8.738281 0 L 12.605469 0 C 12.695312 0 12.753906 -0.0429688 12.816406 -0.132812 C 12.828125 -0.179688 12.828125 -0.222656 12.828125 -0.28125 C 12.816406 -0.34375 12.785156 -0.386719 12.742188 -0.417969 Z M 12.742188 -0.417969 "/></g></g></g><g fill="rgb(100%, 75.689697%, 69.799805%)" fill-opacity="0.502"><g transform="translate(58.775143, 27.018467)"><g><path d="M 10.835938 -14.898438 C 10.582031 -14.660156 10.285156 -14.554688 9.957031 -14.554688 L 2.023438 -14.554688 C 1.921875 -14.554688 1.84375 -14.511719 1.816406 -14.421875 C 1.769531 -14.332031 1.769531 -14.257812 1.832031 -14.183594 L 1.875 -14.140625 C 2.113281 -13.871094 2.234375 -13.558594 2.234375 -13.203125 L 2.234375 -1.117188 C 2.234375 -0.9375 2.203125 -0.773438 2.144531 -0.609375 C 2.082031 -0.445312 1.996094 -0.296875 1.875 -0.179688 L 1.832031 -0.132812 C 1.769531 -0.0429688 1.769531 0.03125 1.816406 0.117188 C 1.84375 0.207031 1.921875 0.238281 2.023438 0.238281 L 9.957031 0.238281 C 10.285156 0.238281 10.582031 0.355469 10.835938 0.582031 C 10.910156 0.65625 11 0.667969 11.089844 0.625 C 11.179688 0.59375 11.238281 0.519531 11.238281 0.402344 L 11.238281 -2.917969 C 11.238281 -3.007812 11.191406 -3.082031 11.105469 -3.125 C 11.015625 -3.15625 10.925781 -3.140625 10.867188 -3.082031 C 10.597656 -2.828125 10.285156 -2.707031 9.925781 -2.707031 L 5.550781 -2.707031 C 5.449219 -2.707031 5.359375 -2.738281 5.285156 -2.8125 C 5.210938 -2.871094 5.179688 -2.960938 5.179688 -3.082031 L 5.179688 -5.3125 C 5.179688 -5.417969 5.210938 -5.507812 5.285156 -5.582031 C 5.359375 -5.640625 5.449219 -5.6875 5.550781 -5.6875 L 6.863281 -5.6875 C 7.21875 -5.6875 7.53125 -5.550781 7.800781 -5.3125 C 7.875 -5.253906 7.949219 -5.253906 8.039062 -5.296875 C 8.125 -5.34375 8.171875 -5.417969 8.171875 -5.507812 L 8.171875 -8.8125 C 8.171875 -8.902344 8.125 -8.960938 8.039062 -9.003906 C 7.949219 -9.050781 7.875 -9.050781 7.800781 -9.003906 C 7.53125 -8.75 7.21875 -8.632812 6.863281 -8.632812 L 5.550781 -8.632812 C 5.449219 -8.632812 5.359375 -8.664062 5.285156 -8.738281 C 5.210938 -8.796875 5.179688 -8.886719 5.179688 -9.003906 L 5.179688 -11.238281 C 5.179688 -11.339844 5.210938 -11.429688 5.285156 -11.503906 C 5.359375 -11.566406 5.449219 -11.609375 5.550781 -11.609375 L 9.925781 -11.609375 C 10.285156 -11.609375 10.597656 -11.476562 10.867188 -11.238281 C 10.925781 -11.164062 11.015625 -11.148438 11.105469 -11.191406 C 11.191406 -11.222656 11.238281 -11.296875 11.238281 -11.402344 L 11.238281 -14.734375 C 11.238281 -14.824219 11.179688 -14.898438 11.089844 -14.945312 C 11 -14.972656 10.910156 -14.957031 10.835938 -14.898438 Z M 10.835938 -14.898438 "/></g></g></g><g fill="rgb(0%, 0%, 0%)" fill-opacity="1"><g transform="translate(2.802639, 27.185668)"><g><path d="M 12.234375 -11.132812 L 12.160156 -11.222656 C 11.953125 -11.429688 11.816406 -11.667969 11.730469 -11.9375 C 11.460938 -12.769531 10.910156 -13.457031 10.105469 -13.992188 C 9.660156 -14.273438 9.152344 -14.496094 8.589844 -14.644531 C 8.023438 -14.792969 7.441406 -14.871094 6.816406 -14.871094 C 6.191406 -14.871094 5.582031 -14.78125 5 -14.632812 C 4.421875 -14.480469 3.898438 -14.257812 3.4375 -13.976562 C 2.8125 -13.589844 2.351562 -13.128906 2.023438 -12.578125 C 1.695312 -12.027344 1.546875 -11.429688 1.546875 -10.777344 C 1.546875 -9.527344 2.128906 -8.453125 3.320312 -7.574219 C 3.734375 -7.25 4.183594 -6.980469 4.671875 -6.742188 C 5.164062 -6.503906 5.671875 -6.265625 6.175781 -6.058594 C 6.472656 -5.910156 6.800781 -5.761719 7.128906 -5.609375 C 7.457031 -5.460938 7.753906 -5.296875 8.023438 -5.148438 C 8.289062 -4.984375 8.515625 -4.824219 8.691406 -4.660156 C 8.871094 -4.480469 8.960938 -4.316406 8.960938 -4.152344 C 8.960938 -3.945312 8.886719 -3.75 8.738281 -3.601562 C 8.589844 -3.453125 8.394531 -3.320312 8.171875 -3.230469 C 7.949219 -3.140625 7.710938 -3.066406 7.441406 -3.019531 C 7.175781 -2.960938 6.9375 -2.945312 6.699219 -2.945312 C 6.398438 -2.945312 6.101562 -2.976562 5.773438 -3.050781 C 5.449219 -3.109375 5.164062 -3.230469 4.941406 -3.394531 C 4.882812 -3.4375 4.835938 -3.496094 4.835938 -3.570312 C 4.824219 -3.648438 4.835938 -3.707031 4.898438 -3.765625 L 4.910156 -3.78125 C 4.957031 -3.855469 4.957031 -3.929688 4.925781 -4.019531 C 4.882812 -4.109375 4.808594 -4.152344 4.71875 -4.152344 L 1.429688 -4.152344 C 1.324219 -4.152344 1.25 -4.109375 1.21875 -4.019531 C 1.175781 -3.929688 1.175781 -3.855469 1.234375 -3.78125 L 1.292969 -3.722656 C 1.503906 -3.484375 1.636719 -3.230469 1.726562 -2.976562 C 1.996094 -2.113281 2.53125 -1.429688 3.363281 -0.90625 C 3.808594 -0.609375 4.332031 -0.386719 4.898438 -0.238281 C 5.460938 -0.0742188 6.074219 0 6.699219 0 C 7.441406 0 8.140625 -0.105469 8.78125 -0.3125 C 9.421875 -0.519531 9.972656 -0.804688 10.433594 -1.175781 C 10.894531 -1.53125 11.253906 -1.980469 11.519531 -2.484375 C 11.773438 -2.992188 11.90625 -3.542969 11.90625 -4.152344 C 11.90625 -4.792969 11.757812 -5.359375 11.476562 -5.835938 C 11.191406 -6.3125 10.835938 -6.726562 10.390625 -7.085938 C 9.941406 -7.441406 9.464844 -7.738281 8.929688 -8.007812 C 8.394531 -8.277344 7.875 -8.515625 7.367188 -8.75 C 7.023438 -8.902344 6.683594 -9.050781 6.339844 -9.214844 C 6 -9.363281 5.6875 -9.527344 5.417969 -9.703125 C 5.148438 -9.867188 4.925781 -10.046875 4.746094 -10.226562 C 4.570312 -10.402344 4.496094 -10.582031 4.496094 -10.777344 C 4.496094 -10.941406 4.554688 -11.089844 4.703125 -11.238281 C 4.835938 -11.386719 5.015625 -11.503906 5.238281 -11.609375 C 5.449219 -11.699219 5.699219 -11.773438 5.984375 -11.832031 C 6.25 -11.890625 6.535156 -11.921875 6.816406 -11.921875 C 7.144531 -11.921875 7.472656 -11.878906 7.769531 -11.816406 C 8.066406 -11.742188 8.304688 -11.640625 8.515625 -11.503906 C 8.574219 -11.460938 8.617188 -11.402344 8.617188 -11.328125 C 8.617188 -11.253906 8.601562 -11.191406 8.558594 -11.148438 L 8.558594 -11.132812 C 8.5 -11.042969 8.5 -10.96875 8.542969 -10.894531 C 8.574219 -10.804688 8.648438 -10.777344 8.75 -10.777344 L 12.042969 -10.777344 C 12.128906 -10.777344 12.203125 -10.804688 12.25 -10.894531 C 12.28125 -10.96875 12.28125 -11.042969 12.234375 -11.132812 Z M 12.234375 -11.132812 "/></g></g></g><g fill="rgb(0%, 0%, 0%)" fill-opacity="1"><g transform="translate(16.272826, 27.185668)"><g><path d="M 11.652344 -15.167969 L 11.640625 -15.152344 C 11.371094 -14.914062 11.074219 -14.792969 10.730469 -14.792969 L 3.082031 -14.792969 C 2.722656 -14.792969 2.425781 -14.914062 2.15625 -15.152344 L 2.15625 -15.167969 C 2.070312 -15.210938 1.996094 -15.210938 1.90625 -15.167969 C 1.816406 -15.121094 1.785156 -15.0625 1.785156 -14.972656 L 1.785156 -11.667969 C 1.785156 -11.566406 1.816406 -11.492188 1.90625 -11.460938 C 1.996094 -11.417969 2.070312 -11.417969 2.15625 -11.476562 C 2.425781 -11.714844 2.722656 -11.847656 3.082031 -11.847656 L 5.136719 -11.847656 C 5.210938 -11.847656 5.285156 -11.816406 5.34375 -11.757812 C 5.402344 -11.699219 5.433594 -11.625 5.433594 -11.550781 L 5.433594 -1.308594 C 5.433594 -0.953125 5.3125 -0.640625 5.074219 -0.386719 L 5.0625 -0.371094 C 5 -0.28125 5 -0.207031 5.046875 -0.117188 C 5.074219 -0.03125 5.148438 0 5.253906 0 L 8.558594 0 C 8.648438 0 8.707031 -0.03125 8.75 -0.117188 C 8.796875 -0.207031 8.796875 -0.28125 8.75 -0.371094 C 8.5 -0.640625 8.378906 -0.9375 8.378906 -1.292969 L 8.378906 -11.550781 C 8.378906 -11.625 8.410156 -11.699219 8.46875 -11.757812 C 8.527344 -11.816406 8.589844 -11.847656 8.675781 -11.847656 L 10.730469 -11.847656 C 11.089844 -11.847656 11.386719 -11.714844 11.640625 -11.476562 L 11.652344 -11.476562 C 11.730469 -11.417969 11.804688 -11.417969 11.890625 -11.460938 C 11.980469 -11.492188 12.027344 -11.566406 12.027344 -11.667969 L 12.027344 -14.972656 C 12.027344 -15.0625 11.980469 -15.121094 11.890625 -15.167969 C 11.804688 -15.210938 11.730469 -15.210938 11.652344 -15.167969 Z M 11.652344 -15.167969 "/></g></g></g><g fill="rgb(0%, 0%, 0%)" fill-opacity="1"><g transform="translate(30.085347, 27.185668)"><g><path d="M 13.542969 -0.269531 C 13.542969 -0.328125 13.515625 -0.371094 13.46875 -0.402344 C 13.128906 -0.683594 12.90625 -1.042969 12.785156 -1.488281 L 9.226562 -13.78125 C 9.152344 -14.019531 9.199219 -14.242188 9.378906 -14.421875 C 9.421875 -14.496094 9.421875 -14.570312 9.390625 -14.660156 C 9.347656 -14.75 9.273438 -14.792969 9.183594 -14.792969 L 5.253906 -14.792969 C 5.164062 -14.792969 5.089844 -14.75 5.046875 -14.660156 C 5 -14.570312 5 -14.496094 5.0625 -14.421875 C 5.238281 -14.242188 5.285156 -14.019531 5.210938 -13.78125 L 1.667969 -1.472656 C 1.546875 -1.058594 1.308594 -0.699219 0.96875 -0.402344 C 0.921875 -0.355469 0.894531 -0.3125 0.894531 -0.269531 C 0.878906 -0.195312 0.894531 -0.132812 0.9375 -0.0742188 C 0.980469 -0.015625 1.042969 0 1.132812 0 L 4.585938 0 C 4.671875 0 4.746094 -0.03125 4.777344 -0.117188 C 4.808594 -0.207031 4.808594 -0.28125 4.746094 -0.355469 C 4.570312 -0.535156 4.523438 -0.757812 4.585938 -0.996094 L 5.046875 -2.546875 C 5.089844 -2.707031 5.179688 -2.84375 5.3125 -2.933594 C 5.433594 -3.019531 5.582031 -3.082031 5.761719 -3.082031 L 8.691406 -3.082031 C 8.855469 -3.082031 9.003906 -3.019531 9.140625 -2.933594 C 9.257812 -2.84375 9.347656 -2.707031 9.40625 -2.546875 L 9.851562 -0.996094 C 9.914062 -0.757812 9.851562 -0.550781 9.703125 -0.371094 L 9.703125 -0.355469 C 9.644531 -0.269531 9.644531 -0.195312 9.691406 -0.117188 C 9.71875 -0.03125 9.792969 0 9.898438 0 L 13.320312 0 C 13.394531 0 13.457031 -0.015625 13.5 -0.0742188 C 13.542969 -0.132812 13.558594 -0.195312 13.542969 -0.269531 Z M 8.1875 -6.027344 L 6.265625 -6.027344 C 6.207031 -6.027344 6.160156 -6.042969 6.132812 -6.085938 C 6.085938 -6.132812 6.074219 -6.191406 6.101562 -6.25 L 7.070312 -9.570312 C 7.085938 -9.644531 7.128906 -9.691406 7.21875 -9.691406 C 7.308594 -9.691406 7.351562 -9.644531 7.382812 -9.570312 L 8.335938 -6.25 C 8.351562 -6.191406 8.335938 -6.132812 8.304688 -6.085938 C 8.277344 -6.042969 8.230469 -6.027344 8.1875 -6.027344 Z M 8.1875 -6.027344 "/></g></g></g><g fill="rgb(0%, 0%, 0%)" fill-opacity="1"><g transform="translate(44.537892, 27.185668)"><g><path d="M 12.742188 -0.417969 L 12.457031 -0.640625 C 12.25 -0.773438 12.070312 -0.953125 11.921875 -1.191406 L 7.769531 -7.070312 C 7.679688 -7.160156 7.652344 -7.277344 7.652344 -7.398438 C 7.652344 -7.515625 7.679688 -7.621094 7.769531 -7.726562 L 11.921875 -13.617188 C 12.070312 -13.8125 12.25 -14.007812 12.472656 -14.183594 L 12.742188 -14.378906 C 12.828125 -14.453125 12.859375 -14.554688 12.816406 -14.675781 C 12.753906 -14.75 12.679688 -14.792969 12.605469 -14.792969 L 8.738281 -14.792969 C 8.632812 -14.792969 8.558594 -14.75 8.527344 -14.660156 C 8.484375 -14.570312 8.484375 -14.496094 8.542969 -14.421875 L 8.558594 -14.40625 C 8.648438 -14.289062 8.664062 -14.167969 8.589844 -14.050781 L 5.640625 -9.851562 C 5.550781 -9.75 5.460938 -9.71875 5.34375 -9.75 C 5.222656 -9.777344 5.179688 -9.867188 5.179688 -10.003906 L 5.179688 -13.589844 C 5.179688 -13.886719 5.285156 -14.167969 5.507812 -14.40625 C 5.566406 -14.480469 5.582031 -14.570312 5.550781 -14.660156 C 5.507812 -14.75 5.433594 -14.792969 5.34375 -14.792969 L 2.007812 -14.792969 C 1.90625 -14.792969 1.832031 -14.75 1.800781 -14.660156 C 1.757812 -14.570312 1.769531 -14.496094 1.84375 -14.421875 C 2.097656 -14.140625 2.234375 -13.8125 2.234375 -13.425781 L 2.234375 -1.292969 C 2.234375 -0.953125 2.113281 -0.65625 1.890625 -0.417969 L 1.84375 -0.371094 C 1.785156 -0.28125 1.785156 -0.207031 1.832031 -0.117188 C 1.859375 -0.03125 1.933594 0 2.039062 0 L 5.375 0 C 5.460938 0 5.535156 -0.0429688 5.566406 -0.132812 C 5.597656 -0.222656 5.597656 -0.296875 5.535156 -0.371094 C 5.296875 -0.625 5.179688 -0.921875 5.179688 -1.25 L 5.179688 -4.808594 C 5.179688 -4.925781 5.222656 -5 5.34375 -5.046875 C 5.460938 -5.074219 5.550781 -5.046875 5.640625 -4.941406 L 8.589844 -0.757812 C 8.664062 -0.609375 8.648438 -0.492188 8.558594 -0.402344 L 8.542969 -0.371094 C 8.484375 -0.28125 8.484375 -0.207031 8.527344 -0.117188 C 8.558594 -0.03125 8.632812 0 8.738281 0 L 12.605469 0 C 12.695312 0 12.753906 -0.0429688 12.816406 -0.132812 C 12.828125 -0.179688 12.828125 -0.222656 12.828125 -0.28125 C 12.816406 -0.34375 12.785156 -0.386719 12.742188 -0.417969 Z M 12.742188 -0.417969 "/></g></g></g><g fill="rgb(0%, 0%, 0%)" fill-opacity="1"><g transform="translate(59.169043, 27.185668)"><g><path d="M 10.835938 -14.898438 C 10.582031 -14.660156 10.285156 -14.554688 9.957031 -14.554688 L 2.023438 -14.554688 C 1.921875 -14.554688 1.84375 -14.511719 1.816406 -14.421875 C 1.769531 -14.332031 1.769531 -14.257812 1.832031 -14.183594 L 1.875 -14.140625 C 2.113281 -13.871094 2.234375 -13.558594 2.234375 -13.203125 L 2.234375 -1.117188 C 2.234375 -0.9375 2.203125 -0.773438 2.144531 -0.609375 C 2.082031 -0.445312 1.996094 -0.296875 1.875 -0.179688 L 1.832031 -0.132812 C 1.769531 -0.0429688 1.769531 0.03125 1.816406 0.117188 C 1.84375 0.207031 1.921875 0.238281 2.023438 0.238281 L 9.957031 0.238281 C 10.285156 0.238281 10.582031 0.355469 10.835938 0.582031 C 10.910156 0.65625 11 0.667969 11.089844 0.625 C 11.179688 0.59375 11.238281 0.519531 11.238281 0.402344 L 11.238281 -2.917969 C 11.238281 -3.007812 11.191406 -3.082031 11.105469 -3.125 C 11.015625 -3.15625 10.925781 -3.140625 10.867188 -3.082031 C 10.597656 -2.828125 10.285156 -2.707031 9.925781 -2.707031 L 5.550781 -2.707031 C 5.449219 -2.707031 5.359375 -2.738281 5.285156 -2.8125 C 5.210938 -2.871094 5.179688 -2.960938 5.179688 -3.082031 L 5.179688 -5.3125 C 5.179688 -5.417969 5.210938 -5.507812 5.285156 -5.582031 C 5.359375 -5.640625 5.449219 -5.6875 5.550781 -5.6875 L 6.863281 -5.6875 C 7.21875 -5.6875 7.53125 -5.550781 7.800781 -5.3125 C 7.875 -5.253906 7.949219 -5.253906 8.039062 -5.296875 C 8.125 -5.34375 8.171875 -5.417969 8.171875 -5.507812 L 8.171875 -8.8125 C 8.171875 -8.902344 8.125 -8.960938 8.039062 -9.003906 C 7.949219 -9.050781 7.875 -9.050781 7.800781 -9.003906 C 7.53125 -8.75 7.21875 -8.632812 6.863281 -8.632812 L 5.550781 -8.632812 C 5.449219 -8.632812 5.359375 -8.664062 5.285156 -8.738281 C 5.210938 -8.796875 5.179688 -8.886719 5.179688 -9.003906 L 5.179688 -11.238281 C 5.179688 -11.339844 5.210938 -11.429688 5.285156 -11.503906 C 5.359375 -11.566406 5.449219 -11.609375 5.550781 -11.609375 L 9.925781 -11.609375 C 10.285156 -11.609375 10.597656 -11.476562 10.867188 -11.238281 C 10.925781 -11.164062 11.015625 -11.148438 11.105469 -11.191406 C 11.191406 -11.222656 11.238281 -11.296875 11.238281 -11.402344 L 11.238281 -14.734375 C 11.238281 -14.824219 11.179688 -14.898438 11.089844 -14.945312 C 11 -14.972656 10.910156 -14.957031 10.835938 -14.898438 Z M 10.835938 -14.898438 "/></g></g></g></svg>