<svg xmlns="http://www.w3.org/2000/svg" xmlns:xlink="http://www.w3.org/1999/xlink" width="100" zoomAndPan="magnify" viewBox="0 0 75 37.5" height="50" preserveAspectRatio="xMidYMid meet" version="1.0"><defs><g/><clipPath id="id1"><path d="M 0.492188 12 L 20 12 L 20 27 L 0.492188 27 Z M 0.492188 12 " clip-rule="nonzero"/></clipPath></defs><g clip-path="url(#id1)"><g fill="rgb(100%, 75.689697%, 69.799805%)" fill-opacity="0.302"><g transform="translate(-0.194517, 26.851267)"><g><path d="M 19.574219 -14.792969 L 16.371094 -14.792969 L 16.371094 -14.78125 L 16.371094 -14.792969 L 16.089844 -14.792969 C 15.984375 -14.792969 15.910156 -14.75 15.882812 -14.660156 C 15.835938 -14.570312 15.835938 -14.496094 15.894531 -14.421875 L 15.957031 -14.363281 C 16.105469 -14.183594 16.148438 -14.007812 16.089844 -13.796875 L 13.632812 -5.296875 C 13.605469 -5.210938 13.542969 -5.164062 13.457031 -5.164062 C 13.367188 -5.164062 13.304688 -5.210938 13.277344 -5.296875 L 12.203125 -9.035156 C 12.128906 -9.242188 12.175781 -9.4375 12.339844 -9.601562 L 12.367188 -9.628906 C 12.414062 -9.703125 12.414062 -9.777344 12.367188 -9.867188 C 12.324219 -9.941406 12.25 -9.988281 12.160156 -9.988281 L 8.527344 -9.988281 C 8.4375 -9.988281 8.363281 -9.941406 8.320312 -9.867188 C 8.277344 -9.777344 8.277344 -9.703125 8.335938 -9.628906 L 8.363281 -9.601562 C 8.515625 -9.421875 8.558594 -9.242188 8.5 -9.035156 L 7.425781 -5.296875 C 7.398438 -5.210938 7.335938 -5.164062 7.25 -5.164062 C 7.144531 -5.164062 7.085938 -5.210938 7.070312 -5.296875 L 4.613281 -13.796875 C 4.554688 -14.007812 4.597656 -14.183594 4.746094 -14.363281 L 4.808594 -14.421875 C 4.851562 -14.496094 4.851562 -14.570312 4.824219 -14.660156 C 4.777344 -14.75 4.703125 -14.792969 4.613281 -14.792969 L 1.132812 -14.792969 C 1.027344 -14.792969 0.953125 -14.75 0.921875 -14.660156 C 0.878906 -14.570312 0.878906 -14.496094 0.9375 -14.421875 C 1.324219 -14.066406 1.59375 -13.617188 1.742188 -13.113281 L 5.253906 -0.96875 C 5.3125 -0.746094 5.253906 -0.550781 5.105469 -0.371094 C 5.046875 -0.28125 5.046875 -0.207031 5.089844 -0.117188 C 5.136719 -0.03125 5.210938 0 5.296875 0 L 9.183594 0 C 9.273438 0 9.332031 -0.03125 9.378906 -0.117188 C 9.421875 -0.207031 9.421875 -0.28125 9.378906 -0.371094 L 9.363281 -0.371094 C 9.214844 -0.519531 9.167969 -0.714844 9.226562 -0.9375 L 10.164062 -4.183594 C 10.195312 -4.273438 10.253906 -4.316406 10.34375 -4.316406 C 10.433594 -4.316406 10.507812 -4.273438 10.539062 -4.183594 L 11.460938 -0.953125 C 11.519531 -0.730469 11.476562 -0.535156 11.328125 -0.386719 L 11.3125 -0.371094 C 11.253906 -0.28125 11.253906 -0.207031 11.296875 -0.117188 C 11.339844 -0.03125 11.417969 0 11.503906 0 L 15.417969 0 C 15.507812 0 15.582031 -0.03125 15.613281 -0.117188 C 15.644531 -0.207031 15.644531 -0.28125 15.582031 -0.371094 C 15.417969 -0.519531 15.375 -0.714844 15.449219 -0.921875 L 18.960938 -13.128906 C 19.035156 -13.367188 19.140625 -13.605469 19.273438 -13.828125 C 19.394531 -14.050781 19.558594 -14.242188 19.765625 -14.421875 C 19.8125 -14.496094 19.8125 -14.570312 19.78125 -14.660156 C 19.734375 -14.75 19.660156 -14.792969 19.574219 -14.792969 Z M 19.574219 -14.792969 "/></g></g></g></g><g fill="rgb(100%, 75.689697%, 69.799805%)" fill-opacity="0.302"><g transform="translate(20.50939, 26.851267)"><g><path d="M 13.542969 -0.269531 C 13.542969 -0.328125 13.515625 -0.371094 13.46875 -0.402344 C 13.128906 -0.683594 12.90625 -1.042969 12.785156 -1.488281 L 9.226562 -13.78125 C 9.152344 -14.019531 9.199219 -14.242188 9.378906 -14.421875 C 9.421875 -14.496094 9.421875 -14.570312 9.390625 -14.660156 C 9.347656 -14.75 9.273438 -14.792969 9.183594 -14.792969 L 5.253906 -14.792969 C 5.164062 -14.792969 5.089844 -14.75 5.046875 -14.660156 C 5 -14.570312 5 -14.496094 5.0625 -14.421875 C 5.238281 -14.242188 5.285156 -14.019531 5.210938 -13.78125 L 1.667969 -1.472656 C 1.546875 -1.058594 1.308594 -0.699219 0.96875 -0.402344 C 0.921875 -0.355469 0.894531 -0.3125 0.894531 -0.269531 C 0.878906 -0.195312 0.894531 -0.132812 0.9375 -0.0742188 C 0.980469 -0.015625 1.042969 0 1.132812 0 L 4.585938 0 C 4.671875 0 4.746094 -0.03125 4.777344 -0.117188 C 4.808594 -0.207031 4.808594 -0.28125 4.746094 -0.355469 C 4.570312 -0.535156 4.523438 -0.757812 4.585938 -0.996094 L 5.046875 -2.546875 C 5.089844 -2.707031 5.179688 -2.84375 5.3125 -2.933594 C 5.433594 -3.019531 5.582031 -3.082031 5.761719 -3.082031 L 8.691406 -3.082031 C 8.855469 -3.082031 9.003906 -3.019531 9.140625 -2.933594 C 9.257812 -2.84375 9.347656 -2.707031 9.40625 -2.546875 L 9.851562 -0.996094 C 9.914062 -0.757812 9.851562 -0.550781 9.703125 -0.371094 L 9.703125 -0.355469 C 9.644531 -0.269531 9.644531 -0.195312 9.691406 -0.117188 C 9.71875 -0.03125 9.792969 0 9.898438 0 L 13.320312 0 C 13.394531 0 13.457031 -0.015625 13.5 -0.0742188 C 13.542969 -0.132812 13.558594 -0.195312 13.542969 -0.269531 Z M 8.1875 -6.027344 L 6.265625 -6.027344 C 6.207031 -6.027344 6.160156 -6.042969 6.132812 -6.085938 C 6.085938 -6.132812 6.074219 -6.191406 6.101562 -6.25 L 7.070312 -9.570312 C 7.085938 -9.644531 7.128906 -9.691406 7.21875 -9.691406 C 7.308594 -9.691406 7.351562 -9.644531 7.382812 -9.570312 L 8.335938 -6.25 C 8.351562 -6.191406 8.335938 -6.132812 8.304688 -6.085938 C 8.277344 -6.042969 8.230469 -6.027344 8.1875 -6.027344 Z M 8.1875 -6.027344 "/></g></g></g><g fill="rgb(100%, 75.689697%, 69.799805%)" fill-opacity="0.302"><g transform="translate(34.961935, 26.851267)"><g><path d="M 10.316406 -7.457031 L 8.542969 -7.457031 C 8.199219 -7.457031 7.902344 -7.5625 7.664062 -7.800781 L 7.605469 -7.859375 C 7.515625 -7.902344 7.441406 -7.902344 7.351562 -7.875 C 7.261719 -7.828125 7.234375 -7.753906 7.234375 -7.664062 L 7.234375 -4.359375 C 7.234375 -4.273438 7.261719 -4.199219 7.351562 -4.152344 C 7.441406 -4.109375 7.515625 -4.109375 7.605469 -4.167969 L 7.769531 -4.332031 C 7.886719 -4.449219 8.039062 -4.511719 8.214844 -4.511719 C 8.230469 -4.511719 8.246094 -4.496094 8.246094 -4.464844 L 8.246094 -3.304688 C 8.246094 -3.199219 8.199219 -3.109375 8.140625 -3.050781 C 8.082031 -2.976562 7.992188 -2.945312 7.886719 -2.945312 C 7.085938 -2.945312 6.414062 -3.097656 5.894531 -3.410156 C 5.375 -3.707031 4.957031 -4.09375 4.660156 -4.554688 C 4.359375 -5 4.136719 -5.492188 4.019531 -6 C 3.898438 -6.503906 3.839844 -6.980469 3.839844 -7.398438 C 3.839844 -7.992188 3.929688 -8.558594 4.109375 -9.09375 C 4.285156 -9.628906 4.554688 -10.105469 4.882812 -10.523438 C 5.597656 -11.386719 6.609375 -11.832031 7.886719 -11.832031 L 9.378906 -11.832031 C 9.703125 -11.832031 10.003906 -11.714844 10.253906 -11.503906 C 10.316406 -11.429688 10.390625 -11.417969 10.476562 -11.445312 C 10.566406 -11.476562 10.613281 -11.550781 10.613281 -11.652344 L 10.613281 -14.988281 C 10.613281 -15.078125 10.566406 -15.152344 10.492188 -15.195312 C 10.402344 -15.226562 10.328125 -15.226562 10.253906 -15.183594 L 10.195312 -15.121094 C 9.941406 -14.898438 9.644531 -14.792969 9.316406 -14.792969 L 7.886719 -14.792969 C 6.800781 -14.792969 5.820312 -14.585938 4.925781 -14.183594 C 4.035156 -13.769531 3.273438 -13.171875 2.621094 -12.398438 C 2.054688 -11.730469 1.621094 -10.96875 1.324219 -10.105469 C 1.027344 -9.242188 0.894531 -8.351562 0.894531 -7.398438 C 0.894531 -6.472656 1.042969 -5.566406 1.339844 -4.6875 C 1.636719 -3.796875 2.070312 -3.007812 2.664062 -2.320312 C 3.257812 -1.621094 3.988281 -1.058594 4.851562 -0.640625 C 5.714844 -0.207031 6.726562 0 7.886719 0 L 10.316406 0 C 10.554688 0 10.761719 -0.0742188 10.941406 -0.253906 C 11.105469 -0.417969 11.191406 -0.625 11.191406 -0.878906 L 11.191406 -6.578125 C 11.191406 -6.816406 11.105469 -7.011719 10.941406 -7.1875 C 10.761719 -7.367188 10.554688 -7.457031 10.316406 -7.457031 Z M 10.316406 -7.457031 "/></g></g></g><g fill="rgb(100%, 75.689697%, 69.799805%)" fill-opacity="0.302"><g transform="translate(47.955828, 26.851267)"><g><path d="M 16.121094 -1.25 L 16.121094 -13.542969 C 16.121094 -13.871094 16.222656 -14.167969 16.460938 -14.421875 C 16.519531 -14.496094 16.535156 -14.570312 16.507812 -14.660156 C 16.460938 -14.75 16.402344 -14.792969 16.3125 -14.792969 L 13.171875 -14.792969 L 13.15625 -14.78125 L 13.15625 -14.792969 L 12.753906 -14.792969 C 12.652344 -14.792969 12.578125 -14.75 12.546875 -14.660156 C 12.503906 -14.570312 12.503906 -14.496094 12.5625 -14.421875 C 12.621094 -14.332031 12.605469 -14.273438 12.546875 -14.230469 L 9.480469 -11.402344 C 9.378906 -11.3125 9.257812 -11.28125 9.140625 -11.28125 C 9.019531 -11.28125 8.914062 -11.3125 8.828125 -11.402344 L 5.714844 -14.257812 C 5.65625 -14.304688 5.65625 -14.347656 5.714844 -14.40625 C 5.773438 -14.480469 5.789062 -14.570312 5.761719 -14.660156 C 5.714844 -14.75 5.640625 -14.792969 5.535156 -14.792969 L 2.023438 -14.792969 C 1.921875 -14.792969 1.84375 -14.75 1.816406 -14.660156 C 1.769531 -14.570312 1.769531 -14.496094 1.832031 -14.421875 L 1.84375 -14.40625 C 2.070312 -14.15625 2.1875 -13.855469 2.1875 -13.53125 L 2.1875 -1.265625 C 2.1875 -0.921875 2.070312 -0.625 1.84375 -0.386719 L 1.832031 -0.371094 C 1.769531 -0.28125 1.769531 -0.207031 1.816406 -0.117188 C 1.84375 -0.03125 1.921875 0 2.023438 0 L 5.3125 0 C 5.402344 0 5.476562 -0.03125 5.523438 -0.117188 C 5.550781 -0.207031 5.550781 -0.28125 5.507812 -0.371094 L 5.476562 -0.402344 C 5.238281 -0.640625 5.136719 -0.9375 5.136719 -1.28125 L 5.136719 -10.300781 C 5.136719 -10.390625 5.164062 -10.449219 5.253906 -10.476562 C 5.34375 -10.507812 5.417969 -10.507812 5.492188 -10.449219 L 8.828125 -7.351562 C 8.914062 -7.261719 9.019531 -7.21875 9.152344 -7.21875 C 9.273438 -7.21875 9.390625 -7.261719 9.480469 -7.351562 L 12.816406 -10.449219 C 12.875 -10.507812 12.949219 -10.507812 13.039062 -10.476562 C 13.128906 -10.449219 13.171875 -10.390625 13.171875 -10.300781 L 13.171875 -1.292969 C 13.171875 -0.96875 13.054688 -0.667969 12.816406 -0.417969 L 12.785156 -0.371094 C 12.726562 -0.28125 12.726562 -0.207031 12.769531 -0.117188 C 12.800781 -0.03125 12.875 0 12.980469 0 L 16.3125 0 C 16.402344 0 16.460938 -0.03125 16.507812 -0.117188 C 16.535156 -0.207031 16.519531 -0.28125 16.460938 -0.371094 C 16.222656 -0.609375 16.121094 -0.90625 16.121094 -1.25 Z M 16.121094 -1.25 "/></g></g></g><g fill="rgb(100%, 75.689697%, 69.799805%)" fill-opacity="0.302"><g transform="translate(66.263371, 26.851267)"><g><path d="M 5.148438 -1.308594 L 5.148438 -13.484375 C 5.148438 -13.84375 5.269531 -14.15625 5.507812 -14.421875 C 5.550781 -14.496094 5.550781 -14.570312 5.523438 -14.660156 C 5.476562 -14.75 5.402344 -14.792969 5.3125 -14.792969 L 2.023438 -14.792969 C 1.921875 -14.792969 1.84375 -14.75 1.816406 -14.660156 C 1.769531 -14.570312 1.769531 -14.496094 1.832031 -14.421875 C 2.070312 -14.15625 2.203125 -13.84375 2.203125 -13.484375 L 2.203125 -1.308594 C 2.203125 -0.953125 2.070312 -0.640625 1.832031 -0.371094 C 1.769531 -0.28125 1.769531 -0.207031 1.816406 -0.117188 C 1.84375 -0.03125 1.921875 0 2.023438 0 L 5.3125 0 C 5.402344 0 5.476562 -0.03125 5.523438 -0.117188 C 5.550781 -0.207031 5.550781 -0.28125 5.507812 -0.371094 C 5.386719 -0.492188 5.296875 -0.640625 5.238281 -0.804688 C 5.179688 -0.96875 5.148438 -1.132812 5.148438 -1.308594 Z M 5.148438 -1.308594 "/></g></g></g><g fill="rgb(100%, 75.689697%, 69.799805%)" fill-opacity="0.502"><g transform="translate(0.199384, 27.018467)"><g><path d="M 19.574219 -14.792969 L 16.371094 -14.792969 L 16.371094 -14.78125 L 16.371094 -14.792969 L 16.089844 -14.792969 C 15.984375 -14.792969 15.910156 -14.75 15.882812 -14.660156 C 15.835938 -14.570312 15.835938 -14.496094 15.894531 -14.421875 L 15.957031 -14.363281 C 16.105469 -14.183594 16.148438 -14.007812 16.089844 -13.796875 L 13.632812 -5.296875 C 13.605469 -5.210938 13.542969 -5.164062 13.457031 -5.164062 C 13.367188 -5.164062 13.304688 -5.210938 13.277344 -5.296875 L 12.203125 -9.035156 C 12.128906 -9.242188 12.175781 -9.4375 12.339844 -9.601562 L 12.367188 -9.628906 C 12.414062 -9.703125 12.414062 -9.777344 12.367188 -9.867188 C 12.324219 -9.941406 12.25 -9.988281 12.160156 -9.988281 L 8.527344 -9.988281 C 8.4375 -9.988281 8.363281 -9.941406 8.320312 -9.867188 C 8.277344 -9.777344 8.277344 -9.703125 8.335938 -9.628906 L 8.363281 -9.601562 C 8.515625 -9.421875 8.558594 -9.242188 8.5 -9.035156 L 7.425781 -5.296875 C 7.398438 -5.210938 7.335938 -5.164062 7.25 -5.164062 C 7.144531 -5.164062 7.085938 -5.210938 7.070312 -5.296875 L 4.613281 -13.796875 C 4.554688 -14.007812 4.597656 -14.183594 4.746094 -14.363281 L 4.808594 -14.421875 C 4.851562 -14.496094 4.851562 -14.570312 4.824219 -14.660156 C 4.777344 -14.75 4.703125 -14.792969 4.613281 -14.792969 L 1.132812 -14.792969 C 1.027344 -14.792969 0.953125 -14.75 0.921875 -14.660156 C 0.878906 -14.570312 0.878906 -14.496094 0.9375 -14.421875 C 1.324219 -14.066406 1.59375 -13.617188 1.742188 -13.113281 L 5.253906 -0.96875 C 5.3125 -0.746094 5.253906 -0.550781 5.105469 -0.371094 C 5.046875 -0.28125 5.046875 -0.207031 5.089844 -0.117188 C 5.136719 -0.03125 5.210938 0 5.296875 0 L 9.183594 0 C 9.273438 0 9.332031 -0.03125 9.378906 -0.117188 C 9.421875 -0.207031 9.421875 -0.28125 9.378906 -0.371094 L 9.363281 -0.371094 C 9.214844 -0.519531 9.167969 -0.714844 9.226562 -0.9375 L 10.164062 -4.183594 C 10.195312 -4.273438 10.253906 -4.316406 10.34375 -4.316406 C 10.433594 -4.316406 10.507812 -4.273438 10.539062 -4.183594 L 11.460938 -0.953125 C 11.519531 -0.730469 11.476562 -0.535156 11.328125 -0.386719 L 11.3125 -0.371094 C 11.253906 -0.28125 11.253906 -0.207031 11.296875 -0.117188 C 11.339844 -0.03125 11.417969 0 11.503906 0 L 15.417969 0 C 15.507812 0 15.582031 -0.03125 15.613281 -0.117188 C 15.644531 -0.207031 15.644531 -0.28125 15.582031 -0.371094 C 15.417969 -0.519531 15.375 -0.714844 15.449219 -0.921875 L 18.960938 -13.128906 C 19.035156 -13.367188 19.140625 -13.605469 19.273438 -13.828125 C 19.394531 -14.050781 19.558594 -14.242188 19.765625 -14.421875 C 19.8125 -14.496094 19.8125 -14.570312 19.78125 -14.660156 C 19.734375 -14.75 19.660156 -14.792969 19.574219 -14.792969 Z M 19.574219 -14.792969 "/></g></g></g><g fill="rgb(100%, 75.689697%, 69.799805%)" fill-opacity="0.502"><g transform="translate(20.90329, 27.018467)"><g><path d="M 13.542969 -0.269531 C 13.542969 -0.328125 13.515625 -0.371094 13.46875 -0.402344 C 13.128906 -0.683594 12.90625 -1.042969 12.785156 -1.488281 L 9.226562 -13.78125 C 9.152344 -14.019531 9.199219 -14.242188 9.378906 -14.421875 C 9.421875 -14.496094 9.421875 -14.570312 9.390625 -14.660156 C 9.347656 -14.75 9.273438 -14.792969 9.183594 -14.792969 L 5.253906 -14.792969 C 5.164062 -14.792969 5.089844 -14.75 5.046875 -14.660156 C 5 -14.570312 5 -14.496094 5.0625 -14.421875 C 5.238281 -14.242188 5.285156 -14.019531 5.210938 -13.78125 L 1.667969 -1.472656 C 1.546875 -1.058594 1.308594 -0.699219 0.96875 -0.402344 C 0.921875 -0.355469 0.894531 -0.3125 0.894531 -0.269531 C 0.878906 -0.195312 0.894531 -0.132812 0.9375 -0.0742188 C 0.980469 -0.015625 1.042969 0 1.132812 0 L 4.585938 0 C 4.671875 0 4.746094 -0.03125 4.777344 -0.117188 C 4.808594 -0.207031 4.808594 -0.28125 4.746094 -0.355469 C 4.570312 -0.535156 4.523438 -0.757812 4.585938 -0.996094 L 5.046875 -2.546875 C 5.089844 -2.707031 5.179688 -2.84375 5.3125 -2.933594 C 5.433594 -3.019531 5.582031 -3.082031 5.761719 -3.082031 L 8.691406 -3.082031 C 8.855469 -3.082031 9.003906 -3.019531 9.140625 -2.933594 C 9.257812 -2.84375 9.347656 -2.707031 9.40625 -2.546875 L 9.851562 -0.996094 C 9.914062 -0.757812 9.851562 -0.550781 9.703125 -0.371094 L 9.703125 -0.355469 C 9.644531 -0.269531 9.644531 -0.195312 9.691406 -0.117188 C 9.71875 -0.03125 9.792969 0 9.898438 0 L 13.320312 0 C 13.394531 0 13.457031 -0.015625 13.5 -0.0742188 C 13.542969 -0.132812 13.558594 -0.195312 13.542969 -0.269531 Z M 8.1875 -6.027344 L 6.265625 -6.027344 C 6.207031 -6.027344 6.160156 -6.042969 6.132812 -6.085938 C 6.085938 -6.132812 6.074219 -6.191406 6.101562 -6.25 L 7.070312 -9.570312 C 7.085938 -9.644531 7.128906 -9.691406 7.21875 -9.691406 C 7.308594 -9.691406 7.351562 -9.644531 7.382812 -9.570312 L 8.335938 -6.25 C 8.351562 -6.191406 8.335938 -6.132812 8.304688 -6.085938 C 8.277344 -6.042969 8.230469 -6.027344 8.1875 -6.027344 Z M 8.1875 -6.027344 "/></g></g></g><g fill="rgb(100%, 75.689697%, 69.799805%)" fill-opacity="0.502"><g transform="translate(35.355836, 27.018467)"><g><path d="M 10.316406 -7.457031 L 8.542969 -7.457031 C 8.199219 -7.457031 7.902344 -7.5625 7.664062 -7.800781 L 7.605469 -7.859375 C 7.515625 -7.902344 7.441406 -7.902344 7.351562 -7.875 C 7.261719 -7.828125 7.234375 -7.753906 7.234375 -7.664062 L 7.234375 -4.359375 C 7.234375 -4.273438 7.261719 -4.199219 7.351562 -4.152344 C 7.441406 -4.109375 7.515625 -4.109375 7.605469 -4.167969 L 7.769531 -4.332031 C 7.886719 -4.449219 8.039062 -4.511719 8.214844 -4.511719 C 8.230469 -4.511719 8.246094 -4.496094 8.246094 -4.464844 L 8.246094 -3.304688 C 8.246094 -3.199219 8.199219 -3.109375 8.140625 -3.050781 C 8.082031 -2.976562 7.992188 -2.945312 7.886719 -2.945312 C 7.085938 -2.945312 6.414062 -3.097656 5.894531 -3.410156 C 5.375 -3.707031 4.957031 -4.09375 4.660156 -4.554688 C 4.359375 -5 4.136719 -5.492188 4.019531 -6 C 3.898438 -6.503906 3.839844 -6.980469 3.839844 -7.398438 C 3.839844 -7.992188 3.929688 -8.558594 4.109375 -9.09375 C 4.285156 -9.628906 4.554688 -10.105469 4.882812 -10.523438 C 5.597656 -11.386719 6.609375 -11.832031 7.886719 -11.832031 L 9.378906 -11.832031 C 9.703125 -11.832031 10.003906 -11.714844 10.253906 -11.503906 C 10.316406 -11.429688 10.390625 -11.417969 10.476562 -11.445312 C 10.566406 -11.476562 10.613281 -11.550781 10.613281 -11.652344 L 10.613281 -14.988281 C 10.613281 -15.078125 10.566406 -15.152344 10.492188 -15.195312 C 10.402344 -15.226562 10.328125 -15.226562 10.253906 -15.183594 L 10.195312 -15.121094 C 9.941406 -14.898438 9.644531 -14.792969 9.316406 -14.792969 L 7.886719 -14.792969 C 6.800781 -14.792969 5.820312 -14.585938 4.925781 -14.183594 C 4.035156 -13.769531 3.273438 -13.171875 2.621094 -12.398438 C 2.054688 -11.730469 1.621094 -10.96875 1.324219 -10.105469 C 1.027344 -9.242188 0.894531 -8.351562 0.894531 -7.398438 C 0.894531 -6.472656 1.042969 -5.566406 1.339844 -4.6875 C 1.636719 -3.796875 2.070312 -3.007812 2.664062 -2.320312 C 3.257812 -1.621094 3.988281 -1.058594 4.851562 -0.640625 C 5.714844 -0.207031 6.726562 0 7.886719 0 L 10.316406 0 C 10.554688 0 10.761719 -0.0742188 10.941406 -0.253906 C 11.105469 -0.417969 11.191406 -0.625 11.191406 -0.878906 L 11.191406 -6.578125 C 11.191406 -6.816406 11.105469 -7.011719 10.941406 -7.1875 C 10.761719 -7.367188 10.554688 -7.457031 10.316406 -7.457031 Z M 10.316406 -7.457031 "/></g></g></g><g fill="rgb(100%, 75.689697%, 69.799805%)" fill-opacity="0.502"><g transform="translate(48.349728, 27.018467)"><g><path d="M 16.121094 -1.25 L 16.121094 -13.542969 C 16.121094 -13.871094 16.222656 -14.167969 16.460938 -14.421875 C 16.519531 -14.496094 16.535156 -14.570312 16.507812 -14.660156 C 16.460938 -14.75 16.402344 -14.792969 16.3125 -14.792969 L 13.171875 -14.792969 L 13.15625 -14.78125 L 13.15625 -14.792969 L 12.753906 -14.792969 C 12.652344 -14.792969 12.578125 -14.75 12.546875 -14.660156 C 12.503906 -14.570312 12.503906 -14.496094 12.5625 -14.421875 C 12.621094 -14.332031 12.605469 -14.273438 12.546875 -14.230469 L 9.480469 -11.402344 C 9.378906 -11.3125 9.257812 -11.28125 9.140625 -11.28125 C 9.019531 -11.28125 8.914062 -11.3125 8.828125 -11.402344 L 5.714844 -14.257812 C 5.65625 -14.304688 5.65625 -14.347656 5.714844 -14.40625 C 5.773438 -14.480469 5.789062 -14.570312 5.761719 -14.660156 C 5.714844 -14.75 5.640625 -14.792969 5.535156 -14.792969 L 2.023438 -14.792969 C 1.921875 -14.792969 1.84375 -14.75 1.816406 -14.660156 C 1.769531 -14.570312 1.769531 -14.496094 1.832031 -14.421875 L 1.84375 -14.40625 C 2.070312 -14.15625 2.1875 -13.855469 2.1875 -13.53125 L 2.1875 -1.265625 C 2.1875 -0.921875 2.070312 -0.625 1.84375 -0.386719 L 1.832031 -0.371094 C 1.769531 -0.28125 1.769531 -0.207031 1.816406 -0.117188 C 1.84375 -0.03125 1.921875 0 2.023438 0 L 5.3125 0 C 5.402344 0 5.476562 -0.03125 5.523438 -0.117188 C 5.550781 -0.207031 5.550781 -0.28125 5.507812 -0.371094 L 5.476562 -0.402344 C 5.238281 -0.640625 5.136719 -0.9375 5.136719 -1.28125 L 5.136719 -10.300781 C 5.136719 -10.390625 5.164062 -10.449219 5.253906 -10.476562 C 5.34375 -10.507812 5.417969 -10.507812 5.492188 -10.449219 L 8.828125 -7.351562 C 8.914062 -7.261719 9.019531 -7.21875 9.152344 -7.21875 C 9.273438 -7.21875 9.390625 -7.261719 9.480469 -7.351562 L 12.816406 -10.449219 C 12.875 -10.507812 12.949219 -10.507812 13.039062 -10.476562 C 13.128906 -10.449219 13.171875 -10.390625 13.171875 -10.300781 L 13.171875 -1.292969 C 13.171875 -0.96875 13.054688 -0.667969 12.816406 -0.417969 L 12.785156 -0.371094 C 12.726562 -0.28125 12.726562 -0.207031 12.769531 -0.117188 C 12.800781 -0.03125 12.875 0 12.980469 0 L 16.3125 0 C 16.402344 0 16.460938 -0.03125 16.507812 -0.117188 C 16.535156 -0.207031 16.519531 -0.28125 16.460938 -0.371094 C 16.222656 -0.609375 16.121094 -0.90625 16.121094 -1.25 Z M 16.121094 -1.25 "/></g></g></g><g fill="rgb(100%, 75.689697%, 69.799805%)" fill-opacity="0.502"><g transform="translate(66.657271, 27.018467)"><g><path d="M 5.148438 -1.308594 L 5.148438 -13.484375 C 5.148438 -13.84375 5.269531 -14.15625 5.507812 -14.421875 C 5.550781 -14.496094 5.550781 -14.570312 5.523438 -14.660156 C 5.476562 -14.75 5.402344 -14.792969 5.3125 -14.792969 L 2.023438 -14.792969 C 1.921875 -14.792969 1.84375 -14.75 1.816406 -14.660156 C 1.769531 -14.570312 1.769531 -14.496094 1.832031 -14.421875 C 2.070312 -14.15625 2.203125 -13.84375 2.203125 -13.484375 L 2.203125 -1.308594 C 2.203125 -0.953125 2.070312 -0.640625 1.832031 -0.371094 C 1.769531 -0.28125 1.769531 -0.207031 1.816406 -0.117188 C 1.84375 -0.03125 1.921875 0 2.023438 0 L 5.3125 0 C 5.402344 0 5.476562 -0.03125 5.523438 -0.117188 C 5.550781 -0.207031 5.550781 -0.28125 5.507812 -0.371094 C 5.386719 -0.492188 5.296875 -0.640625 5.238281 -0.804688 C 5.179688 -0.96875 5.148438 -1.132812 5.148438 -1.308594 Z M 5.148438 -1.308594 "/></g></g></g><g fill="rgb(0%, 0%, 0%)" fill-opacity="1"><g transform="translate(0.593283, 27.185668)"><g><path d="M 19.574219 -14.792969 L 16.371094 -14.792969 L 16.371094 -14.78125 L 16.371094 -14.792969 L 16.089844 -14.792969 C 15.984375 -14.792969 15.910156 -14.75 15.882812 -14.660156 C 15.835938 -14.570312 15.835938 -14.496094 15.894531 -14.421875 L 15.957031 -14.363281 C 16.105469 -14.183594 16.148438 -14.007812 16.089844 -13.796875 L 13.632812 -5.296875 C 13.605469 -5.210938 13.542969 -5.164062 13.457031 -5.164062 C 13.367188 -5.164062 13.304688 -5.210938 13.277344 -5.296875 L 12.203125 -9.035156 C 12.128906 -9.242188 12.175781 -9.4375 12.339844 -9.601562 L 12.367188 -9.628906 C 12.414062 -9.703125 12.414062 -9.777344 12.367188 -9.867188 C 12.324219 -9.941406 12.25 -9.988281 12.160156 -9.988281 L 8.527344 -9.988281 C 8.4375 -9.988281 8.363281 -9.941406 8.320312 -9.867188 C 8.277344 -9.777344 8.277344 -9.703125 8.335938 -9.628906 L 8.363281 -9.601562 C 8.515625 -9.421875 8.558594 -9.242188 8.5 -9.035156 L 7.425781 -5.296875 C 7.398438 -5.210938 7.335938 -5.164062 7.25 -5.164062 C 7.144531 -5.164062 7.085938 -5.210938 7.070312 -5.296875 L 4.613281 -13.796875 C 4.554688 -14.007812 4.597656 -14.183594 4.746094 -14.363281 L 4.808594 -14.421875 C 4.851562 -14.496094 4.851562 -14.570312 4.824219 -14.660156 C 4.777344 -14.75 4.703125 -14.792969 4.613281 -14.792969 L 1.132812 -14.792969 C 1.027344 -14.792969 0.953125 -14.75 0.921875 -14.660156 C 0.878906 -14.570312 0.878906 -14.496094 0.9375 -14.421875 C 1.324219 -14.066406 1.59375 -13.617188 1.742188 -13.113281 L 5.253906 -0.96875 C 5.3125 -0.746094 5.253906 -0.550781 5.105469 -0.371094 C 5.046875 -0.28125 5.046875 -0.207031 5.089844 -0.117188 C 5.136719 -0.03125 5.210938 0 5.296875 0 L 9.183594 0 C 9.273438 0 9.332031 -0.03125 9.378906 -0.117188 C 9.421875 -0.207031 9.421875 -0.28125 9.378906 -0.371094 L 9.363281 -0.371094 C 9.214844 -0.519531 9.167969 -0.714844 9.226562 -0.9375 L 10.164062 -4.183594 C 10.195312 -4.273438 10.253906 -4.316406 10.34375 -4.316406 C 10.433594 -4.316406 10.507812 -4.273438 10.539062 -4.183594 L 11.460938 -0.953125 C 11.519531 -0.730469 11.476562 -0.535156 11.328125 -0.386719 L 11.3125 -0.371094 C 11.253906 -0.28125 11.253906 -0.207031 11.296875 -0.117188 C 11.339844 -0.03125 11.417969 0 11.503906 0 L 15.417969 0 C 15.507812 0 15.582031 -0.03125 15.613281 -0.117188 C 15.644531 -0.207031 15.644531 -0.28125 15.582031 -0.371094 C 15.417969 -0.519531 15.375 -0.714844 15.449219 -0.921875 L 18.960938 -13.128906 C 19.035156 -13.367188 19.140625 -13.605469 19.273438 -13.828125 C 19.394531 -14.050781 19.558594 -14.242188 19.765625 -14.421875 C 19.8125 -14.496094 19.8125 -14.570312 19.78125 -14.660156 C 19.734375 -14.75 19.660156 -14.792969 19.574219 -14.792969 Z M 19.574219 -14.792969 "/></g></g></g><g fill="rgb(0%, 0%, 0%)" fill-opacity="1"><g transform="translate(21.29719, 27.185668)"><g><path d="M 13.542969 -0.269531 C 13.542969 -0.328125 13.515625 -0.371094 13.46875 -0.402344 C 13.128906 -0.683594 12.90625 -1.042969 12.785156 -1.488281 L 9.226562 -13.78125 C 9.152344 -14.019531 9.199219 -14.242188 9.378906 -14.421875 C 9.421875 -14.496094 9.421875 -14.570312 9.390625 -14.660156 C 9.347656 -14.75 9.273438 -14.792969 9.183594 -14.792969 L 5.253906 -14.792969 C 5.164062 -14.792969 5.089844 -14.75 5.046875 -14.660156 C 5 -14.570312 5 -14.496094 5.0625 -14.421875 C 5.238281 -14.242188 5.285156 -14.019531 5.210938 -13.78125 L 1.667969 -1.472656 C 1.546875 -1.058594 1.308594 -0.699219 0.96875 -0.402344 C 0.921875 -0.355469 0.894531 -0.3125 0.894531 -0.269531 C 0.878906 -0.195312 0.894531 -0.132812 0.9375 -0.0742188 C 0.980469 -0.015625 1.042969 0 1.132812 0 L 4.585938 0 C 4.671875 0 4.746094 -0.03125 4.777344 -0.117188 C 4.808594 -0.207031 4.808594 -0.28125 4.746094 -0.355469 C 4.570312 -0.535156 4.523438 -0.757812 4.585938 -0.996094 L 5.046875 -2.546875 C 5.089844 -2.707031 5.179688 -2.84375 5.3125 -2.933594 C 5.433594 -3.019531 5.582031 -3.082031 5.761719 -3.082031 L 8.691406 -3.082031 C 8.855469 -3.082031 9.003906 -3.019531 9.140625 -2.933594 C 9.257812 -2.84375 9.347656 -2.707031 9.40625 -2.546875 L 9.851562 -0.996094 C 9.914062 -0.757812 9.851562 -0.550781 9.703125 -0.371094 L 9.703125 -0.355469 C 9.644531 -0.269531 9.644531 -0.195312 9.691406 -0.117188 C 9.71875 -0.03125 9.792969 0 9.898438 0 L 13.320312 0 C 13.394531 0 13.457031 -0.015625 13.5 -0.0742188 C 13.542969 -0.132812 13.558594 -0.195312 13.542969 -0.269531 Z M 8.1875 -6.027344 L 6.265625 -6.027344 C 6.207031 -6.027344 6.160156 -6.042969 6.132812 -6.085938 C 6.085938 -6.132812 6.074219 -6.191406 6.101562 -6.25 L 7.070312 -9.570312 C 7.085938 -9.644531 7.128906 -9.691406 7.21875 -9.691406 C 7.308594 -9.691406 7.351562 -9.644531 7.382812 -9.570312 L 8.335938 -6.25 C 8.351562 -6.191406 8.335938 -6.132812 8.304688 -6.085938 C 8.277344 -6.042969 8.230469 -6.027344 8.1875 -6.027344 Z M 8.1875 -6.027344 "/></g></g></g><g fill="rgb(0%, 0%, 0%)" fill-opacity="1"><g transform="translate(35.749735, 27.185668)"><g><path d="M 10.316406 -7.457031 L 8.542969 -7.457031 C 8.199219 -7.457031 7.902344 -7.5625 7.664062 -7.800781 L 7.605469 -7.859375 C 7.515625 -7.902344 7.441406 -7.902344 7.351562 -7.875 C 7.261719 -7.828125 7.234375 -7.753906 7.234375 -7.664062 L 7.234375 -4.359375 C 7.234375 -4.273438 7.261719 -4.199219 7.351562 -4.152344 C 7.441406 -4.109375 7.515625 -4.109375 7.605469 -4.167969 L 7.769531 -4.332031 C 7.886719 -4.449219 8.039062 -4.511719 8.214844 -4.511719 C 8.230469 -4.511719 8.246094 -4.496094 8.246094 -4.464844 L 8.246094 -3.304688 C 8.246094 -3.199219 8.199219 -3.109375 8.140625 -3.050781 C 8.082031 -2.976562 7.992188 -2.945312 7.886719 -2.945312 C 7.085938 -2.945312 6.414062 -3.097656 5.894531 -3.410156 C 5.375 -3.707031 4.957031 -4.09375 4.660156 -4.554688 C 4.359375 -5 4.136719 -5.492188 4.019531 -6 C 3.898438 -6.503906 3.839844 -6.980469 3.839844 -7.398438 C 3.839844 -7.992188 3.929688 -8.558594 4.109375 -9.09375 C 4.285156 -9.628906 4.554688 -10.105469 4.882812 -10.523438 C 5.597656 -11.386719 6.609375 -11.832031 7.886719 -11.832031 L 9.378906 -11.832031 C 9.703125 -11.832031 10.003906 -11.714844 10.253906 -11.503906 C 10.316406 -11.429688 10.390625 -11.417969 10.476562 -11.445312 C 10.566406 -11.476562 10.613281 -11.550781 10.613281 -11.652344 L 10.613281 -14.988281 C 10.613281 -15.078125 10.566406 -15.152344 10.492188 -15.195312 C 10.402344 -15.226562 10.328125 -15.226562 10.253906 -15.183594 L 10.195312 -15.121094 C 9.941406 -14.898438 9.644531 -14.792969 9.316406 -14.792969 L 7.886719 -14.792969 C 6.800781 -14.792969 5.820312 -14.585938 4.925781 -14.183594 C 4.035156 -13.769531 3.273438 -13.171875 2.621094 -12.398438 C 2.054688 -11.730469 1.621094 -10.96875 1.324219 -10.105469 C 1.027344 -9.242188 0.894531 -8.351562 0.894531 -7.398438 C 0.894531 -6.472656 1.042969 -5.566406 1.339844 -4.6875 C 1.636719 -3.796875 2.070312 -3.007812 2.664062 -2.320312 C 3.257812 -1.621094 3.988281 -1.058594 4.851562 -0.640625 C 5.714844 -0.207031 6.726562 0 7.886719 0 L 10.316406 0 C 10.554688 0 10.761719 -0.0742188 10.941406 -0.253906 C 11.105469 -0.417969 11.191406 -0.625 11.191406 -0.878906 L 11.191406 -6.578125 C 11.191406 -6.816406 11.105469 -7.011719 10.941406 -7.1875 C 10.761719 -7.367188 10.554688 -7.457031 10.316406 -7.457031 Z M 10.316406 -7.457031 "/></g></g></g><g fill="rgb(0%, 0%, 0%)" fill-opacity="1"><g transform="translate(48.743628, 27.185668)"><g><path d="M 16.121094 -1.25 L 16.121094 -13.542969 C 16.121094 -13.871094 16.222656 -14.167969 16.460938 -14.421875 C 16.519531 -14.496094 16.535156 -14.570312 16.507812 -14.660156 C 16.460938 -14.75 16.402344 -14.792969 16.3125 -14.792969 L 13.171875 -14.792969 L 13.15625 -14.78125 L 13.15625 -14.792969 L 12.753906 -14.792969 C 12.652344 -14.792969 12.578125 -14.75 12.546875 -14.660156 C 12.503906 -14.570312 12.503906 -14.496094 12.5625 -14.421875 C 12.621094 -14.332031 12.605469 -14.273438 12.546875 -14.230469 L 9.480469 -11.402344 C 9.378906 -11.3125 9.257812 -11.28125 9.140625 -11.28125 C 9.019531 -11.28125 8.914062 -11.3125 8.828125 -11.402344 L 5.714844 -14.257812 C 5.65625 -14.304688 5.65625 -14.347656 5.714844 -14.40625 C 5.773438 -14.480469 5.789062 -14.570312 5.761719 -14.660156 C 5.714844 -14.75 5.640625 -14.792969 5.535156 -14.792969 L 2.023438 -14.792969 C 1.921875 -14.792969 1.84375 -14.75 1.816406 -14.660156 C 1.769531 -14.570312 1.769531 -14.496094 1.832031 -14.421875 L 1.84375 -14.40625 C 2.070312 -14.15625 2.1875 -13.855469 2.1875 -13.53125 L 2.1875 -1.265625 C 2.1875 -0.921875 2.070312 -0.625 1.84375 -0.386719 L 1.832031 -0.371094 C 1.769531 -0.28125 1.769531 -0.207031 1.816406 -0.117188 C 1.84375 -0.03125 1.921875 0 2.023438 0 L 5.3125 0 C 5.402344 0 5.476562 -0.03125 5.523438 -0.117188 C 5.550781 -0.207031 5.550781 -0.28125 5.507812 -0.371094 L 5.476562 -0.402344 C 5.238281 -0.640625 5.136719 -0.9375 5.136719 -1.28125 L 5.136719 -10.300781 C 5.136719 -10.390625 5.164062 -10.449219 5.253906 -10.476562 C 5.34375 -10.507812 5.417969 -10.507812 5.492188 -10.449219 L 8.828125 -7.351562 C 8.914062 -7.261719 9.019531 -7.21875 9.152344 -7.21875 C 9.273438 -7.21875 9.390625 -7.261719 9.480469 -7.351562 L 12.816406 -10.449219 C 12.875 -10.507812 12.949219 -10.507812 13.039062 -10.476562 C 13.128906 -10.449219 13.171875 -10.390625 13.171875 -10.300781 L 13.171875 -1.292969 C 13.171875 -0.96875 13.054688 -0.667969 12.816406 -0.417969 L 12.785156 -0.371094 C 12.726562 -0.28125 12.726562 -0.207031 12.769531 -0.117188 C 12.800781 -0.03125 12.875 0 12.980469 0 L 16.3125 0 C 16.402344 0 16.460938 -0.03125 16.507812 -0.117188 C 16.535156 -0.207031 16.519531 -0.28125 16.460938 -0.371094 C 16.222656 -0.609375 16.121094 -0.90625 16.121094 -1.25 Z M 16.121094 -1.25 "/></g></g></g><g fill="rgb(0%, 0%, 0%)" fill-opacity="1"><g transform="translate(67.051171, 27.185668)"><g><path d="M 5.148438 -1.308594 L 5.148438 -13.484375 C 5.148438 -13.84375 5.269531 -14.15625 5.507812 -14.421875 C 5.550781 -14.496094 5.550781 -14.570312 5.523438 -14.660156 C 5.476562 -14.75 5.402344 -14.792969 5.3125 -14.792969 L 2.023438 -14.792969 C 1.921875 -14.792969 1.84375 -14.75 1.816406 -14.660156 C 1.769531 -14.570312 1.769531 -14.496094 1.832031 -14.421875 C 2.070312 -14.15625 2.203125 -13.84375 2.203125 -13.484375 L 2.203125 -1.308594 C 2.203125 -0.953125 2.070312 -0.640625 1.832031 -0.371094 C 1.769531 -0.28125 1.769531 -0.207031 1.816406 -0.117188 C 1.84375 -0.03125 1.921875 0 2.023438 0 L 5.3125 0 C 5.402344 0 5.476562 -0.03125 5.523438 -0.117188 C 5.550781 -0.207031 5.550781 -0.28125 5.507812 -0.371094 C 5.386719 -0.492188 5.296875 -0.640625 5.238281 -0.804688 C 5.179688 -0.96875 5.148438 -1.132812 5.148438 -1.308594 Z M 5.148438 -1.308594 "/></g></g></g></svg>